G04 EAGLE Gerber RS-274X export*
G75*
%MOMM*%
%FSLAX34Y34*%
%LPD*%
%INTop Copper*%
%IPPOS*%
%AMOC8*
5,1,8,0,0,1.08239X$1,22.5*%
G01*
%ADD10C,0.130000*%
%ADD11C,0.152400*%
%ADD12C,0.150000*%
%ADD13R,0.798700X0.973900*%
%ADD14R,0.783900X1.127200*%
%ADD15R,0.920900X0.970200*%
%ADD16R,0.970200X0.920900*%
%ADD17R,1.508000X1.508000*%
%ADD18C,1.508000*%
%ADD19R,1.300000X1.500000*%
%ADD20R,0.973900X0.798700*%
%ADD21C,1.700000*%
%ADD22R,1.223500X0.624800*%
%ADD23R,2.392000X1.565300*%
%ADD24C,3.810000*%
%ADD25C,1.208000*%
%ADD26C,1.524000*%
%ADD27C,2.600000*%
%ADD28R,1.969400X0.592200*%
%ADD29R,3.500000X5.000000*%
%ADD30R,1.900000X5.000000*%
%ADD31P,1.649562X8X381.800000*%
%ADD32C,2.540000*%
%ADD33C,0.756400*%
%ADD34C,0.304800*%
%ADD35C,0.609600*%
%ADD36C,0.508000*%
%ADD37C,0.406400*%
%ADD38C,0.200000*%
%ADD39C,0.203200*%
%ADD40C,1.056400*%

G36*
X55316Y-299876D02*
X55316Y-299876D01*
X55375Y-299864D01*
X55428Y-299863D01*
X87295Y-294449D01*
X87352Y-294430D01*
X87404Y-294424D01*
X118465Y-285475D01*
X118520Y-285451D01*
X118571Y-285438D01*
X138369Y-277238D01*
X138378Y-277233D01*
X138387Y-277230D01*
X138499Y-277161D01*
X138612Y-277094D01*
X138619Y-277087D01*
X138627Y-277082D01*
X138715Y-276984D01*
X138805Y-276888D01*
X138809Y-276880D01*
X138816Y-276873D01*
X138873Y-276754D01*
X138933Y-276637D01*
X138935Y-276627D01*
X138939Y-276619D01*
X138951Y-276543D01*
X138985Y-276360D01*
X138983Y-276336D01*
X138986Y-276314D01*
X138986Y-167446D01*
X138973Y-167351D01*
X138968Y-167255D01*
X138953Y-167212D01*
X138946Y-167167D01*
X138907Y-167079D01*
X138875Y-166988D01*
X138850Y-166954D01*
X138830Y-166910D01*
X138747Y-166813D01*
X138694Y-166739D01*
X116874Y-144920D01*
X116867Y-144915D01*
X116861Y-144907D01*
X116754Y-144830D01*
X116649Y-144751D01*
X116640Y-144748D01*
X116632Y-144742D01*
X116508Y-144698D01*
X116385Y-144651D01*
X116375Y-144651D01*
X116366Y-144647D01*
X116235Y-144640D01*
X116104Y-144630D01*
X116094Y-144631D01*
X116085Y-144631D01*
X116010Y-144649D01*
X115828Y-144687D01*
X115806Y-144698D01*
X115785Y-144704D01*
X113605Y-145607D01*
X112600Y-145607D01*
X112545Y-145615D01*
X112489Y-145613D01*
X112406Y-145634D01*
X112320Y-145647D01*
X112270Y-145669D01*
X112216Y-145683D01*
X112142Y-145727D01*
X112064Y-145763D01*
X112021Y-145799D01*
X111974Y-145827D01*
X111915Y-145890D01*
X111849Y-145946D01*
X111819Y-145993D01*
X111781Y-146033D01*
X111742Y-146110D01*
X111695Y-146182D01*
X111679Y-146235D01*
X111653Y-146285D01*
X111640Y-146361D01*
X111612Y-146452D01*
X111611Y-146526D01*
X111601Y-146589D01*
X111271Y-165465D01*
X109752Y-166932D01*
X109688Y-167015D01*
X109618Y-167093D01*
X109602Y-167126D01*
X109579Y-167155D01*
X109540Y-167252D01*
X109495Y-167346D01*
X109489Y-167381D01*
X109475Y-167417D01*
X109461Y-167560D01*
X109447Y-167651D01*
X109447Y-168886D01*
X109461Y-168981D01*
X109465Y-169077D01*
X109480Y-169120D01*
X109487Y-169165D01*
X109526Y-169253D01*
X109558Y-169344D01*
X109583Y-169378D01*
X109603Y-169422D01*
X109686Y-169519D01*
X109740Y-169593D01*
X125571Y-185424D01*
X125648Y-185482D01*
X125719Y-185546D01*
X125760Y-185566D01*
X125797Y-185593D01*
X125887Y-185627D01*
X125973Y-185669D01*
X126015Y-185676D01*
X126061Y-185693D01*
X126188Y-185703D01*
X126278Y-185717D01*
X128480Y-185717D01*
X129373Y-186610D01*
X129373Y-194215D01*
X129386Y-194310D01*
X129391Y-194406D01*
X129406Y-194449D01*
X129413Y-194494D01*
X129452Y-194581D01*
X129484Y-194672D01*
X129509Y-194707D01*
X129529Y-194751D01*
X129612Y-194848D01*
X129665Y-194921D01*
X134528Y-199784D01*
X134528Y-220498D01*
X111820Y-243206D01*
X110039Y-244987D01*
X43346Y-244987D01*
X43337Y-244988D01*
X43327Y-244987D01*
X43197Y-245008D01*
X43067Y-245027D01*
X43058Y-245030D01*
X43049Y-245032D01*
X42930Y-245089D01*
X42810Y-245143D01*
X42803Y-245149D01*
X42794Y-245153D01*
X42696Y-245240D01*
X42596Y-245326D01*
X42591Y-245334D01*
X42584Y-245340D01*
X42562Y-245376D01*
X40993Y-246945D01*
X39043Y-247753D01*
X36931Y-247753D01*
X34981Y-246945D01*
X33488Y-245452D01*
X32680Y-243502D01*
X32680Y-241390D01*
X33488Y-239440D01*
X34981Y-237947D01*
X36931Y-237139D01*
X39043Y-237139D01*
X40993Y-237947D01*
X42552Y-239506D01*
X42567Y-239531D01*
X42574Y-239538D01*
X42579Y-239546D01*
X42676Y-239634D01*
X42772Y-239724D01*
X42781Y-239728D01*
X42788Y-239735D01*
X42906Y-239792D01*
X43024Y-239852D01*
X43033Y-239854D01*
X43042Y-239858D01*
X43118Y-239870D01*
X43301Y-239904D01*
X43325Y-239902D01*
X43346Y-239905D01*
X107521Y-239905D01*
X107616Y-239892D01*
X107712Y-239887D01*
X107755Y-239872D01*
X107800Y-239865D01*
X107887Y-239826D01*
X107978Y-239794D01*
X108013Y-239769D01*
X108057Y-239749D01*
X108154Y-239666D01*
X108227Y-239613D01*
X129154Y-218686D01*
X129211Y-218609D01*
X129276Y-218538D01*
X129296Y-218497D01*
X129323Y-218461D01*
X129357Y-218371D01*
X129399Y-218284D01*
X129405Y-218242D01*
X129422Y-218197D01*
X129432Y-218069D01*
X129446Y-217980D01*
X129446Y-215447D01*
X129439Y-215394D01*
X129441Y-215340D01*
X129419Y-215255D01*
X129406Y-215168D01*
X129384Y-215119D01*
X129371Y-215067D01*
X129326Y-214991D01*
X129290Y-214911D01*
X129255Y-214870D01*
X129228Y-214824D01*
X129164Y-214763D01*
X129107Y-214696D01*
X129062Y-214667D01*
X129023Y-214630D01*
X128945Y-214590D01*
X128871Y-214542D01*
X128819Y-214526D01*
X128772Y-214502D01*
X128685Y-214485D01*
X128601Y-214460D01*
X128548Y-214459D01*
X128495Y-214449D01*
X128417Y-214457D01*
X128319Y-214456D01*
X128249Y-214475D01*
X128188Y-214482D01*
X128182Y-214483D01*
X124996Y-214483D01*
X124996Y-208338D01*
X124987Y-208274D01*
X124988Y-208210D01*
X124967Y-208136D01*
X124956Y-208059D01*
X124930Y-208000D01*
X124913Y-207938D01*
X124872Y-207872D01*
X124840Y-207802D01*
X124798Y-207753D01*
X124765Y-207698D01*
X124707Y-207647D01*
X124657Y-207588D01*
X124603Y-207552D01*
X124555Y-207509D01*
X124486Y-207476D01*
X124421Y-207433D01*
X124359Y-207414D01*
X124302Y-207386D01*
X124232Y-207376D01*
X124151Y-207351D01*
X124066Y-207350D01*
X123997Y-207339D01*
X121997Y-207339D01*
X121933Y-207348D01*
X121869Y-207347D01*
X121794Y-207368D01*
X121718Y-207379D01*
X121659Y-207405D01*
X121597Y-207422D01*
X121531Y-207463D01*
X121461Y-207495D01*
X121412Y-207537D01*
X121357Y-207570D01*
X121305Y-207628D01*
X121247Y-207678D01*
X121211Y-207732D01*
X121168Y-207780D01*
X121135Y-207849D01*
X121092Y-207914D01*
X121073Y-207976D01*
X121045Y-208034D01*
X121035Y-208103D01*
X121010Y-208184D01*
X121009Y-208269D01*
X120998Y-208338D01*
X120998Y-214483D01*
X117811Y-214483D01*
X117165Y-214310D01*
X116586Y-213976D01*
X116499Y-213889D01*
X116473Y-213869D01*
X116452Y-213845D01*
X116361Y-213785D01*
X116274Y-213719D01*
X116243Y-213708D01*
X116216Y-213690D01*
X116112Y-213658D01*
X116010Y-213620D01*
X115978Y-213617D01*
X115947Y-213608D01*
X115837Y-213607D01*
X115729Y-213598D01*
X115697Y-213605D01*
X115665Y-213604D01*
X115559Y-213633D01*
X115452Y-213656D01*
X115424Y-213671D01*
X115393Y-213679D01*
X115300Y-213737D01*
X115203Y-213788D01*
X115180Y-213811D01*
X115153Y-213828D01*
X115080Y-213909D01*
X115001Y-213985D01*
X114985Y-214013D01*
X114964Y-214037D01*
X114916Y-214135D01*
X114862Y-214230D01*
X114855Y-214262D01*
X114841Y-214291D01*
X114827Y-214380D01*
X114797Y-214505D01*
X114800Y-214553D01*
X114793Y-214595D01*
X114793Y-218080D01*
X114620Y-218726D01*
X114286Y-219306D01*
X113813Y-219779D01*
X113233Y-220113D01*
X112587Y-220286D01*
X110255Y-220286D01*
X110255Y-213873D01*
X110246Y-213809D01*
X110247Y-213745D01*
X110226Y-213670D01*
X110215Y-213594D01*
X110189Y-213535D01*
X110172Y-213473D01*
X110131Y-213407D01*
X110099Y-213337D01*
X110057Y-213288D01*
X110023Y-213233D01*
X109966Y-213181D01*
X109916Y-213123D01*
X109862Y-213087D01*
X109814Y-213044D01*
X109745Y-213011D01*
X109680Y-212968D01*
X109618Y-212949D01*
X109560Y-212921D01*
X109491Y-212910D01*
X109410Y-212886D01*
X109325Y-212885D01*
X109271Y-212876D01*
X109319Y-212869D01*
X109384Y-212870D01*
X109458Y-212849D01*
X109535Y-212838D01*
X109593Y-212812D01*
X109655Y-212795D01*
X109721Y-212754D01*
X109792Y-212722D01*
X109841Y-212681D01*
X109895Y-212647D01*
X109947Y-212589D01*
X110006Y-212539D01*
X110041Y-212485D01*
X110084Y-212437D01*
X110118Y-212368D01*
X110161Y-212303D01*
X110179Y-212241D01*
X110207Y-212184D01*
X110218Y-212114D01*
X110243Y-212033D01*
X110244Y-211948D01*
X110255Y-211879D01*
X110255Y-205466D01*
X112587Y-205466D01*
X113233Y-205639D01*
X113813Y-205973D01*
X113899Y-206060D01*
X113925Y-206080D01*
X113946Y-206104D01*
X114038Y-206164D01*
X114125Y-206230D01*
X114155Y-206241D01*
X114182Y-206259D01*
X114287Y-206291D01*
X114389Y-206329D01*
X114421Y-206332D01*
X114452Y-206341D01*
X114561Y-206342D01*
X114670Y-206351D01*
X114702Y-206344D01*
X114734Y-206345D01*
X114839Y-206316D01*
X114946Y-206293D01*
X114975Y-206278D01*
X115006Y-206270D01*
X115099Y-206212D01*
X115195Y-206161D01*
X115218Y-206138D01*
X115246Y-206121D01*
X115319Y-206040D01*
X115397Y-205964D01*
X115413Y-205936D01*
X115435Y-205912D01*
X115482Y-205814D01*
X115536Y-205719D01*
X115544Y-205687D01*
X115558Y-205658D01*
X115572Y-205569D01*
X115601Y-205444D01*
X115599Y-205396D01*
X115605Y-205354D01*
X115605Y-202399D01*
X115778Y-201753D01*
X116113Y-201173D01*
X116586Y-200700D01*
X117165Y-200366D01*
X117811Y-200193D01*
X120998Y-200193D01*
X120998Y-206338D01*
X121007Y-206402D01*
X121006Y-206466D01*
X121027Y-206540D01*
X121038Y-206617D01*
X121064Y-206676D01*
X121081Y-206738D01*
X121122Y-206804D01*
X121154Y-206874D01*
X121196Y-206923D01*
X121229Y-206978D01*
X121287Y-207029D01*
X121337Y-207088D01*
X121391Y-207124D01*
X121439Y-207167D01*
X121508Y-207200D01*
X121573Y-207243D01*
X121635Y-207262D01*
X121692Y-207290D01*
X121762Y-207300D01*
X121843Y-207325D01*
X121928Y-207326D01*
X121997Y-207337D01*
X123997Y-207337D01*
X124061Y-207328D01*
X124125Y-207329D01*
X124200Y-207308D01*
X124276Y-207297D01*
X124335Y-207271D01*
X124397Y-207254D01*
X124463Y-207213D01*
X124533Y-207181D01*
X124582Y-207139D01*
X124637Y-207106D01*
X124689Y-207048D01*
X124747Y-206998D01*
X124783Y-206944D01*
X124826Y-206896D01*
X124859Y-206827D01*
X124902Y-206762D01*
X124921Y-206700D01*
X124949Y-206642D01*
X124959Y-206573D01*
X124984Y-206492D01*
X124985Y-206407D01*
X124996Y-206338D01*
X124996Y-200193D01*
X125338Y-200193D01*
X125370Y-200188D01*
X125402Y-200191D01*
X125509Y-200168D01*
X125617Y-200153D01*
X125647Y-200140D01*
X125678Y-200133D01*
X125775Y-200082D01*
X125874Y-200037D01*
X125899Y-200016D01*
X125927Y-200001D01*
X126006Y-199924D01*
X126089Y-199853D01*
X126106Y-199826D01*
X126129Y-199804D01*
X126183Y-199709D01*
X126243Y-199617D01*
X126253Y-199587D01*
X126268Y-199558D01*
X126294Y-199452D01*
X126326Y-199348D01*
X126326Y-199315D01*
X126333Y-199284D01*
X126328Y-199175D01*
X126329Y-199066D01*
X126321Y-199035D01*
X126319Y-199002D01*
X126283Y-198899D01*
X126254Y-198794D01*
X126237Y-198766D01*
X126227Y-198736D01*
X126173Y-198663D01*
X126106Y-198554D01*
X126070Y-198521D01*
X126045Y-198487D01*
X125826Y-198268D01*
X125749Y-198210D01*
X125678Y-198146D01*
X125637Y-198126D01*
X125600Y-198099D01*
X125510Y-198065D01*
X125424Y-198023D01*
X125382Y-198016D01*
X125336Y-197999D01*
X125209Y-197989D01*
X125119Y-197975D01*
X117514Y-197975D01*
X116621Y-197082D01*
X116621Y-186610D01*
X117412Y-185819D01*
X117451Y-185768D01*
X117497Y-185723D01*
X117535Y-185656D01*
X117581Y-185594D01*
X117604Y-185533D01*
X117636Y-185478D01*
X117654Y-185402D01*
X117681Y-185330D01*
X117686Y-185266D01*
X117701Y-185203D01*
X117697Y-185126D01*
X117703Y-185048D01*
X117690Y-184986D01*
X117686Y-184921D01*
X117661Y-184848D01*
X117645Y-184772D01*
X117615Y-184716D01*
X117594Y-184655D01*
X117552Y-184598D01*
X117513Y-184523D01*
X117453Y-184463D01*
X117412Y-184406D01*
X106169Y-173163D01*
X104398Y-171392D01*
X104398Y-167660D01*
X104390Y-167605D01*
X104391Y-167549D01*
X104370Y-167466D01*
X104358Y-167381D01*
X104335Y-167330D01*
X104321Y-167276D01*
X104277Y-167202D01*
X104242Y-167124D01*
X104205Y-167082D01*
X104177Y-167034D01*
X104114Y-166975D01*
X104058Y-166910D01*
X104012Y-166879D01*
X103971Y-166841D01*
X103894Y-166802D01*
X103822Y-166755D01*
X103769Y-166739D01*
X103719Y-166714D01*
X103644Y-166701D01*
X103552Y-166673D01*
X103541Y-166673D01*
X102223Y-165307D01*
X102549Y-146623D01*
X102540Y-146551D01*
X102541Y-146478D01*
X102523Y-146412D01*
X102514Y-146344D01*
X102485Y-146277D01*
X102466Y-146206D01*
X102430Y-146148D01*
X102403Y-146085D01*
X102356Y-146028D01*
X102318Y-145966D01*
X102267Y-145920D01*
X102223Y-145867D01*
X102163Y-145826D01*
X102108Y-145777D01*
X102047Y-145747D01*
X101990Y-145709D01*
X101920Y-145686D01*
X101855Y-145654D01*
X101792Y-145645D01*
X101721Y-145622D01*
X101626Y-145619D01*
X101550Y-145607D01*
X99898Y-145607D01*
X99843Y-145615D01*
X99787Y-145613D01*
X99704Y-145634D01*
X99619Y-145647D01*
X99568Y-145669D01*
X99514Y-145683D01*
X99440Y-145727D01*
X99362Y-145763D01*
X99319Y-145799D01*
X99272Y-145827D01*
X99213Y-145890D01*
X99147Y-145946D01*
X99117Y-145993D01*
X99079Y-146033D01*
X99040Y-146110D01*
X98993Y-146182D01*
X98977Y-146235D01*
X98951Y-146285D01*
X98938Y-146361D01*
X98910Y-146452D01*
X98909Y-146526D01*
X98899Y-146589D01*
X98573Y-165244D01*
X97132Y-166636D01*
X97111Y-166641D01*
X97052Y-166678D01*
X96989Y-166705D01*
X96933Y-166751D01*
X96871Y-166790D01*
X96825Y-166841D01*
X96771Y-166884D01*
X96730Y-166945D01*
X96682Y-166999D01*
X96651Y-167061D01*
X96613Y-167118D01*
X96590Y-167187D01*
X96559Y-167253D01*
X96549Y-167315D01*
X96526Y-167386D01*
X96523Y-167481D01*
X96511Y-167557D01*
X96511Y-174322D01*
X96525Y-174417D01*
X96529Y-174513D01*
X96544Y-174556D01*
X96551Y-174601D01*
X96590Y-174689D01*
X96622Y-174780D01*
X96647Y-174814D01*
X96667Y-174858D01*
X96750Y-174956D01*
X96804Y-175029D01*
X110079Y-188304D01*
X110156Y-188362D01*
X110227Y-188426D01*
X110268Y-188446D01*
X110305Y-188473D01*
X110395Y-188507D01*
X110481Y-188549D01*
X110523Y-188556D01*
X110568Y-188573D01*
X110696Y-188583D01*
X110786Y-188597D01*
X112554Y-188597D01*
X113447Y-189490D01*
X113447Y-200492D01*
X112554Y-201385D01*
X103304Y-201385D01*
X102411Y-200492D01*
X102411Y-189490D01*
X102897Y-189003D01*
X102936Y-188952D01*
X102982Y-188907D01*
X103020Y-188840D01*
X103067Y-188778D01*
X103089Y-188718D01*
X103121Y-188662D01*
X103139Y-188586D01*
X103166Y-188514D01*
X103171Y-188450D01*
X103186Y-188387D01*
X103182Y-188310D01*
X103188Y-188233D01*
X103175Y-188170D01*
X103172Y-188106D01*
X103146Y-188032D01*
X103130Y-187957D01*
X103100Y-187900D01*
X103079Y-187839D01*
X103038Y-187783D01*
X102998Y-187708D01*
X102939Y-187647D01*
X102897Y-187590D01*
X91938Y-176630D01*
X91938Y-167443D01*
X91930Y-167388D01*
X91931Y-167332D01*
X91910Y-167248D01*
X91898Y-167163D01*
X91875Y-167113D01*
X91861Y-167059D01*
X91817Y-166985D01*
X91781Y-166906D01*
X91745Y-166864D01*
X91717Y-166816D01*
X91654Y-166757D01*
X91598Y-166692D01*
X91552Y-166662D01*
X91511Y-166624D01*
X91434Y-166585D01*
X91362Y-166538D01*
X91309Y-166521D01*
X91259Y-166496D01*
X91184Y-166483D01*
X91092Y-166455D01*
X91018Y-166454D01*
X90956Y-166443D01*
X90834Y-166441D01*
X89525Y-165086D01*
X89847Y-146623D01*
X89838Y-146551D01*
X89839Y-146478D01*
X89821Y-146412D01*
X89812Y-146344D01*
X89783Y-146277D01*
X89764Y-146206D01*
X89728Y-146148D01*
X89701Y-146085D01*
X89654Y-146028D01*
X89616Y-145966D01*
X89565Y-145920D01*
X89521Y-145867D01*
X89461Y-145826D01*
X89407Y-145777D01*
X89345Y-145747D01*
X89288Y-145709D01*
X89218Y-145686D01*
X89153Y-145654D01*
X89090Y-145645D01*
X89019Y-145622D01*
X88924Y-145619D01*
X88848Y-145607D01*
X87196Y-145607D01*
X87141Y-145615D01*
X87085Y-145613D01*
X87002Y-145634D01*
X86917Y-145647D01*
X86866Y-145669D01*
X86812Y-145683D01*
X86738Y-145727D01*
X86660Y-145763D01*
X86617Y-145799D01*
X86570Y-145827D01*
X86511Y-145890D01*
X86445Y-145946D01*
X86415Y-145993D01*
X86377Y-146033D01*
X86338Y-146110D01*
X86291Y-146182D01*
X86275Y-146235D01*
X86250Y-146285D01*
X86236Y-146361D01*
X86209Y-146452D01*
X86208Y-146526D01*
X86197Y-146589D01*
X85875Y-165022D01*
X84517Y-166334D01*
X84464Y-166340D01*
X84391Y-166339D01*
X84325Y-166358D01*
X84257Y-166366D01*
X84190Y-166395D01*
X84119Y-166415D01*
X84061Y-166451D01*
X83998Y-166478D01*
X83941Y-166524D01*
X83879Y-166563D01*
X83833Y-166614D01*
X83780Y-166658D01*
X83739Y-166718D01*
X83690Y-166772D01*
X83660Y-166834D01*
X83622Y-166891D01*
X83599Y-166960D01*
X83567Y-167026D01*
X83558Y-167088D01*
X83535Y-167159D01*
X83532Y-167254D01*
X83520Y-167330D01*
X83520Y-186991D01*
X83529Y-187055D01*
X83528Y-187119D01*
X83549Y-187194D01*
X83560Y-187270D01*
X83586Y-187329D01*
X83603Y-187391D01*
X83644Y-187457D01*
X83676Y-187527D01*
X83718Y-187576D01*
X83751Y-187631D01*
X83809Y-187683D01*
X83859Y-187741D01*
X83913Y-187777D01*
X83961Y-187820D01*
X84030Y-187853D01*
X84095Y-187896D01*
X84157Y-187915D01*
X84214Y-187943D01*
X84284Y-187954D01*
X84365Y-187978D01*
X84450Y-187979D01*
X84519Y-187990D01*
X86469Y-187990D01*
X86783Y-188304D01*
X86860Y-188362D01*
X86931Y-188426D01*
X86972Y-188446D01*
X87008Y-188473D01*
X87099Y-188507D01*
X87185Y-188549D01*
X87227Y-188556D01*
X87272Y-188573D01*
X87400Y-188583D01*
X87489Y-188597D01*
X96250Y-188597D01*
X97143Y-189490D01*
X97143Y-200492D01*
X96250Y-201385D01*
X95249Y-201385D01*
X95181Y-201395D01*
X95113Y-201395D01*
X95042Y-201415D01*
X94969Y-201425D01*
X94907Y-201453D01*
X94842Y-201472D01*
X94779Y-201511D01*
X94712Y-201541D01*
X94661Y-201586D01*
X94603Y-201622D01*
X94554Y-201677D01*
X94498Y-201725D01*
X94461Y-201782D01*
X94415Y-201833D01*
X94384Y-201899D01*
X94344Y-201961D01*
X94324Y-202026D01*
X94294Y-202088D01*
X94285Y-202154D01*
X94261Y-202230D01*
X94260Y-202320D01*
X94249Y-202393D01*
X94252Y-202725D01*
X94242Y-202792D01*
X94242Y-204100D01*
X94252Y-204173D01*
X94242Y-205450D01*
X94242Y-205454D01*
X94242Y-205458D01*
X94242Y-205483D01*
X94251Y-205546D01*
X94250Y-205610D01*
X94271Y-205685D01*
X94282Y-205762D01*
X94308Y-205820D01*
X94325Y-205882D01*
X94366Y-205948D01*
X94398Y-206019D01*
X94440Y-206067D01*
X94473Y-206122D01*
X94531Y-206174D01*
X94581Y-206233D01*
X94635Y-206268D01*
X94683Y-206311D01*
X94752Y-206345D01*
X94817Y-206387D01*
X94879Y-206406D01*
X94936Y-206434D01*
X95006Y-206445D01*
X95087Y-206470D01*
X95172Y-206471D01*
X95241Y-206482D01*
X96580Y-206482D01*
X97473Y-207375D01*
X97473Y-218377D01*
X96580Y-219270D01*
X88195Y-219270D01*
X88089Y-219285D01*
X87983Y-219293D01*
X87952Y-219305D01*
X87916Y-219310D01*
X87781Y-219371D01*
X87695Y-219404D01*
X87088Y-219755D01*
X86442Y-219928D01*
X83502Y-219928D01*
X83502Y-213536D01*
X83493Y-213472D01*
X83494Y-213408D01*
X83473Y-213334D01*
X83462Y-213257D01*
X83436Y-213198D01*
X83419Y-213136D01*
X83378Y-213070D01*
X83346Y-213000D01*
X83304Y-212951D01*
X83271Y-212896D01*
X83213Y-212845D01*
X83163Y-212786D01*
X83109Y-212750D01*
X83061Y-212707D01*
X82992Y-212674D01*
X82927Y-212631D01*
X82865Y-212612D01*
X82808Y-212584D01*
X82738Y-212574D01*
X82657Y-212549D01*
X82572Y-212548D01*
X82503Y-212537D01*
X81502Y-212537D01*
X81502Y-211536D01*
X81493Y-211472D01*
X81494Y-211408D01*
X81473Y-211333D01*
X81462Y-211257D01*
X81436Y-211198D01*
X81419Y-211136D01*
X81378Y-211070D01*
X81346Y-211000D01*
X81304Y-210951D01*
X81271Y-210896D01*
X81213Y-210844D01*
X81163Y-210786D01*
X81109Y-210750D01*
X81061Y-210707D01*
X80992Y-210674D01*
X80927Y-210631D01*
X80865Y-210612D01*
X80807Y-210584D01*
X80738Y-210574D01*
X80657Y-210549D01*
X80572Y-210548D01*
X80503Y-210537D01*
X74358Y-210537D01*
X74358Y-207351D01*
X74454Y-206991D01*
X74460Y-206943D01*
X74469Y-206915D01*
X74469Y-206911D01*
X74476Y-206886D01*
X74477Y-206798D01*
X74488Y-206711D01*
X74479Y-206658D01*
X74480Y-206604D01*
X74457Y-206519D01*
X74442Y-206432D01*
X74419Y-206384D01*
X74405Y-206332D01*
X74359Y-206257D01*
X74321Y-206178D01*
X74285Y-206138D01*
X74257Y-206092D01*
X74191Y-206033D01*
X74133Y-205968D01*
X74087Y-205939D01*
X74047Y-205903D01*
X73968Y-205865D01*
X73893Y-205818D01*
X73842Y-205804D01*
X73794Y-205780D01*
X73716Y-205768D01*
X73622Y-205742D01*
X73550Y-205742D01*
X73489Y-205733D01*
X73139Y-205733D01*
X73076Y-205742D01*
X73012Y-205741D01*
X72937Y-205762D01*
X72860Y-205773D01*
X72802Y-205799D01*
X72740Y-205816D01*
X72674Y-205857D01*
X72603Y-205889D01*
X72555Y-205931D01*
X72500Y-205964D01*
X72448Y-206022D01*
X72389Y-206072D01*
X72354Y-206126D01*
X72311Y-206174D01*
X72277Y-206243D01*
X72235Y-206308D01*
X72216Y-206370D01*
X72188Y-206427D01*
X72177Y-206497D01*
X72152Y-206578D01*
X72151Y-206663D01*
X72140Y-206732D01*
X72140Y-218019D01*
X71247Y-218912D01*
X60775Y-218912D01*
X59882Y-218019D01*
X59882Y-215822D01*
X59873Y-215758D01*
X59874Y-215694D01*
X59853Y-215619D01*
X59842Y-215543D01*
X59816Y-215484D01*
X59798Y-215422D01*
X59758Y-215356D01*
X59726Y-215286D01*
X59684Y-215237D01*
X59650Y-215182D01*
X59593Y-215130D01*
X59542Y-215072D01*
X59489Y-215036D01*
X59441Y-214993D01*
X59371Y-214960D01*
X59306Y-214917D01*
X59245Y-214898D01*
X59187Y-214870D01*
X59118Y-214859D01*
X59037Y-214835D01*
X58952Y-214834D01*
X58883Y-214823D01*
X56310Y-214823D01*
X56247Y-214832D01*
X56183Y-214831D01*
X56108Y-214852D01*
X56031Y-214863D01*
X55973Y-214889D01*
X55911Y-214906D01*
X55845Y-214947D01*
X55774Y-214979D01*
X55726Y-215021D01*
X55671Y-215054D01*
X55619Y-215112D01*
X55560Y-215162D01*
X55525Y-215216D01*
X55482Y-215264D01*
X55448Y-215333D01*
X55406Y-215398D01*
X55387Y-215460D01*
X55359Y-215517D01*
X55348Y-215587D01*
X55323Y-215668D01*
X55322Y-215753D01*
X55311Y-215822D01*
X55311Y-219199D01*
X54418Y-220092D01*
X46354Y-220092D01*
X46259Y-220105D01*
X46163Y-220110D01*
X46120Y-220125D01*
X46075Y-220132D01*
X45987Y-220171D01*
X45897Y-220203D01*
X45862Y-220228D01*
X45818Y-220248D01*
X45721Y-220331D01*
X45648Y-220384D01*
X21299Y-244733D01*
X-6960Y-244733D01*
X-15057Y-236636D01*
X-15057Y-230560D01*
X-15065Y-230502D01*
X-15063Y-230444D01*
X-15085Y-230363D01*
X-15097Y-230281D01*
X-15121Y-230228D01*
X-15135Y-230171D01*
X-15178Y-230100D01*
X-15213Y-230024D01*
X-15251Y-229980D01*
X-15281Y-229930D01*
X-15342Y-229873D01*
X-15396Y-229809D01*
X-15445Y-229778D01*
X-15488Y-229738D01*
X-15562Y-229701D01*
X-15632Y-229655D01*
X-15688Y-229638D01*
X-15740Y-229612D01*
X-15814Y-229600D01*
X-15902Y-229573D01*
X-15979Y-229572D01*
X-16044Y-229561D01*
X-16669Y-229553D01*
X-21960Y-224131D01*
X-21868Y-216556D01*
X-16446Y-211265D01*
X-8871Y-211358D01*
X-3580Y-216779D01*
X-3672Y-224355D01*
X-9094Y-229646D01*
X-9472Y-229641D01*
X-9542Y-229650D01*
X-9612Y-229649D01*
X-9681Y-229668D01*
X-9751Y-229677D01*
X-9816Y-229706D01*
X-9884Y-229724D01*
X-9945Y-229762D01*
X-10010Y-229790D01*
X-10064Y-229836D01*
X-10124Y-229873D01*
X-10172Y-229925D01*
X-10226Y-229971D01*
X-10266Y-230030D01*
X-10313Y-230082D01*
X-10344Y-230146D01*
X-10384Y-230205D01*
X-10405Y-230272D01*
X-10436Y-230336D01*
X-10446Y-230400D01*
X-10469Y-230474D01*
X-10472Y-230566D01*
X-10483Y-230640D01*
X-10483Y-234328D01*
X-10470Y-234423D01*
X-10465Y-234519D01*
X-10450Y-234562D01*
X-10443Y-234607D01*
X-10404Y-234695D01*
X-10372Y-234785D01*
X-10347Y-234820D01*
X-10327Y-234864D01*
X-10244Y-234961D01*
X-10191Y-235034D01*
X-5358Y-239867D01*
X-5282Y-239924D01*
X-5210Y-239989D01*
X-5169Y-240009D01*
X-5133Y-240036D01*
X-5043Y-240070D01*
X-4956Y-240112D01*
X-4914Y-240118D01*
X-4869Y-240135D01*
X-4741Y-240145D01*
X-4652Y-240159D01*
X18991Y-240159D01*
X19086Y-240146D01*
X19182Y-240141D01*
X19225Y-240126D01*
X19270Y-240119D01*
X19358Y-240080D01*
X19448Y-240048D01*
X19483Y-240023D01*
X19527Y-240003D01*
X19624Y-239920D01*
X19697Y-239867D01*
X44130Y-215434D01*
X44141Y-215419D01*
X44146Y-215415D01*
X44159Y-215395D01*
X44188Y-215357D01*
X44252Y-215286D01*
X44272Y-215245D01*
X44299Y-215208D01*
X44333Y-215118D01*
X44375Y-215032D01*
X44382Y-214990D01*
X44399Y-214945D01*
X44409Y-214817D01*
X44423Y-214727D01*
X44423Y-206663D01*
X45316Y-205770D01*
X49665Y-205770D01*
X49697Y-205766D01*
X49729Y-205768D01*
X49836Y-205746D01*
X49944Y-205730D01*
X49974Y-205717D01*
X50005Y-205711D01*
X50102Y-205659D01*
X50201Y-205614D01*
X50226Y-205593D01*
X50254Y-205578D01*
X50332Y-205502D01*
X50415Y-205431D01*
X50433Y-205404D01*
X50456Y-205381D01*
X50510Y-205286D01*
X50570Y-205195D01*
X50579Y-205164D01*
X50595Y-205136D01*
X50620Y-205029D01*
X50652Y-204925D01*
X50653Y-204893D01*
X50660Y-204862D01*
X50655Y-204752D01*
X50656Y-204643D01*
X50647Y-204612D01*
X50646Y-204580D01*
X50610Y-204477D01*
X50581Y-204371D01*
X50564Y-204344D01*
X50553Y-204313D01*
X50500Y-204240D01*
X50433Y-204131D01*
X50425Y-204125D01*
X50424Y-204123D01*
X50395Y-204096D01*
X50372Y-204064D01*
X49212Y-202905D01*
X47580Y-201273D01*
X47580Y-186661D01*
X47571Y-186597D01*
X47572Y-186533D01*
X47551Y-186458D01*
X47540Y-186382D01*
X47514Y-186323D01*
X47497Y-186261D01*
X47456Y-186195D01*
X47424Y-186125D01*
X47382Y-186076D01*
X47349Y-186021D01*
X47291Y-185969D01*
X47241Y-185911D01*
X47187Y-185875D01*
X47139Y-185832D01*
X47070Y-185799D01*
X47005Y-185756D01*
X46943Y-185737D01*
X46886Y-185709D01*
X46816Y-185698D01*
X46735Y-185674D01*
X46650Y-185673D01*
X46581Y-185662D01*
X45316Y-185662D01*
X44423Y-184769D01*
X44423Y-175035D01*
X44418Y-175003D01*
X44421Y-174971D01*
X44398Y-174864D01*
X44383Y-174755D01*
X44370Y-174726D01*
X44363Y-174695D01*
X44312Y-174598D01*
X44267Y-174499D01*
X44246Y-174474D01*
X44231Y-174446D01*
X44154Y-174367D01*
X44083Y-174284D01*
X44056Y-174267D01*
X44034Y-174244D01*
X43939Y-174190D01*
X43847Y-174130D01*
X43817Y-174120D01*
X43788Y-174104D01*
X43682Y-174079D01*
X43578Y-174047D01*
X43545Y-174047D01*
X43514Y-174040D01*
X43405Y-174045D01*
X43296Y-174044D01*
X43265Y-174052D01*
X43232Y-174054D01*
X43129Y-174090D01*
X43024Y-174119D01*
X42996Y-174136D01*
X42966Y-174146D01*
X42893Y-174200D01*
X42784Y-174267D01*
X42751Y-174303D01*
X42717Y-174328D01*
X41301Y-175744D01*
X39442Y-177603D01*
X37918Y-178234D01*
X37883Y-178255D01*
X37843Y-178269D01*
X37774Y-178320D01*
X37676Y-178378D01*
X37635Y-178421D01*
X37594Y-178451D01*
X35442Y-180603D01*
X30605Y-182607D01*
X1369Y-182607D01*
X-3468Y-180603D01*
X-7306Y-176765D01*
X-7358Y-176726D01*
X-7403Y-176680D01*
X-7470Y-176642D01*
X-7532Y-176595D01*
X-7592Y-176573D01*
X-7648Y-176541D01*
X-7723Y-176523D01*
X-7796Y-176496D01*
X-7860Y-176491D01*
X-7923Y-176476D01*
X-8000Y-176480D01*
X-8077Y-176474D01*
X-8140Y-176487D01*
X-8204Y-176490D01*
X-8277Y-176516D01*
X-8353Y-176532D01*
X-8410Y-176562D01*
X-8471Y-176583D01*
X-8527Y-176624D01*
X-8602Y-176664D01*
X-8663Y-176723D01*
X-8720Y-176765D01*
X-12558Y-180603D01*
X-17395Y-182607D01*
X-43631Y-182607D01*
X-44339Y-182314D01*
X-44423Y-182292D01*
X-44504Y-182261D01*
X-44559Y-182257D01*
X-44612Y-182244D01*
X-44698Y-182246D01*
X-44785Y-182240D01*
X-44839Y-182251D01*
X-44894Y-182253D01*
X-44976Y-182279D01*
X-45061Y-182297D01*
X-45110Y-182323D01*
X-45162Y-182340D01*
X-45234Y-182389D01*
X-45310Y-182430D01*
X-45349Y-182468D01*
X-45395Y-182499D01*
X-45450Y-182566D01*
X-45512Y-182626D01*
X-45539Y-182674D01*
X-45574Y-182717D01*
X-45608Y-182796D01*
X-45651Y-182872D01*
X-45664Y-182925D01*
X-45685Y-182976D01*
X-45696Y-183062D01*
X-45716Y-183146D01*
X-45713Y-183201D01*
X-45720Y-183256D01*
X-45706Y-183341D01*
X-45702Y-183428D01*
X-45684Y-183480D01*
X-45675Y-183534D01*
X-45638Y-183612D01*
X-45609Y-183694D01*
X-45579Y-183736D01*
X-45554Y-183789D01*
X-45478Y-183874D01*
X-45428Y-183943D01*
X-43386Y-185985D01*
X-43339Y-186020D01*
X-43299Y-186062D01*
X-43227Y-186104D01*
X-43160Y-186154D01*
X-43106Y-186175D01*
X-43056Y-186204D01*
X-42975Y-186224D01*
X-42896Y-186254D01*
X-42838Y-186258D01*
X-42782Y-186272D01*
X-42698Y-186269D01*
X-42615Y-186276D01*
X-42558Y-186264D01*
X-42500Y-186261D01*
X-42421Y-186235D01*
X-42339Y-186218D01*
X-42288Y-186191D01*
X-42233Y-186172D01*
X-42171Y-186129D01*
X-42090Y-186085D01*
X-42035Y-186031D01*
X-41981Y-185994D01*
X-41534Y-185557D01*
X-33959Y-185649D01*
X-28668Y-191071D01*
X-28760Y-198646D01*
X-34182Y-203937D01*
X-41757Y-203845D01*
X-47299Y-198165D01*
X-47330Y-198142D01*
X-47355Y-198113D01*
X-47441Y-198056D01*
X-47523Y-197993D01*
X-47559Y-197979D01*
X-47591Y-197958D01*
X-47689Y-197928D01*
X-47786Y-197891D01*
X-47824Y-197887D01*
X-47860Y-197876D01*
X-47963Y-197875D01*
X-48066Y-197865D01*
X-48104Y-197873D01*
X-48142Y-197872D01*
X-48242Y-197900D01*
X-48343Y-197920D01*
X-48377Y-197937D01*
X-48414Y-197947D01*
X-48502Y-198002D01*
X-48594Y-198049D01*
X-48622Y-198075D01*
X-48654Y-198095D01*
X-48723Y-198172D01*
X-48798Y-198243D01*
X-48818Y-198276D01*
X-48843Y-198305D01*
X-48888Y-198398D01*
X-48940Y-198487D01*
X-48950Y-198524D01*
X-48966Y-198559D01*
X-48980Y-198645D01*
X-49009Y-198760D01*
X-49006Y-198816D01*
X-49014Y-198863D01*
X-49014Y-215580D01*
X-49010Y-215606D01*
X-49012Y-215632D01*
X-48990Y-215745D01*
X-48974Y-215859D01*
X-48963Y-215883D01*
X-48958Y-215909D01*
X-48905Y-216011D01*
X-48858Y-216116D01*
X-48841Y-216136D01*
X-48829Y-216159D01*
X-48749Y-216243D01*
X-48674Y-216331D01*
X-48652Y-216345D01*
X-48635Y-216364D01*
X-48535Y-216422D01*
X-48438Y-216485D01*
X-48413Y-216493D01*
X-48391Y-216506D01*
X-48279Y-216534D01*
X-48169Y-216567D01*
X-48143Y-216568D01*
X-48117Y-216574D01*
X-48002Y-216570D01*
X-47887Y-216571D01*
X-47862Y-216564D01*
X-47835Y-216563D01*
X-47726Y-216527D01*
X-47615Y-216496D01*
X-47593Y-216482D01*
X-47568Y-216474D01*
X-47493Y-216421D01*
X-47375Y-216348D01*
X-47347Y-216317D01*
X-47317Y-216295D01*
X-41844Y-210955D01*
X-34269Y-211047D01*
X-28978Y-216469D01*
X-29070Y-224044D01*
X-34492Y-229335D01*
X-42067Y-229243D01*
X-47358Y-223821D01*
X-47354Y-223443D01*
X-47363Y-223373D01*
X-47362Y-223303D01*
X-47381Y-223234D01*
X-47390Y-223164D01*
X-47418Y-223099D01*
X-47437Y-223031D01*
X-47475Y-222971D01*
X-47503Y-222905D01*
X-47548Y-222851D01*
X-47585Y-222791D01*
X-47638Y-222744D01*
X-47684Y-222689D01*
X-47742Y-222649D01*
X-47795Y-222602D01*
X-47859Y-222571D01*
X-47918Y-222531D01*
X-47985Y-222510D01*
X-48048Y-222479D01*
X-48113Y-222469D01*
X-48187Y-222446D01*
X-48279Y-222443D01*
X-48353Y-222432D01*
X-49261Y-222432D01*
X-52713Y-218980D01*
X-52734Y-218964D01*
X-52751Y-218944D01*
X-52846Y-218880D01*
X-52939Y-218810D01*
X-52963Y-218801D01*
X-52985Y-218787D01*
X-53095Y-218752D01*
X-53203Y-218711D01*
X-53229Y-218709D01*
X-53254Y-218701D01*
X-53369Y-218698D01*
X-53484Y-218689D01*
X-53509Y-218694D01*
X-53535Y-218694D01*
X-53647Y-218723D01*
X-53760Y-218747D01*
X-53783Y-218759D01*
X-53808Y-218766D01*
X-53907Y-218825D01*
X-54009Y-218879D01*
X-54028Y-218897D01*
X-54050Y-218911D01*
X-54128Y-218996D01*
X-54211Y-219076D01*
X-54224Y-219099D01*
X-54242Y-219118D01*
X-54293Y-219221D01*
X-54350Y-219321D01*
X-54356Y-219347D01*
X-54368Y-219370D01*
X-54383Y-219461D01*
X-54415Y-219596D01*
X-54413Y-219638D01*
X-54419Y-219674D01*
X-54468Y-223734D01*
X-59890Y-229025D01*
X-60268Y-229020D01*
X-60338Y-229029D01*
X-60408Y-229029D01*
X-60477Y-229048D01*
X-60548Y-229057D01*
X-60612Y-229085D01*
X-60680Y-229104D01*
X-60741Y-229141D01*
X-60806Y-229170D01*
X-60860Y-229215D01*
X-60920Y-229252D01*
X-60968Y-229305D01*
X-61023Y-229351D01*
X-61062Y-229409D01*
X-61109Y-229461D01*
X-61140Y-229525D01*
X-61180Y-229585D01*
X-61201Y-229652D01*
X-61232Y-229715D01*
X-61242Y-229779D01*
X-61266Y-229853D01*
X-61268Y-229946D01*
X-61280Y-230020D01*
X-61280Y-236946D01*
X-69806Y-245473D01*
X-76834Y-245473D01*
X-76897Y-245482D01*
X-76961Y-245481D01*
X-77036Y-245502D01*
X-77113Y-245513D01*
X-77171Y-245539D01*
X-77233Y-245556D01*
X-77299Y-245597D01*
X-77370Y-245629D01*
X-77418Y-245671D01*
X-77473Y-245704D01*
X-77525Y-245762D01*
X-77584Y-245812D01*
X-77619Y-245866D01*
X-77662Y-245914D01*
X-77696Y-245983D01*
X-77738Y-246048D01*
X-77757Y-246110D01*
X-77785Y-246167D01*
X-77796Y-246237D01*
X-77821Y-246318D01*
X-77822Y-246403D01*
X-77833Y-246472D01*
X-77833Y-248687D01*
X-78726Y-249580D01*
X-87976Y-249580D01*
X-88869Y-248687D01*
X-88869Y-237685D01*
X-87976Y-236792D01*
X-78726Y-236792D01*
X-77833Y-237685D01*
X-77833Y-239900D01*
X-77824Y-239964D01*
X-77825Y-240028D01*
X-77804Y-240103D01*
X-77793Y-240179D01*
X-77767Y-240238D01*
X-77749Y-240300D01*
X-77709Y-240366D01*
X-77677Y-240436D01*
X-77635Y-240485D01*
X-77601Y-240540D01*
X-77544Y-240592D01*
X-77493Y-240650D01*
X-77440Y-240686D01*
X-77392Y-240729D01*
X-77322Y-240762D01*
X-77257Y-240805D01*
X-77196Y-240824D01*
X-77138Y-240852D01*
X-77069Y-240863D01*
X-76988Y-240887D01*
X-76903Y-240888D01*
X-76834Y-240899D01*
X-72114Y-240899D01*
X-72019Y-240886D01*
X-71923Y-240881D01*
X-71880Y-240866D01*
X-71835Y-240859D01*
X-71747Y-240820D01*
X-71657Y-240788D01*
X-71622Y-240763D01*
X-71578Y-240743D01*
X-71481Y-240660D01*
X-71408Y-240607D01*
X-66146Y-235345D01*
X-66088Y-235268D01*
X-66024Y-235197D01*
X-66004Y-235156D01*
X-65976Y-235119D01*
X-65942Y-235029D01*
X-65901Y-234943D01*
X-65894Y-234901D01*
X-65877Y-234855D01*
X-65867Y-234728D01*
X-65853Y-234638D01*
X-65853Y-229939D01*
X-65861Y-229882D01*
X-65860Y-229824D01*
X-65881Y-229743D01*
X-65893Y-229660D01*
X-65917Y-229607D01*
X-65932Y-229551D01*
X-65975Y-229479D01*
X-66009Y-229403D01*
X-66047Y-229359D01*
X-66077Y-229309D01*
X-66138Y-229252D01*
X-66192Y-229189D01*
X-66241Y-229157D01*
X-66284Y-229117D01*
X-66358Y-229080D01*
X-66428Y-229034D01*
X-66484Y-229017D01*
X-66536Y-228991D01*
X-66610Y-228979D01*
X-66698Y-228952D01*
X-66776Y-228951D01*
X-66840Y-228940D01*
X-67466Y-228932D01*
X-72757Y-223511D01*
X-72664Y-215935D01*
X-67242Y-210644D01*
X-59667Y-210737D01*
X-55302Y-215210D01*
X-55271Y-215234D01*
X-55246Y-215263D01*
X-55160Y-215319D01*
X-55078Y-215382D01*
X-55043Y-215396D01*
X-55010Y-215417D01*
X-54912Y-215447D01*
X-54816Y-215485D01*
X-54777Y-215488D01*
X-54741Y-215500D01*
X-54638Y-215501D01*
X-54535Y-215510D01*
X-54497Y-215503D01*
X-54459Y-215503D01*
X-54359Y-215476D01*
X-54258Y-215456D01*
X-54224Y-215438D01*
X-54187Y-215428D01*
X-54099Y-215374D01*
X-54007Y-215327D01*
X-53980Y-215300D01*
X-53947Y-215280D01*
X-53878Y-215203D01*
X-53803Y-215132D01*
X-53784Y-215099D01*
X-53758Y-215071D01*
X-53713Y-214978D01*
X-53661Y-214889D01*
X-53652Y-214851D01*
X-53635Y-214817D01*
X-53621Y-214730D01*
X-53593Y-214615D01*
X-53595Y-214560D01*
X-53587Y-214512D01*
X-53587Y-200150D01*
X-53591Y-200124D01*
X-53589Y-200098D01*
X-53611Y-199985D01*
X-53627Y-199871D01*
X-53638Y-199847D01*
X-53643Y-199821D01*
X-53696Y-199719D01*
X-53743Y-199614D01*
X-53760Y-199594D01*
X-53772Y-199571D01*
X-53852Y-199487D01*
X-53927Y-199400D01*
X-53949Y-199385D01*
X-53967Y-199366D01*
X-54066Y-199309D01*
X-54163Y-199245D01*
X-54188Y-199238D01*
X-54210Y-199224D01*
X-54322Y-199196D01*
X-54432Y-199163D01*
X-54458Y-199162D01*
X-54484Y-199156D01*
X-54599Y-199161D01*
X-54714Y-199159D01*
X-54740Y-199166D01*
X-54766Y-199167D01*
X-54875Y-199203D01*
X-54986Y-199234D01*
X-55009Y-199248D01*
X-55033Y-199256D01*
X-55108Y-199309D01*
X-55226Y-199382D01*
X-55254Y-199413D01*
X-55284Y-199435D01*
X-59580Y-203627D01*
X-67155Y-203534D01*
X-72446Y-198112D01*
X-72354Y-190537D01*
X-72083Y-190274D01*
X-72040Y-190218D01*
X-71990Y-190169D01*
X-71955Y-190107D01*
X-71911Y-190050D01*
X-71886Y-189985D01*
X-71851Y-189923D01*
X-71835Y-189854D01*
X-71809Y-189787D01*
X-71802Y-189717D01*
X-71786Y-189649D01*
X-71790Y-189578D01*
X-71783Y-189507D01*
X-71797Y-189438D01*
X-71800Y-189367D01*
X-71824Y-189300D01*
X-71838Y-189230D01*
X-71870Y-189167D01*
X-71893Y-189101D01*
X-71931Y-189048D01*
X-71967Y-188979D01*
X-72031Y-188912D01*
X-72075Y-188852D01*
X-175300Y-85627D01*
X-175300Y2646D01*
X-175301Y2655D01*
X-175300Y2664D01*
X-175321Y2794D01*
X-175340Y2925D01*
X-175343Y2933D01*
X-175345Y2943D01*
X-175402Y3062D01*
X-175456Y3182D01*
X-175462Y3189D01*
X-175466Y3197D01*
X-175554Y3296D01*
X-175639Y3396D01*
X-175647Y3401D01*
X-175653Y3408D01*
X-175719Y3448D01*
X-175875Y3550D01*
X-175898Y3557D01*
X-175917Y3569D01*
X-177298Y4141D01*
X-179426Y6269D01*
X-180578Y9049D01*
X-180578Y12059D01*
X-179426Y14839D01*
X-177298Y16967D01*
X-174518Y18119D01*
X-171508Y18119D01*
X-168728Y16967D01*
X-168006Y16245D01*
X-167980Y16225D01*
X-167959Y16201D01*
X-167867Y16141D01*
X-167780Y16075D01*
X-167750Y16064D01*
X-167723Y16046D01*
X-167618Y16014D01*
X-167516Y15976D01*
X-167484Y15973D01*
X-167453Y15964D01*
X-167344Y15963D01*
X-167235Y15954D01*
X-167203Y15961D01*
X-167171Y15960D01*
X-167066Y15989D01*
X-166959Y16012D01*
X-166930Y16027D01*
X-166899Y16035D01*
X-166806Y16093D01*
X-166710Y16144D01*
X-166687Y16167D01*
X-166659Y16184D01*
X-166586Y16265D01*
X-166508Y16341D01*
X-166492Y16369D01*
X-166470Y16393D01*
X-166423Y16491D01*
X-166369Y16586D01*
X-166361Y16618D01*
X-166347Y16647D01*
X-166333Y16736D01*
X-166304Y16861D01*
X-166306Y16909D01*
X-166300Y16951D01*
X-166300Y64881D01*
X-166304Y64913D01*
X-166302Y64945D01*
X-166324Y65052D01*
X-166340Y65160D01*
X-166353Y65190D01*
X-166359Y65221D01*
X-166411Y65318D01*
X-166456Y65417D01*
X-166477Y65442D01*
X-166492Y65470D01*
X-166568Y65548D01*
X-166639Y65631D01*
X-166666Y65649D01*
X-166689Y65672D01*
X-166784Y65726D01*
X-166875Y65786D01*
X-166906Y65795D01*
X-166934Y65811D01*
X-167041Y65836D01*
X-167145Y65868D01*
X-167177Y65869D01*
X-167208Y65876D01*
X-167318Y65871D01*
X-167427Y65872D01*
X-167458Y65863D01*
X-167490Y65862D01*
X-167593Y65826D01*
X-167699Y65797D01*
X-167726Y65780D01*
X-167757Y65769D01*
X-167830Y65716D01*
X-167939Y65649D01*
X-167971Y65613D01*
X-168006Y65588D01*
X-194234Y39359D01*
X-195866Y37727D01*
X-211242Y37727D01*
X-211251Y37726D01*
X-211261Y37727D01*
X-211391Y37706D01*
X-211521Y37687D01*
X-211530Y37684D01*
X-211539Y37682D01*
X-211659Y37625D01*
X-211778Y37571D01*
X-211785Y37565D01*
X-211794Y37561D01*
X-211892Y37473D01*
X-211992Y37388D01*
X-211997Y37380D01*
X-212005Y37374D01*
X-212044Y37308D01*
X-212147Y37152D01*
X-212154Y37129D01*
X-212165Y37110D01*
X-213314Y34335D01*
X-216134Y31515D01*
X-219819Y29989D01*
X-223807Y29989D01*
X-227492Y31515D01*
X-230312Y34335D01*
X-231838Y38020D01*
X-231838Y42083D01*
X-231842Y42115D01*
X-231840Y42147D01*
X-231846Y42177D01*
X-231846Y42180D01*
X-231849Y42191D01*
X-231862Y42254D01*
X-231878Y42362D01*
X-231891Y42392D01*
X-231897Y42423D01*
X-231949Y42520D01*
X-231994Y42619D01*
X-232015Y42644D01*
X-232030Y42672D01*
X-232106Y42750D01*
X-232177Y42833D01*
X-232204Y42851D01*
X-232227Y42874D01*
X-232322Y42928D01*
X-232413Y42988D01*
X-232444Y42997D01*
X-232472Y43013D01*
X-232578Y43038D01*
X-232683Y43070D01*
X-232715Y43071D01*
X-232746Y43078D01*
X-232856Y43073D01*
X-232965Y43074D01*
X-232996Y43065D01*
X-233028Y43064D01*
X-233131Y43028D01*
X-233237Y42999D01*
X-233264Y42982D01*
X-233295Y42971D01*
X-233368Y42918D01*
X-233477Y42851D01*
X-233509Y42815D01*
X-233544Y42790D01*
X-234434Y41899D01*
X-234491Y41823D01*
X-234556Y41751D01*
X-234576Y41710D01*
X-234603Y41674D01*
X-234637Y41584D01*
X-234679Y41497D01*
X-234685Y41455D01*
X-234702Y41410D01*
X-234712Y41282D01*
X-234726Y41193D01*
X-234726Y23915D01*
X-234713Y23820D01*
X-234708Y23724D01*
X-234693Y23681D01*
X-234686Y23636D01*
X-234647Y23548D01*
X-234615Y23458D01*
X-234590Y23423D01*
X-234570Y23379D01*
X-234487Y23282D01*
X-234434Y23209D01*
X-231666Y20440D01*
X-231614Y20402D01*
X-231569Y20356D01*
X-231502Y20318D01*
X-231440Y20271D01*
X-231380Y20248D01*
X-231324Y20217D01*
X-231249Y20199D01*
X-231176Y20172D01*
X-231112Y20167D01*
X-231050Y20152D01*
X-230972Y20156D01*
X-230895Y20150D01*
X-230832Y20163D01*
X-230768Y20166D01*
X-230694Y20192D01*
X-230619Y20207D01*
X-230562Y20238D01*
X-230501Y20259D01*
X-230445Y20300D01*
X-230370Y20340D01*
X-230309Y20399D01*
X-230252Y20440D01*
X-227580Y23113D01*
X-223896Y24639D01*
X-219908Y24639D01*
X-216223Y23113D01*
X-213403Y20293D01*
X-211877Y16608D01*
X-211877Y12620D01*
X-213403Y8936D01*
X-216223Y6116D01*
X-219908Y4589D01*
X-223896Y4589D01*
X-227580Y6116D01*
X-230400Y8936D01*
X-231926Y12620D01*
X-231926Y13820D01*
X-231940Y13915D01*
X-231945Y14011D01*
X-231960Y14054D01*
X-231966Y14099D01*
X-232006Y14186D01*
X-232037Y14277D01*
X-232062Y14312D01*
X-232082Y14356D01*
X-232166Y14453D01*
X-232219Y14526D01*
X-239300Y21607D01*
X-239300Y43501D01*
X-222898Y59903D01*
X-222841Y59979D01*
X-222776Y60051D01*
X-222756Y60092D01*
X-222729Y60128D01*
X-222695Y60218D01*
X-222653Y60305D01*
X-222647Y60347D01*
X-222630Y60392D01*
X-222620Y60520D01*
X-222606Y60609D01*
X-222606Y64397D01*
X-222615Y64464D01*
X-222615Y64531D01*
X-222635Y64603D01*
X-222645Y64676D01*
X-222673Y64737D01*
X-222692Y64803D01*
X-222731Y64866D01*
X-222762Y64933D01*
X-222806Y64984D01*
X-222842Y65042D01*
X-222897Y65091D01*
X-222945Y65147D01*
X-223002Y65184D01*
X-223052Y65229D01*
X-223119Y65261D01*
X-223181Y65302D01*
X-223246Y65321D01*
X-223307Y65350D01*
X-223374Y65360D01*
X-223451Y65384D01*
X-223540Y65385D01*
X-223612Y65396D01*
X-225759Y65381D01*
X-226658Y66268D01*
X-226731Y76740D01*
X-225844Y77639D01*
X-214879Y77716D01*
X-213980Y76829D01*
X-213907Y66357D01*
X-214794Y65457D01*
X-217040Y65442D01*
X-217100Y65433D01*
X-217161Y65434D01*
X-217239Y65412D01*
X-217319Y65400D01*
X-217374Y65375D01*
X-217433Y65358D01*
X-217502Y65316D01*
X-217575Y65282D01*
X-217621Y65242D01*
X-217673Y65210D01*
X-217727Y65150D01*
X-217788Y65097D01*
X-217821Y65046D01*
X-217862Y65001D01*
X-217897Y64928D01*
X-217941Y64860D01*
X-217958Y64802D01*
X-217985Y64747D01*
X-217996Y64675D01*
X-218021Y64590D01*
X-218022Y64509D01*
X-218032Y64443D01*
X-218032Y58301D01*
X-224589Y51745D01*
X-224606Y51722D01*
X-224625Y51705D01*
X-224627Y51703D01*
X-224632Y51698D01*
X-224692Y51606D01*
X-224758Y51519D01*
X-224769Y51489D01*
X-224787Y51462D01*
X-224819Y51357D01*
X-224857Y51255D01*
X-224860Y51223D01*
X-224869Y51192D01*
X-224871Y51083D01*
X-224879Y50974D01*
X-224873Y50942D01*
X-224873Y50910D01*
X-224844Y50805D01*
X-224822Y50698D01*
X-224806Y50669D01*
X-224798Y50638D01*
X-224740Y50545D01*
X-224689Y50449D01*
X-224667Y50426D01*
X-224650Y50398D01*
X-224569Y50325D01*
X-224492Y50247D01*
X-224464Y50231D01*
X-224440Y50209D01*
X-224342Y50162D01*
X-224247Y50108D01*
X-224216Y50100D01*
X-224187Y50086D01*
X-224097Y50072D01*
X-223972Y50043D01*
X-223924Y50045D01*
X-223882Y50039D01*
X-219819Y50039D01*
X-216134Y48513D01*
X-213314Y45693D01*
X-212165Y42918D01*
X-212160Y42909D01*
X-212158Y42900D01*
X-212088Y42788D01*
X-212021Y42675D01*
X-212014Y42668D01*
X-212010Y42660D01*
X-211911Y42572D01*
X-211816Y42482D01*
X-211807Y42478D01*
X-211800Y42471D01*
X-211681Y42414D01*
X-211564Y42354D01*
X-211555Y42352D01*
X-211546Y42348D01*
X-211470Y42336D01*
X-211287Y42302D01*
X-211263Y42304D01*
X-211242Y42301D01*
X-198174Y42301D01*
X-198079Y42314D01*
X-197983Y42319D01*
X-197940Y42334D01*
X-197895Y42341D01*
X-197807Y42380D01*
X-197717Y42412D01*
X-197682Y42437D01*
X-197638Y42457D01*
X-197541Y42540D01*
X-197468Y42593D01*
X-160882Y79179D01*
X-159584Y80477D01*
X-159545Y80529D01*
X-159499Y80574D01*
X-159461Y80641D01*
X-159414Y80703D01*
X-159392Y80763D01*
X-159360Y80819D01*
X-159342Y80894D01*
X-159315Y80967D01*
X-159310Y81031D01*
X-159295Y81094D01*
X-159299Y81171D01*
X-159293Y81248D01*
X-159306Y81311D01*
X-159309Y81375D01*
X-159335Y81448D01*
X-159351Y81524D01*
X-159381Y81581D01*
X-159402Y81642D01*
X-159443Y81698D01*
X-159483Y81773D01*
X-159542Y81834D01*
X-159584Y81891D01*
X-160562Y82869D01*
X-160563Y82870D01*
X-187546Y109853D01*
X-187553Y109858D01*
X-187559Y109866D01*
X-187666Y109943D01*
X-187771Y110022D01*
X-187780Y110025D01*
X-187788Y110031D01*
X-187911Y110075D01*
X-188035Y110121D01*
X-188045Y110122D01*
X-188053Y110125D01*
X-188185Y110133D01*
X-188316Y110143D01*
X-188325Y110141D01*
X-188335Y110142D01*
X-188410Y110124D01*
X-188592Y110086D01*
X-188613Y110074D01*
X-188635Y110069D01*
X-188737Y110027D01*
X-190848Y110027D01*
X-192799Y110835D01*
X-194291Y112327D01*
X-194334Y112430D01*
X-194339Y112438D01*
X-194341Y112447D01*
X-194411Y112560D01*
X-194477Y112673D01*
X-194484Y112679D01*
X-194489Y112687D01*
X-194587Y112775D01*
X-194683Y112866D01*
X-194692Y112870D01*
X-194699Y112876D01*
X-194817Y112934D01*
X-194935Y112993D01*
X-194944Y112995D01*
X-194952Y112999D01*
X-195028Y113011D01*
X-195212Y113046D01*
X-195236Y113043D01*
X-195257Y113047D01*
X-213356Y113047D01*
X-213432Y113036D01*
X-213508Y113035D01*
X-213571Y113016D01*
X-213635Y113007D01*
X-213705Y112976D01*
X-213778Y112953D01*
X-213833Y112918D01*
X-213892Y112891D01*
X-213950Y112841D01*
X-214014Y112799D01*
X-214057Y112750D01*
X-214107Y112707D01*
X-214149Y112643D01*
X-214198Y112586D01*
X-214225Y112526D01*
X-214261Y112471D01*
X-214283Y112398D01*
X-214315Y112329D01*
X-214323Y112269D01*
X-214343Y112202D01*
X-214345Y112102D01*
X-214355Y112023D01*
X-214327Y110866D01*
X-215198Y109951D01*
X-226197Y109683D01*
X-227112Y110554D01*
X-227337Y119801D01*
X-226466Y120716D01*
X-215468Y120985D01*
X-214553Y120113D01*
X-214516Y118595D01*
X-214507Y118544D01*
X-214508Y118492D01*
X-214484Y118405D01*
X-214469Y118317D01*
X-214447Y118270D01*
X-214433Y118220D01*
X-214386Y118144D01*
X-214347Y118063D01*
X-214312Y118024D01*
X-214284Y117980D01*
X-214218Y117920D01*
X-214158Y117853D01*
X-214114Y117826D01*
X-214075Y117791D01*
X-213995Y117752D01*
X-213918Y117705D01*
X-213868Y117691D01*
X-213821Y117668D01*
X-213743Y117656D01*
X-213647Y117629D01*
X-213576Y117630D01*
X-213517Y117620D01*
X-195257Y117620D01*
X-195248Y117622D01*
X-195238Y117620D01*
X-195109Y117641D01*
X-194978Y117660D01*
X-194969Y117664D01*
X-194960Y117666D01*
X-194841Y117722D01*
X-194721Y117776D01*
X-194714Y117782D01*
X-194705Y117787D01*
X-194606Y117874D01*
X-194507Y117960D01*
X-194501Y117968D01*
X-194494Y117974D01*
X-194454Y118040D01*
X-194352Y118196D01*
X-194345Y118219D01*
X-194334Y118237D01*
X-194291Y118340D01*
X-192799Y119832D01*
X-190848Y120640D01*
X-188737Y120640D01*
X-186786Y119832D01*
X-185294Y118340D01*
X-184486Y116389D01*
X-184486Y114278D01*
X-184528Y114176D01*
X-184531Y114166D01*
X-184535Y114158D01*
X-184566Y114029D01*
X-184598Y113902D01*
X-184598Y113893D01*
X-184600Y113884D01*
X-184593Y113751D01*
X-184589Y113620D01*
X-184586Y113612D01*
X-184586Y113602D01*
X-184543Y113477D01*
X-184502Y113352D01*
X-184496Y113344D01*
X-184493Y113336D01*
X-184448Y113273D01*
X-184343Y113119D01*
X-184324Y113104D01*
X-184312Y113087D01*
X-157328Y86103D01*
X-157252Y86046D01*
X-157180Y85981D01*
X-157139Y85961D01*
X-157103Y85934D01*
X-157013Y85900D01*
X-156926Y85858D01*
X-156884Y85852D01*
X-156839Y85835D01*
X-156711Y85825D01*
X-156622Y85811D01*
X-82354Y85811D01*
X-82259Y85824D01*
X-82163Y85829D01*
X-82120Y85844D01*
X-82075Y85851D01*
X-81987Y85890D01*
X-81897Y85922D01*
X-81862Y85947D01*
X-81818Y85967D01*
X-81721Y86050D01*
X-81648Y86103D01*
X-78572Y89179D01*
X-78515Y89255D01*
X-78450Y89327D01*
X-78430Y89368D01*
X-78403Y89404D01*
X-78369Y89494D01*
X-78327Y89581D01*
X-78321Y89623D01*
X-78304Y89668D01*
X-78294Y89796D01*
X-78280Y89885D01*
X-78280Y132617D01*
X-78281Y132627D01*
X-78280Y132636D01*
X-78301Y132766D01*
X-78320Y132896D01*
X-78323Y132905D01*
X-78325Y132914D01*
X-78382Y133034D01*
X-78436Y133153D01*
X-78442Y133160D01*
X-78446Y133169D01*
X-78534Y133268D01*
X-78619Y133368D01*
X-78627Y133373D01*
X-78633Y133380D01*
X-78699Y133420D01*
X-78855Y133522D01*
X-78878Y133529D01*
X-78897Y133540D01*
X-80067Y134025D01*
X-81560Y135518D01*
X-82368Y137468D01*
X-82368Y139580D01*
X-81560Y141530D01*
X-80067Y143023D01*
X-78117Y143831D01*
X-76005Y143831D01*
X-74661Y143274D01*
X-74547Y143245D01*
X-74433Y143210D01*
X-74410Y143210D01*
X-74388Y143204D01*
X-74270Y143208D01*
X-74151Y143206D01*
X-74129Y143212D01*
X-74106Y143213D01*
X-73994Y143250D01*
X-73879Y143281D01*
X-73860Y143293D01*
X-73838Y143300D01*
X-73740Y143367D01*
X-73639Y143429D01*
X-73624Y143446D01*
X-73605Y143459D01*
X-73530Y143551D01*
X-73450Y143639D01*
X-73440Y143659D01*
X-73426Y143677D01*
X-73379Y143786D01*
X-73327Y143893D01*
X-73324Y143914D01*
X-73314Y143936D01*
X-73292Y144121D01*
X-73280Y144197D01*
X-73280Y150641D01*
X-73284Y150673D01*
X-73282Y150705D01*
X-73304Y150812D01*
X-73320Y150920D01*
X-73333Y150950D01*
X-73339Y150981D01*
X-73391Y151078D01*
X-73436Y151177D01*
X-73457Y151202D01*
X-73472Y151230D01*
X-73548Y151308D01*
X-73619Y151391D01*
X-73646Y151409D01*
X-73669Y151432D01*
X-73764Y151486D01*
X-73855Y151546D01*
X-73886Y151555D01*
X-73914Y151571D01*
X-74021Y151596D01*
X-74125Y151628D01*
X-74157Y151629D01*
X-74188Y151636D01*
X-74298Y151631D01*
X-74407Y151632D01*
X-74438Y151623D01*
X-74470Y151622D01*
X-74573Y151586D01*
X-74679Y151557D01*
X-74706Y151540D01*
X-74737Y151529D01*
X-74810Y151476D01*
X-74919Y151409D01*
X-74951Y151373D01*
X-74986Y151348D01*
X-79434Y146899D01*
X-81066Y145267D01*
X-121163Y145267D01*
X-121226Y145258D01*
X-121290Y145259D01*
X-121365Y145238D01*
X-121442Y145227D01*
X-121500Y145201D01*
X-121562Y145184D01*
X-121628Y145143D01*
X-121699Y145111D01*
X-121747Y145069D01*
X-121802Y145036D01*
X-121854Y144978D01*
X-121913Y144928D01*
X-121948Y144874D01*
X-121991Y144826D01*
X-122025Y144757D01*
X-122067Y144692D01*
X-122086Y144630D01*
X-122114Y144573D01*
X-122125Y144503D01*
X-122150Y144422D01*
X-122151Y144337D01*
X-122162Y144268D01*
X-122162Y142302D01*
X-123055Y141409D01*
X-134020Y141409D01*
X-134913Y142302D01*
X-134913Y152774D01*
X-134020Y153667D01*
X-123055Y153667D01*
X-122162Y152774D01*
X-122162Y150840D01*
X-122153Y150776D01*
X-122154Y150712D01*
X-122133Y150637D01*
X-122122Y150561D01*
X-122096Y150502D01*
X-122078Y150440D01*
X-122038Y150374D01*
X-122006Y150304D01*
X-121964Y150255D01*
X-121930Y150200D01*
X-121873Y150148D01*
X-121822Y150090D01*
X-121769Y150054D01*
X-121721Y150011D01*
X-121651Y149978D01*
X-121586Y149935D01*
X-121525Y149916D01*
X-121467Y149888D01*
X-121398Y149877D01*
X-121317Y149853D01*
X-121232Y149852D01*
X-121163Y149841D01*
X-113072Y149841D01*
X-113019Y149848D01*
X-112966Y149846D01*
X-112880Y149868D01*
X-112793Y149881D01*
X-112744Y149903D01*
X-112692Y149916D01*
X-112617Y149960D01*
X-112536Y149997D01*
X-112496Y150032D01*
X-112449Y150059D01*
X-112389Y150123D01*
X-112322Y150180D01*
X-112293Y150225D01*
X-112256Y150264D01*
X-112216Y150342D01*
X-112168Y150416D01*
X-112152Y150467D01*
X-112128Y150515D01*
X-112111Y150602D01*
X-112085Y150686D01*
X-112084Y150739D01*
X-112074Y150792D01*
X-112083Y150870D01*
X-112081Y150968D01*
X-112101Y151038D01*
X-112107Y151099D01*
X-112137Y151208D01*
X-112137Y153024D01*
X-100230Y153024D01*
X-100166Y153033D01*
X-100102Y153032D01*
X-100027Y153053D01*
X-99950Y153064D01*
X-99892Y153090D01*
X-99830Y153108D01*
X-99764Y153148D01*
X-99748Y153155D01*
X-99692Y153119D01*
X-99631Y153100D01*
X-99573Y153072D01*
X-99503Y153061D01*
X-99422Y153036D01*
X-99338Y153035D01*
X-99268Y153024D01*
X-87361Y153024D01*
X-87361Y151208D01*
X-87391Y151099D01*
X-87397Y151045D01*
X-87413Y150994D01*
X-87414Y150906D01*
X-87425Y150819D01*
X-87416Y150766D01*
X-87417Y150712D01*
X-87393Y150627D01*
X-87379Y150540D01*
X-87356Y150492D01*
X-87341Y150440D01*
X-87295Y150365D01*
X-87257Y150286D01*
X-87221Y150246D01*
X-87193Y150200D01*
X-87128Y150141D01*
X-87069Y150076D01*
X-87024Y150047D01*
X-86984Y150011D01*
X-86905Y149973D01*
X-86830Y149926D01*
X-86778Y149912D01*
X-86730Y149888D01*
X-86653Y149876D01*
X-86559Y149850D01*
X-86486Y149850D01*
X-86426Y149841D01*
X-83374Y149841D01*
X-83279Y149854D01*
X-83183Y149859D01*
X-83140Y149874D01*
X-83095Y149881D01*
X-83007Y149920D01*
X-82916Y149952D01*
X-82882Y149977D01*
X-82838Y149997D01*
X-82741Y150080D01*
X-82667Y150133D01*
X-79227Y153574D01*
X-79170Y153650D01*
X-79105Y153722D01*
X-79085Y153763D01*
X-79058Y153799D01*
X-79024Y153889D01*
X-78982Y153976D01*
X-78976Y154018D01*
X-78959Y154063D01*
X-78949Y154191D01*
X-78935Y154280D01*
X-78935Y176193D01*
X-78948Y176288D01*
X-78953Y176384D01*
X-78968Y176427D01*
X-78975Y176472D01*
X-79014Y176560D01*
X-79046Y176651D01*
X-79071Y176685D01*
X-79091Y176729D01*
X-79174Y176826D01*
X-79227Y176899D01*
X-79653Y177325D01*
X-79729Y177382D01*
X-79801Y177447D01*
X-79842Y177467D01*
X-79878Y177494D01*
X-79968Y177528D01*
X-80054Y177570D01*
X-80097Y177576D01*
X-80142Y177593D01*
X-80270Y177603D01*
X-80359Y177617D01*
X-85430Y177617D01*
X-85462Y177613D01*
X-85494Y177615D01*
X-85601Y177593D01*
X-85709Y177577D01*
X-85739Y177564D01*
X-85770Y177558D01*
X-85867Y177506D01*
X-85966Y177461D01*
X-85991Y177440D01*
X-86019Y177425D01*
X-86097Y177349D01*
X-86180Y177278D01*
X-86198Y177251D01*
X-86221Y177228D01*
X-86275Y177133D01*
X-86335Y177042D01*
X-86344Y177011D01*
X-86360Y176983D01*
X-86385Y176877D01*
X-86417Y176772D01*
X-86418Y176740D01*
X-86425Y176709D01*
X-86420Y176599D01*
X-86421Y176490D01*
X-86412Y176459D01*
X-86411Y176427D01*
X-86375Y176324D01*
X-86346Y176218D01*
X-86329Y176191D01*
X-86318Y176160D01*
X-86265Y176087D01*
X-86198Y175978D01*
X-86162Y175946D01*
X-86137Y175911D01*
X-84434Y174209D01*
X-84433Y174208D01*
X-81726Y171501D01*
X-81726Y161607D01*
X-85066Y158267D01*
X-86362Y158267D01*
X-86426Y158258D01*
X-86490Y158259D01*
X-86565Y158238D01*
X-86641Y158227D01*
X-86700Y158201D01*
X-86762Y158184D01*
X-86828Y158143D01*
X-86898Y158111D01*
X-86947Y158069D01*
X-87002Y158036D01*
X-87054Y157978D01*
X-87112Y157928D01*
X-87148Y157874D01*
X-87191Y157826D01*
X-87224Y157757D01*
X-87267Y157692D01*
X-87286Y157630D01*
X-87314Y157573D01*
X-87325Y157503D01*
X-87349Y157422D01*
X-87350Y157337D01*
X-87361Y157268D01*
X-87361Y155984D01*
X-99268Y155984D01*
X-99332Y155975D01*
X-99396Y155976D01*
X-99471Y155955D01*
X-99548Y155944D01*
X-99606Y155918D01*
X-99668Y155900D01*
X-99734Y155860D01*
X-99750Y155853D01*
X-99806Y155889D01*
X-99867Y155908D01*
X-99925Y155936D01*
X-99995Y155947D01*
X-100076Y155972D01*
X-100160Y155973D01*
X-100230Y155984D01*
X-112137Y155984D01*
X-112137Y157268D01*
X-112146Y157332D01*
X-112145Y157396D01*
X-112166Y157471D01*
X-112177Y157547D01*
X-112203Y157606D01*
X-112220Y157668D01*
X-112261Y157734D01*
X-112293Y157804D01*
X-112335Y157853D01*
X-112368Y157908D01*
X-112426Y157960D01*
X-112476Y158018D01*
X-112530Y158054D01*
X-112578Y158097D01*
X-112647Y158130D01*
X-112712Y158173D01*
X-112774Y158192D01*
X-112831Y158220D01*
X-112901Y158231D01*
X-112982Y158255D01*
X-113067Y158256D01*
X-113136Y158267D01*
X-113960Y158267D01*
X-116144Y160451D01*
X-116220Y160508D01*
X-116292Y160573D01*
X-116333Y160593D01*
X-116369Y160620D01*
X-116459Y160654D01*
X-116546Y160696D01*
X-116588Y160702D01*
X-116633Y160719D01*
X-116761Y160729D01*
X-116850Y160743D01*
X-121163Y160743D01*
X-121226Y160734D01*
X-121290Y160735D01*
X-121365Y160714D01*
X-121442Y160703D01*
X-121500Y160677D01*
X-121562Y160660D01*
X-121628Y160619D01*
X-121699Y160587D01*
X-121747Y160545D01*
X-121802Y160512D01*
X-121854Y160454D01*
X-121913Y160404D01*
X-121948Y160350D01*
X-121991Y160302D01*
X-122025Y160233D01*
X-122067Y160168D01*
X-122086Y160106D01*
X-122114Y160049D01*
X-122125Y159979D01*
X-122150Y159898D01*
X-122151Y159813D01*
X-122162Y159744D01*
X-122162Y157794D01*
X-123055Y156901D01*
X-134020Y156901D01*
X-134913Y157794D01*
X-134913Y168266D01*
X-134020Y169159D01*
X-123657Y169159D01*
X-123625Y169164D01*
X-123592Y169161D01*
X-123486Y169184D01*
X-123377Y169199D01*
X-123348Y169212D01*
X-123316Y169219D01*
X-123220Y169270D01*
X-123120Y169315D01*
X-123096Y169336D01*
X-123067Y169351D01*
X-122989Y169428D01*
X-122906Y169499D01*
X-122888Y169526D01*
X-122865Y169548D01*
X-122812Y169643D01*
X-122752Y169735D01*
X-122742Y169765D01*
X-122726Y169794D01*
X-122701Y169900D01*
X-122669Y170004D01*
X-122669Y170037D01*
X-122661Y170068D01*
X-122667Y170177D01*
X-122666Y170286D01*
X-122674Y170317D01*
X-122676Y170350D01*
X-122712Y170453D01*
X-122741Y170558D01*
X-122758Y170586D01*
X-122768Y170616D01*
X-122822Y170689D01*
X-122889Y170798D01*
X-122925Y170831D01*
X-122950Y170865D01*
X-126506Y174421D01*
X-126583Y174479D01*
X-126654Y174543D01*
X-126695Y174563D01*
X-126732Y174590D01*
X-126822Y174624D01*
X-126908Y174666D01*
X-126950Y174673D01*
X-126995Y174690D01*
X-127123Y174700D01*
X-127213Y174714D01*
X-134584Y174714D01*
X-135477Y175607D01*
X-135477Y177066D01*
X-135486Y177130D01*
X-135485Y177194D01*
X-135506Y177269D01*
X-135517Y177345D01*
X-135543Y177404D01*
X-135561Y177466D01*
X-135601Y177532D01*
X-135633Y177602D01*
X-135675Y177651D01*
X-135709Y177706D01*
X-135766Y177758D01*
X-135817Y177816D01*
X-135870Y177852D01*
X-135918Y177895D01*
X-135988Y177928D01*
X-136053Y177971D01*
X-136114Y177990D01*
X-136172Y178018D01*
X-136241Y178029D01*
X-136322Y178053D01*
X-136407Y178054D01*
X-136476Y178065D01*
X-140754Y178065D01*
X-140849Y178052D01*
X-140945Y178047D01*
X-140988Y178032D01*
X-141033Y178025D01*
X-141121Y177986D01*
X-141211Y177954D01*
X-141246Y177929D01*
X-141290Y177909D01*
X-141387Y177826D01*
X-141460Y177773D01*
X-142074Y177159D01*
X-142131Y177083D01*
X-142196Y177011D01*
X-142216Y176970D01*
X-142243Y176934D01*
X-142277Y176844D01*
X-142319Y176757D01*
X-142325Y176715D01*
X-142342Y176670D01*
X-142352Y176542D01*
X-142366Y176453D01*
X-142366Y149548D01*
X-142365Y149539D01*
X-142366Y149530D01*
X-142345Y149400D01*
X-142326Y149269D01*
X-142323Y149261D01*
X-142321Y149251D01*
X-142265Y149132D01*
X-142210Y149012D01*
X-142204Y149005D01*
X-142200Y148997D01*
X-142112Y148898D01*
X-142027Y148798D01*
X-142019Y148793D01*
X-142013Y148786D01*
X-141947Y148746D01*
X-141791Y148644D01*
X-141768Y148637D01*
X-141749Y148625D01*
X-141647Y148583D01*
X-140154Y147090D01*
X-139346Y145140D01*
X-139346Y143028D01*
X-140154Y141078D01*
X-141647Y139585D01*
X-143597Y138777D01*
X-145709Y138777D01*
X-147659Y139585D01*
X-149152Y141078D01*
X-149960Y143028D01*
X-149960Y145140D01*
X-149152Y147090D01*
X-147659Y148583D01*
X-147557Y148625D01*
X-147548Y148630D01*
X-147539Y148633D01*
X-147427Y148702D01*
X-147314Y148769D01*
X-147307Y148776D01*
X-147299Y148781D01*
X-147211Y148878D01*
X-147121Y148975D01*
X-147117Y148983D01*
X-147110Y148990D01*
X-147053Y149108D01*
X-146993Y149226D01*
X-146991Y149235D01*
X-146987Y149244D01*
X-146975Y149320D01*
X-146941Y149503D01*
X-146943Y149527D01*
X-146940Y149548D01*
X-146940Y176453D01*
X-146953Y176548D01*
X-146958Y176644D01*
X-146973Y176687D01*
X-146980Y176732D01*
X-147019Y176820D01*
X-147051Y176910D01*
X-147076Y176945D01*
X-147096Y176989D01*
X-147179Y177086D01*
X-147232Y177159D01*
X-147846Y177773D01*
X-147922Y177830D01*
X-147994Y177895D01*
X-148035Y177915D01*
X-148071Y177942D01*
X-148161Y177976D01*
X-148248Y178018D01*
X-148290Y178024D01*
X-148335Y178041D01*
X-148463Y178051D01*
X-148552Y178065D01*
X-153441Y178065D01*
X-153504Y178056D01*
X-153568Y178057D01*
X-153643Y178036D01*
X-153720Y178025D01*
X-153778Y177999D01*
X-153840Y177982D01*
X-153906Y177941D01*
X-153977Y177909D01*
X-154025Y177867D01*
X-154080Y177834D01*
X-154132Y177776D01*
X-154191Y177726D01*
X-154226Y177672D01*
X-154269Y177624D01*
X-154303Y177555D01*
X-154345Y177490D01*
X-154364Y177428D01*
X-154392Y177371D01*
X-154403Y177301D01*
X-154428Y177220D01*
X-154429Y177135D01*
X-154440Y177066D01*
X-154440Y175467D01*
X-155333Y174574D01*
X-166335Y174574D01*
X-167228Y175467D01*
X-167228Y184717D01*
X-166335Y185610D01*
X-155333Y185610D01*
X-154440Y184717D01*
X-154440Y183638D01*
X-154431Y183574D01*
X-154432Y183510D01*
X-154411Y183435D01*
X-154400Y183359D01*
X-154374Y183300D01*
X-154356Y183238D01*
X-154316Y183172D01*
X-154284Y183102D01*
X-154242Y183053D01*
X-154208Y182998D01*
X-154151Y182946D01*
X-154100Y182888D01*
X-154047Y182852D01*
X-153999Y182809D01*
X-153929Y182776D01*
X-153864Y182733D01*
X-153803Y182714D01*
X-153745Y182686D01*
X-153676Y182675D01*
X-153595Y182651D01*
X-153510Y182650D01*
X-153441Y182639D01*
X-136476Y182639D01*
X-136413Y182648D01*
X-136349Y182647D01*
X-136274Y182668D01*
X-136197Y182679D01*
X-136139Y182705D01*
X-136077Y182722D01*
X-136011Y182763D01*
X-135940Y182795D01*
X-135892Y182837D01*
X-135837Y182870D01*
X-135785Y182928D01*
X-135726Y182978D01*
X-135691Y183032D01*
X-135648Y183080D01*
X-135614Y183149D01*
X-135572Y183214D01*
X-135553Y183276D01*
X-135525Y183333D01*
X-135514Y183403D01*
X-135489Y183484D01*
X-135488Y183569D01*
X-135477Y183638D01*
X-135477Y184857D01*
X-134584Y185750D01*
X-123582Y185750D01*
X-122689Y184857D01*
X-122689Y177486D01*
X-122675Y177391D01*
X-122670Y177294D01*
X-122655Y177251D01*
X-122649Y177206D01*
X-122609Y177119D01*
X-122578Y177028D01*
X-122553Y176994D01*
X-122533Y176949D01*
X-122449Y176852D01*
X-122396Y176779D01*
X-115400Y169783D01*
X-115324Y169726D01*
X-115252Y169661D01*
X-115211Y169641D01*
X-115175Y169614D01*
X-115085Y169580D01*
X-114998Y169538D01*
X-114956Y169532D01*
X-114911Y169515D01*
X-114783Y169505D01*
X-114694Y169491D01*
X-113596Y169491D01*
X-113564Y169495D01*
X-113532Y169493D01*
X-113425Y169515D01*
X-113317Y169531D01*
X-113287Y169544D01*
X-113256Y169550D01*
X-113159Y169602D01*
X-113060Y169647D01*
X-113035Y169668D01*
X-113007Y169683D01*
X-112929Y169759D01*
X-112846Y169830D01*
X-112828Y169857D01*
X-112805Y169880D01*
X-112751Y169975D01*
X-112691Y170066D01*
X-112682Y170097D01*
X-112666Y170125D01*
X-112641Y170231D01*
X-112609Y170336D01*
X-112608Y170368D01*
X-112601Y170399D01*
X-112606Y170509D01*
X-112605Y170618D01*
X-112614Y170649D01*
X-112615Y170681D01*
X-112651Y170784D01*
X-112680Y170890D01*
X-112697Y170917D01*
X-112708Y170948D01*
X-112761Y171021D01*
X-112828Y171130D01*
X-112864Y171162D01*
X-112889Y171197D01*
X-114592Y172899D01*
X-114593Y172900D01*
X-116300Y174607D01*
X-116300Y190248D01*
X-116309Y190312D01*
X-116308Y190376D01*
X-116329Y190451D01*
X-116340Y190527D01*
X-116366Y190586D01*
X-116383Y190648D01*
X-116424Y190714D01*
X-116456Y190784D01*
X-116498Y190833D01*
X-116531Y190888D01*
X-116589Y190940D01*
X-116639Y190998D01*
X-116693Y191034D01*
X-116741Y191077D01*
X-116810Y191110D01*
X-116875Y191153D01*
X-116937Y191172D01*
X-116994Y191200D01*
X-117064Y191211D01*
X-117145Y191235D01*
X-117230Y191236D01*
X-117299Y191247D01*
X-119069Y191247D01*
X-121019Y192055D01*
X-121075Y192111D01*
X-121127Y192150D01*
X-121171Y192196D01*
X-121239Y192234D01*
X-121301Y192281D01*
X-121361Y192303D01*
X-121417Y192335D01*
X-121492Y192353D01*
X-121565Y192380D01*
X-121629Y192385D01*
X-121691Y192400D01*
X-121769Y192396D01*
X-121846Y192402D01*
X-121909Y192389D01*
X-121973Y192386D01*
X-122046Y192360D01*
X-122122Y192344D01*
X-122179Y192314D01*
X-122239Y192293D01*
X-122296Y192252D01*
X-122371Y192212D01*
X-122432Y192153D01*
X-122488Y192111D01*
X-123582Y191018D01*
X-134584Y191018D01*
X-135477Y191911D01*
X-135477Y201161D01*
X-134584Y202054D01*
X-123582Y202054D01*
X-122506Y200979D01*
X-122455Y200940D01*
X-122410Y200894D01*
X-122343Y200856D01*
X-122281Y200809D01*
X-122221Y200787D01*
X-122165Y200755D01*
X-122089Y200737D01*
X-122017Y200710D01*
X-121953Y200705D01*
X-121890Y200690D01*
X-121813Y200694D01*
X-121736Y200688D01*
X-121673Y200701D01*
X-121609Y200704D01*
X-121535Y200730D01*
X-121460Y200746D01*
X-121403Y200776D01*
X-121342Y200797D01*
X-121285Y200838D01*
X-121211Y200878D01*
X-121150Y200937D01*
X-121093Y200979D01*
X-121019Y201053D01*
X-119069Y201861D01*
X-116957Y201861D01*
X-115007Y201053D01*
X-113514Y199560D01*
X-112706Y197610D01*
X-112706Y197023D01*
X-112702Y196991D01*
X-112704Y196959D01*
X-112682Y196852D01*
X-112666Y196744D01*
X-112653Y196715D01*
X-112647Y196683D01*
X-112595Y196587D01*
X-112550Y196487D01*
X-112529Y196463D01*
X-112514Y196434D01*
X-112438Y196356D01*
X-112367Y196273D01*
X-112340Y196255D01*
X-112317Y196232D01*
X-112222Y196178D01*
X-112131Y196119D01*
X-112100Y196109D01*
X-112072Y196093D01*
X-111966Y196068D01*
X-111861Y196036D01*
X-111829Y196036D01*
X-111798Y196028D01*
X-111688Y196034D01*
X-111579Y196032D01*
X-111548Y196041D01*
X-111516Y196043D01*
X-111413Y196078D01*
X-111307Y196108D01*
X-111280Y196125D01*
X-111249Y196135D01*
X-111176Y196188D01*
X-111067Y196256D01*
X-111035Y196292D01*
X-111000Y196317D01*
X-110228Y197090D01*
X-89270Y197090D01*
X-88377Y196197D01*
X-88377Y189011D01*
X-89270Y188118D01*
X-110332Y188118D01*
X-110408Y188141D01*
X-110510Y188180D01*
X-110542Y188182D01*
X-110573Y188192D01*
X-110682Y188193D01*
X-110791Y188202D01*
X-110823Y188195D01*
X-110855Y188196D01*
X-110960Y188166D01*
X-111067Y188144D01*
X-111095Y188129D01*
X-111127Y188120D01*
X-111220Y188063D01*
X-111316Y188012D01*
X-111339Y187989D01*
X-111367Y187972D01*
X-111440Y187891D01*
X-111518Y187815D01*
X-111534Y187787D01*
X-111556Y187763D01*
X-111603Y187665D01*
X-111657Y187570D01*
X-111665Y187538D01*
X-111679Y187509D01*
X-111693Y187420D01*
X-111722Y187295D01*
X-111720Y187247D01*
X-111726Y187205D01*
X-111726Y185303D01*
X-111722Y185271D01*
X-111724Y185239D01*
X-111702Y185132D01*
X-111686Y185024D01*
X-111673Y184995D01*
X-111667Y184963D01*
X-111615Y184867D01*
X-111570Y184767D01*
X-111549Y184743D01*
X-111534Y184714D01*
X-111458Y184636D01*
X-111387Y184553D01*
X-111360Y184535D01*
X-111337Y184512D01*
X-111242Y184458D01*
X-111151Y184399D01*
X-111120Y184389D01*
X-111092Y184373D01*
X-110985Y184348D01*
X-110881Y184316D01*
X-110849Y184316D01*
X-110817Y184308D01*
X-110708Y184314D01*
X-110599Y184312D01*
X-110568Y184321D01*
X-110536Y184323D01*
X-110433Y184358D01*
X-110327Y184388D01*
X-110324Y184390D01*
X-89270Y184390D01*
X-88377Y183497D01*
X-88377Y183190D01*
X-88368Y183126D01*
X-88369Y183062D01*
X-88348Y182987D01*
X-88337Y182911D01*
X-88311Y182852D01*
X-88294Y182790D01*
X-88253Y182724D01*
X-88221Y182654D01*
X-88179Y182605D01*
X-88146Y182550D01*
X-88088Y182498D01*
X-88038Y182440D01*
X-87984Y182404D01*
X-87936Y182361D01*
X-87867Y182328D01*
X-87802Y182285D01*
X-87740Y182266D01*
X-87683Y182238D01*
X-87613Y182227D01*
X-87532Y182203D01*
X-87447Y182202D01*
X-87378Y182191D01*
X-80659Y182191D01*
X-80564Y182204D01*
X-80468Y182209D01*
X-80425Y182224D01*
X-80380Y182231D01*
X-80292Y182270D01*
X-80201Y182302D01*
X-80167Y182327D01*
X-80123Y182347D01*
X-80026Y182430D01*
X-79953Y182483D01*
X-79227Y183209D01*
X-79170Y183285D01*
X-79105Y183357D01*
X-79085Y183398D01*
X-79058Y183434D01*
X-79024Y183524D01*
X-78982Y183610D01*
X-78976Y183653D01*
X-78959Y183698D01*
X-78953Y183771D01*
X-78947Y183792D01*
X-78946Y183843D01*
X-78935Y183915D01*
X-78935Y211558D01*
X-78948Y211653D01*
X-78953Y211749D01*
X-78968Y211792D01*
X-78975Y211837D01*
X-79014Y211925D01*
X-79046Y212015D01*
X-79071Y212050D01*
X-79091Y212094D01*
X-79174Y212191D01*
X-79227Y212264D01*
X-79308Y212345D01*
X-79384Y212402D01*
X-79456Y212467D01*
X-79497Y212487D01*
X-79533Y212514D01*
X-79623Y212548D01*
X-79710Y212590D01*
X-79752Y212596D01*
X-79797Y212613D01*
X-79925Y212623D01*
X-80014Y212637D01*
X-85984Y212637D01*
X-86047Y212628D01*
X-86111Y212629D01*
X-86186Y212608D01*
X-86263Y212597D01*
X-86321Y212571D01*
X-86383Y212554D01*
X-86449Y212513D01*
X-86520Y212481D01*
X-86568Y212439D01*
X-86623Y212406D01*
X-86675Y212348D01*
X-86734Y212298D01*
X-86769Y212244D01*
X-86812Y212196D01*
X-86846Y212127D01*
X-86888Y212062D01*
X-86907Y212000D01*
X-86935Y211943D01*
X-86946Y211873D01*
X-86971Y211792D01*
X-86972Y211707D01*
X-86983Y211638D01*
X-86983Y209997D01*
X-87876Y209104D01*
X-97126Y209104D01*
X-98019Y209997D01*
X-98019Y221000D01*
X-97126Y221893D01*
X-87876Y221893D01*
X-86983Y221000D01*
X-86983Y218210D01*
X-86974Y218146D01*
X-86975Y218082D01*
X-86954Y218007D01*
X-86943Y217931D01*
X-86917Y217872D01*
X-86899Y217810D01*
X-86859Y217744D01*
X-86827Y217674D01*
X-86785Y217625D01*
X-86751Y217570D01*
X-86694Y217518D01*
X-86643Y217460D01*
X-86590Y217424D01*
X-86542Y217381D01*
X-86472Y217348D01*
X-86407Y217305D01*
X-86346Y217286D01*
X-86288Y217258D01*
X-86219Y217247D01*
X-86138Y217223D01*
X-86053Y217222D01*
X-85984Y217211D01*
X-64552Y217211D01*
X-64489Y217220D01*
X-64425Y217219D01*
X-64350Y217240D01*
X-64273Y217251D01*
X-64215Y217277D01*
X-64153Y217294D01*
X-64087Y217335D01*
X-64016Y217367D01*
X-63968Y217409D01*
X-63913Y217442D01*
X-63861Y217500D01*
X-63802Y217550D01*
X-63767Y217604D01*
X-63724Y217652D01*
X-63690Y217721D01*
X-63648Y217786D01*
X-63629Y217848D01*
X-63601Y217905D01*
X-63590Y217975D01*
X-63565Y218056D01*
X-63564Y218141D01*
X-63553Y218210D01*
X-63553Y220425D01*
X-62660Y221318D01*
X-53410Y221318D01*
X-52517Y220425D01*
X-52517Y209423D01*
X-53410Y208530D01*
X-62660Y208530D01*
X-63553Y209423D01*
X-63553Y211638D01*
X-63562Y211702D01*
X-63561Y211766D01*
X-63582Y211841D01*
X-63593Y211917D01*
X-63619Y211976D01*
X-63637Y212038D01*
X-63677Y212104D01*
X-63709Y212174D01*
X-63751Y212223D01*
X-63785Y212278D01*
X-63842Y212330D01*
X-63893Y212388D01*
X-63946Y212424D01*
X-63994Y212467D01*
X-64064Y212500D01*
X-64129Y212543D01*
X-64190Y212562D01*
X-64248Y212590D01*
X-64317Y212601D01*
X-64398Y212625D01*
X-64483Y212626D01*
X-64552Y212637D01*
X-72342Y212637D01*
X-72437Y212624D01*
X-72533Y212619D01*
X-72576Y212604D01*
X-72621Y212597D01*
X-72709Y212558D01*
X-72799Y212526D01*
X-72834Y212501D01*
X-72878Y212481D01*
X-72975Y212398D01*
X-73048Y212345D01*
X-73494Y211899D01*
X-73551Y211823D01*
X-73616Y211751D01*
X-73636Y211710D01*
X-73663Y211674D01*
X-73697Y211584D01*
X-73739Y211497D01*
X-73745Y211455D01*
X-73756Y211427D01*
X-74069Y211114D01*
X-74126Y211038D01*
X-74191Y210966D01*
X-74211Y210925D01*
X-74238Y210889D01*
X-74272Y210799D01*
X-74314Y210712D01*
X-74320Y210670D01*
X-74337Y210625D01*
X-74347Y210497D01*
X-74361Y210408D01*
X-74361Y195852D01*
X-74357Y195820D01*
X-74359Y195788D01*
X-74337Y195681D01*
X-74321Y195573D01*
X-74308Y195543D01*
X-74302Y195512D01*
X-74250Y195415D01*
X-74205Y195316D01*
X-74184Y195291D01*
X-74169Y195263D01*
X-74093Y195185D01*
X-74022Y195102D01*
X-73995Y195084D01*
X-73972Y195061D01*
X-73877Y195007D01*
X-73786Y194947D01*
X-73755Y194938D01*
X-73727Y194922D01*
X-73620Y194897D01*
X-73516Y194865D01*
X-73484Y194864D01*
X-73453Y194857D01*
X-73343Y194862D01*
X-73234Y194861D01*
X-73203Y194870D01*
X-73171Y194871D01*
X-73068Y194907D01*
X-72962Y194936D01*
X-72935Y194953D01*
X-72904Y194964D01*
X-72831Y195017D01*
X-72722Y195084D01*
X-72690Y195120D01*
X-72655Y195145D01*
X-64592Y203209D01*
X-62960Y204841D01*
X-48374Y204841D01*
X-48279Y204854D01*
X-48183Y204859D01*
X-48140Y204874D01*
X-48095Y204881D01*
X-48008Y204920D01*
X-47917Y204952D01*
X-47882Y204977D01*
X-47838Y204997D01*
X-47741Y205080D01*
X-47668Y205133D01*
X-45977Y206824D01*
X-45958Y206850D01*
X-45933Y206871D01*
X-45873Y206962D01*
X-45808Y207050D01*
X-45796Y207080D01*
X-45779Y207107D01*
X-45747Y207211D01*
X-45708Y207313D01*
X-45706Y207346D01*
X-45696Y207376D01*
X-45695Y207486D01*
X-45686Y207595D01*
X-45693Y207626D01*
X-45693Y207658D01*
X-45722Y207764D01*
X-45744Y207871D01*
X-45759Y207899D01*
X-45768Y207930D01*
X-45825Y208023D01*
X-45876Y208120D01*
X-45899Y208143D01*
X-45916Y208170D01*
X-45997Y208243D01*
X-46073Y208322D01*
X-46101Y208338D01*
X-46125Y208359D01*
X-46223Y208407D01*
X-46246Y208420D01*
X-47249Y209423D01*
X-47249Y220425D01*
X-46356Y221318D01*
X-37106Y221318D01*
X-36213Y220425D01*
X-36213Y209423D01*
X-37106Y208530D01*
X-38445Y208530D01*
X-38509Y208521D01*
X-38573Y208522D01*
X-38648Y208501D01*
X-38724Y208490D01*
X-38783Y208464D01*
X-38845Y208446D01*
X-38911Y208406D01*
X-38981Y208374D01*
X-39030Y208332D01*
X-39085Y208298D01*
X-39137Y208241D01*
X-39195Y208190D01*
X-39231Y208137D01*
X-39274Y208089D01*
X-39307Y208019D01*
X-39350Y207954D01*
X-39369Y207893D01*
X-39397Y207835D01*
X-39408Y207766D01*
X-39432Y207685D01*
X-39433Y207600D01*
X-39444Y207531D01*
X-39444Y206889D01*
X-46066Y200267D01*
X-60652Y200267D01*
X-60747Y200254D01*
X-60843Y200249D01*
X-60886Y200234D01*
X-60931Y200227D01*
X-61019Y200188D01*
X-61109Y200156D01*
X-61144Y200131D01*
X-61188Y200111D01*
X-61285Y200028D01*
X-61358Y199975D01*
X-68414Y192919D01*
X-68471Y192843D01*
X-68536Y192771D01*
X-68556Y192730D01*
X-68583Y192694D01*
X-68617Y192604D01*
X-68659Y192517D01*
X-68665Y192475D01*
X-68682Y192430D01*
X-68692Y192302D01*
X-68706Y192213D01*
X-68706Y184717D01*
X-68702Y184685D01*
X-68704Y184653D01*
X-68682Y184546D01*
X-68666Y184438D01*
X-68653Y184408D01*
X-68647Y184377D01*
X-68595Y184280D01*
X-68550Y184181D01*
X-68529Y184156D01*
X-68514Y184128D01*
X-68438Y184050D01*
X-68367Y183967D01*
X-68340Y183949D01*
X-68317Y183926D01*
X-68222Y183872D01*
X-68131Y183812D01*
X-68100Y183803D01*
X-68072Y183787D01*
X-67966Y183762D01*
X-67861Y183730D01*
X-67829Y183729D01*
X-67798Y183722D01*
X-67688Y183727D01*
X-67579Y183726D01*
X-67548Y183735D01*
X-67516Y183736D01*
X-67413Y183772D01*
X-67307Y183801D01*
X-67280Y183818D01*
X-67249Y183829D01*
X-67176Y183882D01*
X-67067Y183949D01*
X-67035Y183985D01*
X-67000Y184010D01*
X-65775Y185236D01*
X-64682Y186329D01*
X-63050Y187961D01*
X-62648Y187961D01*
X-62584Y187970D01*
X-62520Y187969D01*
X-62445Y187990D01*
X-62369Y188001D01*
X-62310Y188027D01*
X-62248Y188044D01*
X-62182Y188085D01*
X-62112Y188117D01*
X-62063Y188159D01*
X-62008Y188192D01*
X-61956Y188250D01*
X-61898Y188300D01*
X-61862Y188354D01*
X-61819Y188402D01*
X-61786Y188471D01*
X-61743Y188536D01*
X-61724Y188598D01*
X-61696Y188655D01*
X-61685Y188725D01*
X-61661Y188806D01*
X-61660Y188891D01*
X-61649Y188960D01*
X-61649Y196197D01*
X-60756Y197090D01*
X-40887Y197090D01*
X-40824Y197099D01*
X-40760Y197098D01*
X-40685Y197119D01*
X-40608Y197130D01*
X-40550Y197156D01*
X-40488Y197173D01*
X-40422Y197214D01*
X-40351Y197246D01*
X-40303Y197288D01*
X-40248Y197321D01*
X-40196Y197379D01*
X-40137Y197429D01*
X-40102Y197483D01*
X-40059Y197531D01*
X-40025Y197600D01*
X-39983Y197665D01*
X-39964Y197727D01*
X-39936Y197784D01*
X-39925Y197854D01*
X-39900Y197935D01*
X-39899Y198020D01*
X-39888Y198089D01*
X-39888Y200037D01*
X-38995Y200930D01*
X-38077Y200930D01*
X-38013Y200939D01*
X-37949Y200938D01*
X-37874Y200959D01*
X-37798Y200970D01*
X-37739Y200996D01*
X-37677Y201013D01*
X-37611Y201054D01*
X-37541Y201086D01*
X-37492Y201128D01*
X-37437Y201161D01*
X-37385Y201219D01*
X-37327Y201269D01*
X-37291Y201323D01*
X-37248Y201371D01*
X-37215Y201440D01*
X-37172Y201505D01*
X-37153Y201567D01*
X-37125Y201624D01*
X-37114Y201694D01*
X-37090Y201775D01*
X-37089Y201860D01*
X-37078Y201929D01*
X-37078Y204238D01*
X-28612Y212703D01*
X-28555Y212780D01*
X-28490Y212851D01*
X-28470Y212892D01*
X-28443Y212929D01*
X-28409Y213019D01*
X-28367Y213105D01*
X-28361Y213147D01*
X-28344Y213192D01*
X-28334Y213320D01*
X-28320Y213410D01*
X-28320Y213610D01*
X-27512Y215560D01*
X-26019Y217053D01*
X-24069Y217861D01*
X-21957Y217861D01*
X-20007Y217053D01*
X-19866Y216911D01*
X-19789Y216854D01*
X-19717Y216789D01*
X-19676Y216769D01*
X-19640Y216742D01*
X-19550Y216708D01*
X-19464Y216666D01*
X-19422Y216660D01*
X-19376Y216643D01*
X-19248Y216633D01*
X-19159Y216619D01*
X-8329Y216619D01*
X212Y208078D01*
X212Y206423D01*
X221Y206360D01*
X220Y206296D01*
X241Y206221D01*
X252Y206144D01*
X278Y206086D01*
X295Y206024D01*
X336Y205958D01*
X368Y205887D01*
X410Y205839D01*
X443Y205784D01*
X501Y205732D01*
X551Y205673D01*
X605Y205638D01*
X653Y205595D01*
X722Y205561D01*
X787Y205519D01*
X849Y205500D01*
X906Y205472D01*
X976Y205461D01*
X1057Y205436D01*
X1142Y205435D01*
X1211Y205424D01*
X1648Y205424D01*
X2541Y204531D01*
X2541Y195281D01*
X1648Y194388D01*
X-9354Y194388D01*
X-10247Y195281D01*
X-10247Y195554D01*
X-10256Y195617D01*
X-10255Y195682D01*
X-10276Y195757D01*
X-10287Y195833D01*
X-10313Y195892D01*
X-10331Y195954D01*
X-10371Y196020D01*
X-10403Y196090D01*
X-10445Y196139D01*
X-10479Y196194D01*
X-10536Y196246D01*
X-10587Y196304D01*
X-10640Y196340D01*
X-10688Y196383D01*
X-10758Y196416D01*
X-10823Y196459D01*
X-10884Y196478D01*
X-10942Y196506D01*
X-11011Y196516D01*
X-11092Y196541D01*
X-11177Y196542D01*
X-11246Y196553D01*
X-16268Y196553D01*
X-16268Y201946D01*
X-13328Y201946D01*
X-12682Y201773D01*
X-12102Y201438D01*
X-11953Y201289D01*
X-11927Y201269D01*
X-11906Y201245D01*
X-11815Y201185D01*
X-11728Y201119D01*
X-11697Y201108D01*
X-11670Y201090D01*
X-11566Y201059D01*
X-11464Y201020D01*
X-11431Y201017D01*
X-11401Y201008D01*
X-11291Y201007D01*
X-11182Y200998D01*
X-11151Y201005D01*
X-11119Y201004D01*
X-11013Y201033D01*
X-10906Y201056D01*
X-10878Y201071D01*
X-10847Y201079D01*
X-10754Y201137D01*
X-10657Y201188D01*
X-10634Y201211D01*
X-10607Y201228D01*
X-10534Y201309D01*
X-10455Y201385D01*
X-10439Y201413D01*
X-10418Y201437D01*
X-10370Y201535D01*
X-10316Y201630D01*
X-10309Y201662D01*
X-10295Y201691D01*
X-10281Y201780D01*
X-10251Y201905D01*
X-10254Y201953D01*
X-10247Y201995D01*
X-10247Y204531D01*
X-9699Y205079D01*
X-9661Y205130D01*
X-9615Y205175D01*
X-9577Y205242D01*
X-9530Y205304D01*
X-9507Y205365D01*
X-9476Y205420D01*
X-9458Y205496D01*
X-9431Y205568D01*
X-9426Y205632D01*
X-9411Y205695D01*
X-9415Y205772D01*
X-9409Y205850D01*
X-9422Y205912D01*
X-9425Y205977D01*
X-9451Y206050D01*
X-9466Y206126D01*
X-9497Y206182D01*
X-9518Y206243D01*
X-9559Y206300D01*
X-9599Y206375D01*
X-9658Y206435D01*
X-9699Y206492D01*
X-11404Y208197D01*
X-11481Y208254D01*
X-11552Y208319D01*
X-11593Y208339D01*
X-11630Y208366D01*
X-11720Y208400D01*
X-11806Y208442D01*
X-11848Y208448D01*
X-11893Y208465D01*
X-12021Y208475D01*
X-12111Y208489D01*
X-19159Y208489D01*
X-19254Y208476D01*
X-19350Y208471D01*
X-19393Y208456D01*
X-19438Y208449D01*
X-19526Y208410D01*
X-19617Y208378D01*
X-19651Y208353D01*
X-19695Y208333D01*
X-19792Y208250D01*
X-19866Y208197D01*
X-20007Y208055D01*
X-21957Y207247D01*
X-22157Y207247D01*
X-22252Y207234D01*
X-22349Y207229D01*
X-22392Y207214D01*
X-22437Y207207D01*
X-22524Y207168D01*
X-22615Y207136D01*
X-22649Y207111D01*
X-22694Y207091D01*
X-22791Y207008D01*
X-22864Y206955D01*
X-27999Y201819D01*
X-28038Y201768D01*
X-28084Y201723D01*
X-28122Y201656D01*
X-28169Y201594D01*
X-28191Y201533D01*
X-28223Y201478D01*
X-28241Y201402D01*
X-28268Y201330D01*
X-28273Y201266D01*
X-28288Y201203D01*
X-28284Y201126D01*
X-28290Y201049D01*
X-28277Y200986D01*
X-28274Y200922D01*
X-28248Y200848D01*
X-28232Y200773D01*
X-28202Y200716D01*
X-28181Y200655D01*
X-28140Y200598D01*
X-28100Y200524D01*
X-28041Y200463D01*
X-27999Y200406D01*
X-27630Y200037D01*
X-27630Y188960D01*
X-27621Y188896D01*
X-27622Y188832D01*
X-27601Y188757D01*
X-27590Y188681D01*
X-27564Y188622D01*
X-27546Y188560D01*
X-27506Y188494D01*
X-27474Y188424D01*
X-27432Y188375D01*
X-27398Y188320D01*
X-27341Y188268D01*
X-27290Y188210D01*
X-27237Y188174D01*
X-27189Y188131D01*
X-27119Y188098D01*
X-27054Y188055D01*
X-26993Y188036D01*
X-26935Y188008D01*
X-26866Y187997D01*
X-26785Y187973D01*
X-26700Y187972D01*
X-26631Y187961D01*
X-26337Y187961D01*
X-26284Y187968D01*
X-26231Y187966D01*
X-26145Y187988D01*
X-26058Y188001D01*
X-26009Y188023D01*
X-25957Y188036D01*
X-25881Y188080D01*
X-25801Y188117D01*
X-25760Y188152D01*
X-25714Y188179D01*
X-25654Y188243D01*
X-25587Y188300D01*
X-25557Y188345D01*
X-25521Y188384D01*
X-25481Y188462D01*
X-25432Y188536D01*
X-25417Y188587D01*
X-25392Y188635D01*
X-25376Y188722D01*
X-25350Y188806D01*
X-25349Y188859D01*
X-25339Y188912D01*
X-25348Y188990D01*
X-25346Y189088D01*
X-25366Y189158D01*
X-25372Y189219D01*
X-25412Y189368D01*
X-25412Y192555D01*
X-19267Y192555D01*
X-19203Y192564D01*
X-19139Y192563D01*
X-19065Y192584D01*
X-18988Y192595D01*
X-18929Y192621D01*
X-18867Y192638D01*
X-18801Y192679D01*
X-18731Y192711D01*
X-18682Y192753D01*
X-18627Y192786D01*
X-18576Y192844D01*
X-18517Y192894D01*
X-18481Y192948D01*
X-18438Y192996D01*
X-18405Y193065D01*
X-18362Y193130D01*
X-18343Y193192D01*
X-18315Y193249D01*
X-18305Y193319D01*
X-18280Y193400D01*
X-18279Y193485D01*
X-18268Y193554D01*
X-18268Y194555D01*
X-18266Y194555D01*
X-18266Y193554D01*
X-18257Y193490D01*
X-18258Y193426D01*
X-18237Y193351D01*
X-18226Y193275D01*
X-18200Y193216D01*
X-18183Y193154D01*
X-18142Y193088D01*
X-18110Y193018D01*
X-18068Y192969D01*
X-18035Y192914D01*
X-17977Y192862D01*
X-17927Y192804D01*
X-17873Y192768D01*
X-17825Y192725D01*
X-17756Y192692D01*
X-17691Y192649D01*
X-17629Y192630D01*
X-17571Y192602D01*
X-17502Y192592D01*
X-17421Y192567D01*
X-17336Y192566D01*
X-17267Y192555D01*
X-11122Y192555D01*
X-11122Y189765D01*
X-11117Y189733D01*
X-11120Y189701D01*
X-11097Y189594D01*
X-11082Y189486D01*
X-11069Y189456D01*
X-11062Y189425D01*
X-11011Y189328D01*
X-10966Y189229D01*
X-10945Y189204D01*
X-10930Y189176D01*
X-10853Y189097D01*
X-10782Y189014D01*
X-10755Y188997D01*
X-10733Y188974D01*
X-10638Y188920D01*
X-10546Y188860D01*
X-10515Y188851D01*
X-10487Y188835D01*
X-10381Y188810D01*
X-10277Y188778D01*
X-10244Y188777D01*
X-10213Y188770D01*
X-10104Y188775D01*
X-9995Y188774D01*
X-9964Y188782D01*
X-9931Y188784D01*
X-9828Y188820D01*
X-9723Y188849D01*
X-9695Y188866D01*
X-9665Y188877D01*
X-9592Y188930D01*
X-9483Y188997D01*
X-9450Y189033D01*
X-9416Y189058D01*
X-9354Y189120D01*
X1648Y189120D01*
X2541Y188227D01*
X2541Y186888D01*
X2550Y186829D01*
X2549Y186816D01*
X2550Y186813D01*
X2549Y186760D01*
X2570Y186685D01*
X2581Y186609D01*
X2607Y186550D01*
X2625Y186488D01*
X2665Y186422D01*
X2697Y186352D01*
X2739Y186303D01*
X2773Y186248D01*
X2830Y186196D01*
X2881Y186138D01*
X2934Y186102D01*
X2982Y186059D01*
X3052Y186026D01*
X3117Y185983D01*
X3178Y185964D01*
X3236Y185936D01*
X3305Y185925D01*
X3386Y185901D01*
X3471Y185900D01*
X3540Y185889D01*
X8224Y185889D01*
X8287Y185898D01*
X8351Y185897D01*
X8426Y185918D01*
X8503Y185929D01*
X8561Y185955D01*
X8623Y185972D01*
X8689Y186013D01*
X8760Y186045D01*
X8808Y186087D01*
X8863Y186120D01*
X8915Y186178D01*
X8974Y186228D01*
X9009Y186282D01*
X9052Y186330D01*
X9086Y186399D01*
X9128Y186464D01*
X9147Y186526D01*
X9175Y186583D01*
X9186Y186653D01*
X9211Y186734D01*
X9212Y186819D01*
X9223Y186888D01*
X9223Y188967D01*
X10116Y189860D01*
X21118Y189860D01*
X22011Y188967D01*
X22011Y186554D01*
X22020Y186490D01*
X22019Y186426D01*
X22040Y186351D01*
X22051Y186275D01*
X22077Y186216D01*
X22095Y186154D01*
X22135Y186088D01*
X22167Y186018D01*
X22209Y185969D01*
X22243Y185914D01*
X22300Y185862D01*
X22351Y185804D01*
X22404Y185768D01*
X22452Y185725D01*
X22522Y185692D01*
X22587Y185649D01*
X22648Y185630D01*
X22706Y185602D01*
X22775Y185591D01*
X22856Y185567D01*
X22941Y185566D01*
X23010Y185555D01*
X112140Y185555D01*
X112172Y185559D01*
X112204Y185557D01*
X112311Y185579D01*
X112420Y185595D01*
X112449Y185608D01*
X112480Y185614D01*
X112577Y185666D01*
X112676Y185711D01*
X112701Y185732D01*
X112729Y185747D01*
X112808Y185823D01*
X112891Y185894D01*
X112908Y185921D01*
X112931Y185944D01*
X112985Y186039D01*
X113045Y186130D01*
X113055Y186161D01*
X113071Y186189D01*
X113096Y186296D01*
X113128Y186400D01*
X113128Y186432D01*
X113135Y186464D01*
X113130Y186573D01*
X113131Y186682D01*
X113123Y186713D01*
X113121Y186745D01*
X113085Y186848D01*
X113056Y186954D01*
X113039Y186981D01*
X113029Y187012D01*
X112975Y187085D01*
X112908Y187194D01*
X112872Y187226D01*
X112847Y187261D01*
X111879Y188228D01*
X110843Y190730D01*
X110843Y193438D01*
X111879Y195940D01*
X113794Y197854D01*
X116296Y198891D01*
X116976Y198891D01*
X116998Y198894D01*
X117021Y198892D01*
X117138Y198914D01*
X117255Y198931D01*
X117276Y198940D01*
X117298Y198944D01*
X117404Y198998D01*
X117512Y199047D01*
X117529Y199061D01*
X117550Y199072D01*
X117636Y199153D01*
X117726Y199230D01*
X117739Y199249D01*
X117755Y199265D01*
X117816Y199366D01*
X117881Y199466D01*
X117888Y199488D01*
X117899Y199507D01*
X117929Y199622D01*
X117963Y199736D01*
X117964Y199758D01*
X117969Y199780D01*
X117965Y199899D01*
X117967Y200018D01*
X117961Y200040D01*
X117960Y200062D01*
X117924Y200175D01*
X117892Y200290D01*
X117880Y200309D01*
X117873Y200330D01*
X117820Y200405D01*
X117744Y200530D01*
X117715Y200555D01*
X117696Y200583D01*
X114463Y203943D01*
X114487Y205206D01*
X117944Y208532D01*
X117989Y208590D01*
X118042Y208642D01*
X118075Y208701D01*
X118117Y208754D01*
X118145Y208823D01*
X118181Y208887D01*
X118197Y208953D01*
X118222Y209016D01*
X118229Y209090D01*
X118246Y209162D01*
X118242Y209229D01*
X118249Y209297D01*
X118235Y209370D01*
X118232Y209443D01*
X118209Y209507D01*
X118197Y209574D01*
X118163Y209640D01*
X118139Y209710D01*
X118102Y209760D01*
X118069Y209826D01*
X118003Y209896D01*
X117957Y209959D01*
X117720Y210196D01*
X117676Y210229D01*
X117639Y210269D01*
X117564Y210313D01*
X117494Y210366D01*
X117443Y210385D01*
X117396Y210413D01*
X117312Y210434D01*
X117230Y210465D01*
X117176Y210469D01*
X117123Y210483D01*
X117036Y210480D01*
X116949Y210487D01*
X116896Y210476D01*
X116841Y210474D01*
X116758Y210447D01*
X116673Y210429D01*
X116625Y210404D01*
X116573Y210387D01*
X116509Y210342D01*
X116424Y210297D01*
X116371Y210246D01*
X116320Y210210D01*
X113082Y207094D01*
X112497Y206770D01*
X111847Y206610D01*
X111178Y206623D01*
X110535Y206808D01*
X109963Y207154D01*
X104530Y212799D01*
X109226Y217319D01*
X109272Y217377D01*
X109325Y217429D01*
X109358Y217488D01*
X109400Y217542D01*
X109427Y217610D01*
X109464Y217674D01*
X109479Y217740D01*
X109505Y217803D01*
X109512Y217877D01*
X109529Y217949D01*
X109525Y218017D01*
X109532Y218084D01*
X109518Y218157D01*
X109514Y218230D01*
X109492Y218295D01*
X109480Y218361D01*
X109446Y218427D01*
X109422Y218497D01*
X109385Y218547D01*
X109352Y218613D01*
X109286Y218683D01*
X109240Y218746D01*
X107826Y220160D01*
X107782Y220193D01*
X107745Y220233D01*
X107670Y220277D01*
X107600Y220330D01*
X107549Y220349D01*
X107502Y220377D01*
X107418Y220398D01*
X107336Y220429D01*
X107282Y220433D01*
X107229Y220447D01*
X107142Y220444D01*
X107055Y220451D01*
X107002Y220440D01*
X106947Y220438D01*
X106864Y220411D01*
X106779Y220393D01*
X106731Y220368D01*
X106679Y220351D01*
X106615Y220306D01*
X106530Y220261D01*
X106477Y220209D01*
X106426Y220174D01*
X101757Y215680D01*
X96324Y221326D01*
X96001Y221912D01*
X95840Y222561D01*
X95853Y223230D01*
X96039Y223873D01*
X96384Y224446D01*
X99859Y227790D01*
X99871Y227805D01*
X99886Y227817D01*
X99958Y227916D01*
X100033Y228012D01*
X100040Y228030D01*
X100051Y228045D01*
X100092Y228161D01*
X100137Y228274D01*
X100139Y228293D01*
X100146Y228311D01*
X100153Y228433D01*
X100165Y228555D01*
X100161Y228574D01*
X100162Y228593D01*
X100141Y228681D01*
X100112Y228832D01*
X100097Y228863D01*
X100090Y228892D01*
X98866Y231846D01*
X98866Y236882D01*
X100794Y241536D01*
X104496Y245238D01*
X104653Y245395D01*
X106653Y247395D01*
X112355Y253097D01*
X117009Y255025D01*
X122045Y255025D01*
X125716Y253504D01*
X125852Y253469D01*
X125989Y253434D01*
X126121Y253438D01*
X126271Y253443D01*
X126442Y253499D01*
X126539Y253530D01*
X126539Y253531D01*
X126772Y253690D01*
X126781Y253700D01*
X126791Y253707D01*
X128186Y255049D01*
X128265Y255150D01*
X128346Y255249D01*
X128351Y255261D01*
X128359Y255271D01*
X128407Y255391D01*
X128457Y255508D01*
X128459Y255521D01*
X128464Y255533D01*
X128476Y255661D01*
X128492Y255788D01*
X128490Y255801D01*
X128491Y255814D01*
X128467Y255940D01*
X128447Y256066D01*
X128441Y256078D01*
X128439Y256091D01*
X128381Y256205D01*
X128326Y256321D01*
X128317Y256331D01*
X128311Y256343D01*
X128223Y256436D01*
X128138Y256532D01*
X128128Y256538D01*
X128118Y256548D01*
X127876Y256692D01*
X127875Y256692D01*
X118571Y260546D01*
X118512Y260561D01*
X118465Y260583D01*
X87404Y269532D01*
X87344Y269540D01*
X87295Y269557D01*
X65964Y273181D01*
X65867Y273184D01*
X65770Y273195D01*
X65726Y273187D01*
X65682Y273189D01*
X65588Y273164D01*
X65492Y273148D01*
X65452Y273128D01*
X65409Y273117D01*
X65326Y273067D01*
X65238Y273025D01*
X65205Y272995D01*
X65167Y272972D01*
X65101Y272901D01*
X65029Y272835D01*
X65006Y272798D01*
X64976Y272765D01*
X64932Y272678D01*
X64881Y272595D01*
X64869Y272553D01*
X64849Y272513D01*
X64832Y272417D01*
X64806Y272324D01*
X64806Y272279D01*
X64798Y272236D01*
X64808Y272139D01*
X64809Y272042D01*
X64822Y271999D01*
X64827Y271955D01*
X64863Y271865D01*
X64892Y271772D01*
X64915Y271738D01*
X64933Y271694D01*
X65013Y271592D01*
X65064Y271516D01*
X72557Y263441D01*
X77811Y252530D01*
X79616Y240554D01*
X77811Y228578D01*
X72557Y217667D01*
X64319Y208789D01*
X53831Y202733D01*
X42023Y200038D01*
X29946Y200943D01*
X24392Y203123D01*
X24285Y203148D01*
X24181Y203180D01*
X24148Y203181D01*
X24117Y203188D01*
X24008Y203183D01*
X23899Y203184D01*
X23868Y203175D01*
X23835Y203174D01*
X23732Y203138D01*
X23627Y203109D01*
X23599Y203092D01*
X23569Y203081D01*
X23480Y203018D01*
X23387Y202961D01*
X23365Y202937D01*
X23339Y202918D01*
X23271Y202833D01*
X23198Y202751D01*
X23184Y202722D01*
X23164Y202697D01*
X23141Y202642D01*
X16614Y202642D01*
X16550Y202633D01*
X16486Y202634D01*
X16411Y202613D01*
X16335Y202602D01*
X16276Y202576D01*
X16214Y202559D01*
X16148Y202518D01*
X16078Y202486D01*
X16029Y202444D01*
X15974Y202410D01*
X15922Y202353D01*
X15864Y202303D01*
X15828Y202249D01*
X15785Y202201D01*
X15752Y202132D01*
X15709Y202067D01*
X15690Y202005D01*
X15662Y201947D01*
X15651Y201878D01*
X15627Y201797D01*
X15626Y201712D01*
X15617Y201658D01*
X15610Y201706D01*
X15611Y201771D01*
X15590Y201845D01*
X15579Y201922D01*
X15553Y201980D01*
X15536Y202042D01*
X15495Y202108D01*
X15463Y202179D01*
X15422Y202228D01*
X15388Y202282D01*
X15330Y202334D01*
X15280Y202393D01*
X15226Y202428D01*
X15178Y202471D01*
X15109Y202505D01*
X15044Y202548D01*
X14982Y202566D01*
X14925Y202594D01*
X14855Y202605D01*
X14774Y202630D01*
X14689Y202631D01*
X14620Y202642D01*
X8207Y202642D01*
X8207Y204974D01*
X8380Y205620D01*
X8714Y206200D01*
X9187Y206673D01*
X9767Y207007D01*
X10413Y207180D01*
X13544Y207180D01*
X13631Y207193D01*
X13719Y207196D01*
X13770Y207212D01*
X13823Y207220D01*
X13903Y207256D01*
X13987Y207284D01*
X14031Y207314D01*
X14080Y207336D01*
X14147Y207394D01*
X14220Y207443D01*
X14254Y207485D01*
X14294Y207520D01*
X14343Y207594D01*
X14398Y207662D01*
X14419Y207711D01*
X14449Y207756D01*
X14475Y207840D01*
X14509Y207921D01*
X14516Y207974D01*
X14531Y208025D01*
X14532Y208113D01*
X14543Y208201D01*
X14534Y208254D01*
X14535Y208307D01*
X14511Y208392D01*
X14497Y208479D01*
X14474Y208527D01*
X14460Y208579D01*
X14413Y208654D01*
X14375Y208734D01*
X14342Y208770D01*
X14312Y208819D01*
X14226Y208897D01*
X14167Y208961D01*
X9204Y212919D01*
X2381Y222926D01*
X-1189Y234498D01*
X-1189Y246610D01*
X2381Y258182D01*
X9204Y268189D01*
X17323Y274664D01*
X17403Y274749D01*
X17486Y274829D01*
X17499Y274851D01*
X17517Y274870D01*
X17569Y274972D01*
X17627Y275073D01*
X17634Y275098D01*
X17645Y275121D01*
X17667Y275234D01*
X17695Y275347D01*
X17694Y275373D01*
X17698Y275398D01*
X17688Y275513D01*
X17683Y275629D01*
X17674Y275653D01*
X17672Y275678D01*
X17629Y275786D01*
X17592Y275896D01*
X17578Y275917D01*
X17568Y275941D01*
X17497Y276032D01*
X17431Y276127D01*
X17411Y276143D01*
X17395Y276163D01*
X17301Y276232D01*
X17211Y276304D01*
X17188Y276314D01*
X17167Y276329D01*
X17058Y276368D01*
X16951Y276413D01*
X16927Y276415D01*
X16902Y276424D01*
X16727Y276435D01*
X16644Y276443D01*
X-9342Y274984D01*
X-9401Y274972D01*
X-9454Y274971D01*
X-41321Y269557D01*
X-41378Y269538D01*
X-41430Y269532D01*
X-64635Y262847D01*
X-68104Y261847D01*
X-71572Y260848D01*
X-72491Y260583D01*
X-72546Y260559D01*
X-72597Y260546D01*
X-102460Y248177D01*
X-102512Y248146D01*
X-102561Y248128D01*
X-130852Y232492D01*
X-130900Y232456D01*
X-130947Y232433D01*
X-156080Y214599D01*
X-156164Y214520D01*
X-156252Y214444D01*
X-156266Y214423D01*
X-156285Y214405D01*
X-156343Y214306D01*
X-156407Y214208D01*
X-156414Y214184D01*
X-156427Y214162D01*
X-156455Y214049D01*
X-156489Y213939D01*
X-156490Y213913D01*
X-156496Y213888D01*
X-156491Y213772D01*
X-156493Y213657D01*
X-156486Y213632D01*
X-156485Y213607D01*
X-156449Y213497D01*
X-156418Y213385D01*
X-156404Y213363D01*
X-156396Y213339D01*
X-156331Y213244D01*
X-156270Y213145D01*
X-156251Y213128D01*
X-156236Y213107D01*
X-156146Y213033D01*
X-156060Y212956D01*
X-156037Y212945D01*
X-156018Y212929D01*
X-155911Y212883D01*
X-155807Y212833D01*
X-155783Y212829D01*
X-155758Y212819D01*
X-155584Y212798D01*
X-155502Y212785D01*
X-115322Y212785D01*
X-115259Y212794D01*
X-115195Y212793D01*
X-115120Y212814D01*
X-115043Y212825D01*
X-114985Y212851D01*
X-114923Y212869D01*
X-114857Y212909D01*
X-114786Y212941D01*
X-114738Y212983D01*
X-114683Y213017D01*
X-114631Y213074D01*
X-114572Y213125D01*
X-114537Y213178D01*
X-114494Y213226D01*
X-114460Y213296D01*
X-114418Y213361D01*
X-114399Y213422D01*
X-114371Y213480D01*
X-114360Y213549D01*
X-114335Y213630D01*
X-114334Y213715D01*
X-114323Y213784D01*
X-114323Y221000D01*
X-113430Y221893D01*
X-104180Y221893D01*
X-103287Y221000D01*
X-103287Y209997D01*
X-104180Y209104D01*
X-111551Y209104D01*
X-111647Y209091D01*
X-111743Y209086D01*
X-111786Y209071D01*
X-111831Y209064D01*
X-111918Y209025D01*
X-112009Y208993D01*
X-112043Y208968D01*
X-112088Y208948D01*
X-112185Y208865D01*
X-112258Y208812D01*
X-112858Y208212D01*
X-157707Y208212D01*
X-157802Y208198D01*
X-157899Y208193D01*
X-157942Y208178D01*
X-157987Y208172D01*
X-158074Y208132D01*
X-158165Y208101D01*
X-158199Y208076D01*
X-158244Y208056D01*
X-158341Y207972D01*
X-158414Y207919D01*
X-162537Y203796D01*
X-162595Y203719D01*
X-162659Y203648D01*
X-162679Y203607D01*
X-162707Y203570D01*
X-162741Y203480D01*
X-162782Y203394D01*
X-162789Y203352D01*
X-162806Y203306D01*
X-162816Y203179D01*
X-162830Y203089D01*
X-162830Y197393D01*
X-162821Y197329D01*
X-162822Y197265D01*
X-162801Y197190D01*
X-162790Y197114D01*
X-162764Y197055D01*
X-162747Y196993D01*
X-162706Y196927D01*
X-162674Y196857D01*
X-162632Y196808D01*
X-162598Y196753D01*
X-162541Y196701D01*
X-162491Y196643D01*
X-162437Y196607D01*
X-162389Y196564D01*
X-162320Y196531D01*
X-162255Y196488D01*
X-162193Y196469D01*
X-162135Y196441D01*
X-162066Y196430D01*
X-161985Y196406D01*
X-161900Y196405D01*
X-161846Y196396D01*
X-161894Y196389D01*
X-161959Y196390D01*
X-162033Y196369D01*
X-162110Y196358D01*
X-162168Y196332D01*
X-162230Y196315D01*
X-162296Y196274D01*
X-162367Y196242D01*
X-162416Y196201D01*
X-162470Y196167D01*
X-162522Y196109D01*
X-162581Y196059D01*
X-162616Y196005D01*
X-162659Y195957D01*
X-162693Y195888D01*
X-162736Y195823D01*
X-162754Y195761D01*
X-162782Y195704D01*
X-162793Y195634D01*
X-162818Y195553D01*
X-162819Y195468D01*
X-162830Y195399D01*
X-162830Y189862D01*
X-166038Y189862D01*
X-166684Y190035D01*
X-167264Y190369D01*
X-167737Y190842D01*
X-167862Y191059D01*
X-167875Y191076D01*
X-167884Y191096D01*
X-167962Y191186D01*
X-168036Y191281D01*
X-168053Y191294D01*
X-168067Y191310D01*
X-168168Y191376D01*
X-168265Y191445D01*
X-168285Y191453D01*
X-168303Y191464D01*
X-168418Y191499D01*
X-168531Y191539D01*
X-168552Y191540D01*
X-168573Y191547D01*
X-168693Y191548D01*
X-168812Y191555D01*
X-168833Y191550D01*
X-168855Y191550D01*
X-168970Y191519D01*
X-169087Y191492D01*
X-169106Y191481D01*
X-169127Y191475D01*
X-169229Y191412D01*
X-169333Y191354D01*
X-169348Y191338D01*
X-169367Y191327D01*
X-169447Y191238D01*
X-169531Y191153D01*
X-169541Y191134D01*
X-169556Y191118D01*
X-169608Y191010D01*
X-169665Y190905D01*
X-169669Y190883D01*
X-169679Y190864D01*
X-169693Y190774D01*
X-169724Y190629D01*
X-169721Y190592D01*
X-169726Y190559D01*
X-169726Y173915D01*
X-169718Y173855D01*
X-169718Y173825D01*
X-169712Y173803D01*
X-169708Y173724D01*
X-169693Y173681D01*
X-169686Y173636D01*
X-169647Y173548D01*
X-169615Y173458D01*
X-169590Y173423D01*
X-169570Y173379D01*
X-169487Y173282D01*
X-169434Y173209D01*
X-166977Y170752D01*
X-166900Y170694D01*
X-166829Y170630D01*
X-166788Y170610D01*
X-166751Y170583D01*
X-166661Y170549D01*
X-166575Y170507D01*
X-166533Y170500D01*
X-166488Y170483D01*
X-166360Y170473D01*
X-166270Y170459D01*
X-155195Y170459D01*
X-154302Y169566D01*
X-154302Y159094D01*
X-155195Y158201D01*
X-166160Y158201D01*
X-167053Y159094D01*
X-167053Y163946D01*
X-167067Y164041D01*
X-167072Y164138D01*
X-167087Y164181D01*
X-167093Y164226D01*
X-167133Y164313D01*
X-167164Y164404D01*
X-167189Y164438D01*
X-167209Y164483D01*
X-167271Y164554D01*
X-167299Y164600D01*
X-167324Y164623D01*
X-167346Y164653D01*
X-174300Y171607D01*
X-174300Y196319D01*
X-174300Y196323D01*
X-174300Y196327D01*
X-174320Y196463D01*
X-174340Y196598D01*
X-174341Y196602D01*
X-174342Y196606D01*
X-174399Y196731D01*
X-174456Y196855D01*
X-174458Y196858D01*
X-174460Y196862D01*
X-174550Y196965D01*
X-174639Y197069D01*
X-174643Y197072D01*
X-174645Y197075D01*
X-174759Y197148D01*
X-174875Y197224D01*
X-174879Y197225D01*
X-174882Y197227D01*
X-175013Y197266D01*
X-175145Y197306D01*
X-175149Y197306D01*
X-175153Y197307D01*
X-175290Y197308D01*
X-175427Y197310D01*
X-175431Y197309D01*
X-175435Y197309D01*
X-175567Y197271D01*
X-175699Y197235D01*
X-175702Y197233D01*
X-175706Y197232D01*
X-175750Y197203D01*
X-175939Y197087D01*
X-175951Y197073D01*
X-175965Y197064D01*
X-181499Y192119D01*
X-181537Y192073D01*
X-181578Y192040D01*
X-203117Y167937D01*
X-203150Y167887D01*
X-203187Y167850D01*
X-221892Y141488D01*
X-221919Y141434D01*
X-221951Y141393D01*
X-237587Y113102D01*
X-237608Y113046D01*
X-237636Y113001D01*
X-250005Y83138D01*
X-250020Y83079D01*
X-250042Y83032D01*
X-258991Y51971D01*
X-258999Y51911D01*
X-259016Y51862D01*
X-264430Y19995D01*
X-264432Y19934D01*
X-264443Y19883D01*
X-266255Y-12390D01*
X-266250Y-12450D01*
X-266255Y-12502D01*
X-264443Y-44775D01*
X-264431Y-44834D01*
X-264430Y-44887D01*
X-264203Y-46223D01*
X-264191Y-46263D01*
X-264186Y-46304D01*
X-264148Y-46397D01*
X-264117Y-46492D01*
X-264094Y-46526D01*
X-264078Y-46565D01*
X-264015Y-46643D01*
X-263960Y-46726D01*
X-263928Y-46752D01*
X-263902Y-46785D01*
X-263820Y-46842D01*
X-263743Y-46906D01*
X-263705Y-46923D01*
X-263671Y-46947D01*
X-263576Y-46979D01*
X-263484Y-47019D01*
X-263443Y-47024D01*
X-263404Y-47038D01*
X-263304Y-47042D01*
X-263205Y-47055D01*
X-263164Y-47048D01*
X-263122Y-47050D01*
X-263025Y-47027D01*
X-262926Y-47011D01*
X-262888Y-46994D01*
X-262848Y-46984D01*
X-262761Y-46934D01*
X-262671Y-46892D01*
X-262639Y-46864D01*
X-262603Y-46844D01*
X-262544Y-46781D01*
X-262459Y-46705D01*
X-262427Y-46656D01*
X-262392Y-46619D01*
X-259796Y-42811D01*
X-250328Y-35260D01*
X-239054Y-30835D01*
X-226977Y-29930D01*
X-215169Y-32625D01*
X-204681Y-38681D01*
X-196443Y-47559D01*
X-191189Y-58470D01*
X-189384Y-70446D01*
X-191189Y-82422D01*
X-196443Y-93333D01*
X-204681Y-102211D01*
X-215169Y-108267D01*
X-226977Y-110962D01*
X-239054Y-110057D01*
X-248864Y-106206D01*
X-248969Y-106182D01*
X-249073Y-106150D01*
X-249106Y-106149D01*
X-249139Y-106142D01*
X-249246Y-106147D01*
X-249355Y-106145D01*
X-249387Y-106154D01*
X-249420Y-106156D01*
X-249522Y-106191D01*
X-249627Y-106220D01*
X-249655Y-106237D01*
X-249687Y-106248D01*
X-249775Y-106311D01*
X-249867Y-106367D01*
X-249889Y-106392D01*
X-249917Y-106412D01*
X-249984Y-106496D01*
X-250057Y-106576D01*
X-250071Y-106606D01*
X-250092Y-106632D01*
X-250133Y-106732D01*
X-250180Y-106830D01*
X-250186Y-106863D01*
X-250199Y-106894D01*
X-250210Y-107001D01*
X-250228Y-107107D01*
X-250224Y-107139D01*
X-250228Y-107174D01*
X-250201Y-107323D01*
X-250190Y-107413D01*
X-250042Y-107924D01*
X-250018Y-107979D01*
X-250005Y-108030D01*
X-237636Y-137893D01*
X-237605Y-137945D01*
X-237587Y-137994D01*
X-221951Y-166285D01*
X-221915Y-166333D01*
X-221892Y-166380D01*
X-203187Y-192742D01*
X-203145Y-192786D01*
X-203117Y-192829D01*
X-181578Y-216932D01*
X-181532Y-216970D01*
X-181499Y-217011D01*
X-157396Y-238550D01*
X-157346Y-238583D01*
X-157309Y-238620D01*
X-130947Y-257325D01*
X-130893Y-257352D01*
X-130852Y-257384D01*
X-102561Y-273020D01*
X-102505Y-273041D01*
X-102460Y-273069D01*
X-72597Y-285438D01*
X-72538Y-285453D01*
X-72491Y-285475D01*
X-41430Y-294424D01*
X-41370Y-294432D01*
X-41321Y-294449D01*
X-9454Y-299863D01*
X-9393Y-299865D01*
X-9342Y-299876D01*
X22931Y-301688D01*
X22991Y-301683D01*
X23043Y-301688D01*
X55316Y-299876D01*
G37*
%LPC*%
G36*
X-104280Y-249580D02*
X-104280Y-249580D01*
X-105173Y-248687D01*
X-105173Y-246732D01*
X-105182Y-246668D01*
X-105181Y-246604D01*
X-105202Y-246529D01*
X-105213Y-246453D01*
X-105239Y-246394D01*
X-105257Y-246332D01*
X-105297Y-246266D01*
X-105329Y-246196D01*
X-105371Y-246147D01*
X-105405Y-246092D01*
X-105462Y-246040D01*
X-105513Y-245982D01*
X-105566Y-245946D01*
X-105614Y-245903D01*
X-105684Y-245870D01*
X-105749Y-245827D01*
X-105810Y-245808D01*
X-105868Y-245780D01*
X-105937Y-245769D01*
X-106018Y-245745D01*
X-106103Y-245744D01*
X-106172Y-245733D01*
X-137960Y-245733D01*
X-147570Y-236123D01*
X-147570Y-197769D01*
X-145938Y-196137D01*
X-129273Y-179472D01*
X-129259Y-179453D01*
X-129246Y-179442D01*
X-129242Y-179436D01*
X-129229Y-179425D01*
X-129169Y-179334D01*
X-129104Y-179246D01*
X-129092Y-179216D01*
X-129075Y-179189D01*
X-129043Y-179085D01*
X-129004Y-178983D01*
X-129002Y-178950D01*
X-128992Y-178920D01*
X-128991Y-178810D01*
X-128982Y-178701D01*
X-128989Y-178670D01*
X-128989Y-178638D01*
X-129018Y-178532D01*
X-129040Y-178425D01*
X-129055Y-178397D01*
X-129064Y-178366D01*
X-129121Y-178273D01*
X-129172Y-178176D01*
X-129195Y-178153D01*
X-129212Y-178126D01*
X-129293Y-178053D01*
X-129369Y-177974D01*
X-129397Y-177958D01*
X-129421Y-177937D01*
X-129519Y-177889D01*
X-129615Y-177835D01*
X-129646Y-177828D01*
X-129675Y-177814D01*
X-129764Y-177800D01*
X-129889Y-177770D01*
X-129938Y-177773D01*
X-129980Y-177766D01*
X-133763Y-177766D01*
X-133859Y-177780D01*
X-133955Y-177785D01*
X-133998Y-177800D01*
X-134043Y-177806D01*
X-134130Y-177846D01*
X-134221Y-177877D01*
X-134255Y-177902D01*
X-134300Y-177922D01*
X-134397Y-178005D01*
X-134470Y-178059D01*
X-135187Y-178776D01*
X-158760Y-178776D01*
X-158831Y-178786D01*
X-158902Y-178787D01*
X-158969Y-178806D01*
X-159039Y-178816D01*
X-159104Y-178846D01*
X-159172Y-178866D01*
X-159232Y-178903D01*
X-159296Y-178932D01*
X-159350Y-178979D01*
X-159410Y-179017D01*
X-159457Y-179070D01*
X-159510Y-179116D01*
X-159550Y-179175D01*
X-159596Y-179229D01*
X-159626Y-179293D01*
X-159665Y-179352D01*
X-159686Y-179420D01*
X-159716Y-179484D01*
X-159725Y-179548D01*
X-159747Y-179622D01*
X-159749Y-179715D01*
X-159759Y-179790D01*
X-159712Y-183173D01*
X-160593Y-184079D01*
X-162629Y-184107D01*
X-162685Y-184116D01*
X-162743Y-184115D01*
X-162824Y-184138D01*
X-162907Y-184151D01*
X-162959Y-184175D01*
X-163015Y-184190D01*
X-163086Y-184235D01*
X-163163Y-184271D01*
X-163206Y-184308D01*
X-163255Y-184339D01*
X-163311Y-184401D01*
X-163374Y-184457D01*
X-163405Y-184505D01*
X-163444Y-184548D01*
X-163480Y-184624D01*
X-163526Y-184695D01*
X-163542Y-184750D01*
X-163567Y-184802D01*
X-163578Y-184876D01*
X-163604Y-184966D01*
X-163604Y-185043D01*
X-163614Y-185106D01*
X-163614Y-191841D01*
X-163606Y-191899D01*
X-163606Y-191900D01*
X-163605Y-191902D01*
X-163604Y-191910D01*
X-163605Y-191980D01*
X-163584Y-192049D01*
X-163574Y-192120D01*
X-163546Y-192184D01*
X-163526Y-192251D01*
X-163488Y-192312D01*
X-163458Y-192377D01*
X-163413Y-192430D01*
X-163376Y-192489D01*
X-163322Y-192537D01*
X-163275Y-192592D01*
X-163217Y-192630D01*
X-163165Y-192676D01*
X-163099Y-192707D01*
X-163039Y-192746D01*
X-162972Y-192766D01*
X-162909Y-192796D01*
X-162844Y-192806D01*
X-162769Y-192829D01*
X-162678Y-192830D01*
X-162604Y-192840D01*
X-153408Y-192744D01*
X-152505Y-193628D01*
X-152328Y-210543D01*
X-153212Y-211446D01*
X-178394Y-211709D01*
X-179296Y-210826D01*
X-179473Y-193910D01*
X-178590Y-193008D01*
X-169176Y-192909D01*
X-169118Y-192900D01*
X-169059Y-192901D01*
X-168979Y-192879D01*
X-168898Y-192867D01*
X-168844Y-192842D01*
X-168787Y-192826D01*
X-168717Y-192782D01*
X-168642Y-192748D01*
X-168597Y-192709D01*
X-168547Y-192678D01*
X-168492Y-192616D01*
X-168430Y-192562D01*
X-168398Y-192512D01*
X-168358Y-192468D01*
X-168322Y-192394D01*
X-168278Y-192324D01*
X-168261Y-192268D01*
X-168235Y-192215D01*
X-168224Y-192141D01*
X-168198Y-192054D01*
X-168198Y-191975D01*
X-168188Y-191910D01*
X-168188Y-184523D01*
X-168202Y-184421D01*
X-168209Y-184319D01*
X-168222Y-184282D01*
X-168227Y-184244D01*
X-168270Y-184150D01*
X-168305Y-184053D01*
X-168327Y-184024D01*
X-168344Y-183987D01*
X-168435Y-183880D01*
X-168490Y-183807D01*
X-169008Y-183303D01*
X-169197Y-169806D01*
X-168316Y-168901D01*
X-160806Y-168796D01*
X-159900Y-169676D01*
X-159851Y-173218D01*
X-159842Y-173274D01*
X-159843Y-173332D01*
X-159820Y-173413D01*
X-159807Y-173496D01*
X-159783Y-173548D01*
X-159768Y-173603D01*
X-159723Y-173675D01*
X-159687Y-173752D01*
X-159650Y-173795D01*
X-159619Y-173843D01*
X-159557Y-173900D01*
X-159501Y-173963D01*
X-159453Y-173994D01*
X-159410Y-174032D01*
X-159334Y-174069D01*
X-159263Y-174114D01*
X-159208Y-174130D01*
X-159156Y-174155D01*
X-159082Y-174167D01*
X-158992Y-174193D01*
X-158916Y-174193D01*
X-158852Y-174203D01*
X-139286Y-174203D01*
X-139223Y-174194D01*
X-139159Y-174195D01*
X-139084Y-174174D01*
X-139007Y-174163D01*
X-138949Y-174137D01*
X-138887Y-174120D01*
X-138821Y-174079D01*
X-138750Y-174047D01*
X-138702Y-174005D01*
X-138647Y-173971D01*
X-138595Y-173914D01*
X-138536Y-173864D01*
X-138501Y-173810D01*
X-138458Y-173762D01*
X-138424Y-173692D01*
X-138382Y-173628D01*
X-138363Y-173566D01*
X-138335Y-173508D01*
X-138324Y-173439D01*
X-138299Y-173358D01*
X-138298Y-173273D01*
X-138287Y-173204D01*
X-138287Y-167623D01*
X-137394Y-166730D01*
X-126392Y-166730D01*
X-125499Y-167623D01*
X-125499Y-173285D01*
X-125494Y-173317D01*
X-125497Y-173350D01*
X-125474Y-173457D01*
X-125459Y-173565D01*
X-125446Y-173594D01*
X-125439Y-173626D01*
X-125388Y-173722D01*
X-125343Y-173822D01*
X-125322Y-173846D01*
X-125307Y-173875D01*
X-125230Y-173953D01*
X-125159Y-174036D01*
X-125132Y-174054D01*
X-125110Y-174077D01*
X-125015Y-174130D01*
X-124923Y-174190D01*
X-124893Y-174200D01*
X-124864Y-174216D01*
X-124758Y-174241D01*
X-124654Y-174273D01*
X-124621Y-174273D01*
X-124590Y-174281D01*
X-124481Y-174275D01*
X-124372Y-174276D01*
X-124341Y-174268D01*
X-124308Y-174266D01*
X-124205Y-174230D01*
X-124100Y-174201D01*
X-124072Y-174184D01*
X-124042Y-174174D01*
X-123969Y-174120D01*
X-123860Y-174053D01*
X-123827Y-174017D01*
X-123793Y-173992D01*
X-122592Y-172791D01*
X-122535Y-172715D01*
X-122470Y-172643D01*
X-122450Y-172602D01*
X-122423Y-172566D01*
X-122389Y-172476D01*
X-122347Y-172389D01*
X-122341Y-172347D01*
X-122324Y-172302D01*
X-122314Y-172174D01*
X-122300Y-172085D01*
X-122300Y-160185D01*
X-122313Y-160090D01*
X-122318Y-159994D01*
X-122333Y-159951D01*
X-122340Y-159906D01*
X-122379Y-159818D01*
X-122411Y-159728D01*
X-122436Y-159693D01*
X-122456Y-159649D01*
X-122539Y-159552D01*
X-122592Y-159479D01*
X-123548Y-158523D01*
X-123624Y-158466D01*
X-123696Y-158401D01*
X-123737Y-158381D01*
X-123773Y-158354D01*
X-123863Y-158320D01*
X-123950Y-158278D01*
X-123992Y-158272D01*
X-124037Y-158255D01*
X-124165Y-158245D01*
X-124254Y-158231D01*
X-124500Y-158231D01*
X-124563Y-158240D01*
X-124627Y-158239D01*
X-124702Y-158260D01*
X-124779Y-158271D01*
X-124837Y-158297D01*
X-124899Y-158314D01*
X-124965Y-158355D01*
X-125036Y-158387D01*
X-125084Y-158429D01*
X-125139Y-158462D01*
X-125191Y-158520D01*
X-125250Y-158570D01*
X-125285Y-158624D01*
X-125328Y-158672D01*
X-125362Y-158741D01*
X-125404Y-158806D01*
X-125423Y-158868D01*
X-125451Y-158925D01*
X-125462Y-158995D01*
X-125487Y-159076D01*
X-125488Y-159161D01*
X-125499Y-159230D01*
X-125499Y-160569D01*
X-126392Y-161462D01*
X-137394Y-161462D01*
X-138287Y-160569D01*
X-138287Y-159230D01*
X-138296Y-159166D01*
X-138295Y-159102D01*
X-138316Y-159027D01*
X-138327Y-158951D01*
X-138353Y-158892D01*
X-138371Y-158830D01*
X-138411Y-158764D01*
X-138443Y-158694D01*
X-138485Y-158645D01*
X-138519Y-158590D01*
X-138576Y-158538D01*
X-138627Y-158480D01*
X-138680Y-158444D01*
X-138728Y-158401D01*
X-138798Y-158368D01*
X-138863Y-158325D01*
X-138924Y-158306D01*
X-138982Y-158278D01*
X-139051Y-158267D01*
X-139132Y-158243D01*
X-139217Y-158242D01*
X-139286Y-158231D01*
X-149546Y-158231D01*
X-149616Y-158241D01*
X-149688Y-158241D01*
X-149755Y-158261D01*
X-149825Y-158271D01*
X-149890Y-158300D01*
X-149958Y-158320D01*
X-150018Y-158358D01*
X-150082Y-158387D01*
X-150136Y-158433D01*
X-150196Y-158471D01*
X-150243Y-158524D01*
X-150296Y-158570D01*
X-150335Y-158630D01*
X-150382Y-158683D01*
X-150412Y-158747D01*
X-150451Y-158806D01*
X-150472Y-158874D01*
X-150502Y-158939D01*
X-150511Y-159003D01*
X-150533Y-159076D01*
X-150535Y-159169D01*
X-150545Y-159244D01*
X-150510Y-161763D01*
X-151391Y-162668D01*
X-158901Y-162773D01*
X-159807Y-161892D01*
X-159995Y-148396D01*
X-159114Y-147490D01*
X-151604Y-147385D01*
X-150698Y-148266D01*
X-150637Y-152672D01*
X-150628Y-152729D01*
X-150629Y-152786D01*
X-150606Y-152867D01*
X-150593Y-152951D01*
X-150569Y-153002D01*
X-150554Y-153058D01*
X-150509Y-153130D01*
X-150473Y-153206D01*
X-150436Y-153249D01*
X-150405Y-153298D01*
X-150343Y-153354D01*
X-150287Y-153418D01*
X-150239Y-153448D01*
X-150196Y-153487D01*
X-150120Y-153524D01*
X-150049Y-153569D01*
X-149994Y-153585D01*
X-149942Y-153610D01*
X-149868Y-153621D01*
X-149778Y-153647D01*
X-149702Y-153647D01*
X-149638Y-153657D01*
X-139286Y-153657D01*
X-139223Y-153648D01*
X-139159Y-153649D01*
X-139084Y-153628D01*
X-139007Y-153617D01*
X-138949Y-153591D01*
X-138887Y-153574D01*
X-138821Y-153533D01*
X-138750Y-153501D01*
X-138702Y-153459D01*
X-138647Y-153426D01*
X-138595Y-153368D01*
X-138536Y-153318D01*
X-138501Y-153264D01*
X-138458Y-153216D01*
X-138424Y-153147D01*
X-138382Y-153082D01*
X-138363Y-153020D01*
X-138335Y-152963D01*
X-138324Y-152893D01*
X-138299Y-152812D01*
X-138298Y-152727D01*
X-138287Y-152658D01*
X-138287Y-151319D01*
X-137394Y-150426D01*
X-126392Y-150426D01*
X-125499Y-151319D01*
X-125499Y-152658D01*
X-125490Y-152722D01*
X-125491Y-152786D01*
X-125470Y-152861D01*
X-125459Y-152937D01*
X-125433Y-152996D01*
X-125415Y-153058D01*
X-125375Y-153124D01*
X-125343Y-153194D01*
X-125301Y-153243D01*
X-125267Y-153298D01*
X-125210Y-153350D01*
X-125159Y-153408D01*
X-125106Y-153444D01*
X-125058Y-153487D01*
X-124988Y-153520D01*
X-124923Y-153563D01*
X-124862Y-153582D01*
X-124804Y-153610D01*
X-124735Y-153621D01*
X-124654Y-153645D01*
X-124569Y-153646D01*
X-124500Y-153657D01*
X-121946Y-153657D01*
X-117726Y-157877D01*
X-117726Y-174393D01*
X-134162Y-190829D01*
X-134185Y-190859D01*
X-134213Y-190884D01*
X-134269Y-190972D01*
X-134332Y-191055D01*
X-134345Y-191090D01*
X-134365Y-191122D01*
X-134394Y-191221D01*
X-134431Y-191319D01*
X-134434Y-191356D01*
X-134445Y-191392D01*
X-134445Y-191496D01*
X-134453Y-191600D01*
X-134445Y-191637D01*
X-134446Y-191674D01*
X-134417Y-191774D01*
X-134395Y-191876D01*
X-134378Y-191909D01*
X-134367Y-191945D01*
X-134312Y-192033D01*
X-134263Y-192125D01*
X-134237Y-192152D01*
X-134217Y-192184D01*
X-134139Y-192252D01*
X-134066Y-192327D01*
X-134034Y-192346D01*
X-134006Y-192370D01*
X-133911Y-192415D01*
X-133821Y-192466D01*
X-133784Y-192475D01*
X-133750Y-192491D01*
X-133663Y-192503D01*
X-133546Y-192531D01*
X-133492Y-192528D01*
X-133445Y-192535D01*
X-111252Y-192303D01*
X-110350Y-193186D01*
X-110296Y-198272D01*
X-110288Y-198330D01*
X-110288Y-198389D01*
X-110266Y-198469D01*
X-110254Y-198550D01*
X-110229Y-198604D01*
X-110213Y-198661D01*
X-110170Y-198731D01*
X-110135Y-198806D01*
X-110096Y-198851D01*
X-110065Y-198901D01*
X-110004Y-198956D01*
X-109949Y-199019D01*
X-109900Y-199050D01*
X-109856Y-199090D01*
X-109781Y-199126D01*
X-109712Y-199171D01*
X-109655Y-199187D01*
X-109602Y-199213D01*
X-109528Y-199224D01*
X-109441Y-199250D01*
X-109362Y-199250D01*
X-109297Y-199261D01*
X-98792Y-199261D01*
X-98766Y-199257D01*
X-98740Y-199259D01*
X-98627Y-199237D01*
X-98513Y-199221D01*
X-98489Y-199210D01*
X-98463Y-199205D01*
X-98361Y-199152D01*
X-98256Y-199104D01*
X-98236Y-199087D01*
X-98213Y-199075D01*
X-98129Y-198996D01*
X-98042Y-198921D01*
X-98028Y-198899D01*
X-98009Y-198881D01*
X-97951Y-198782D01*
X-97888Y-198685D01*
X-97880Y-198660D01*
X-97867Y-198637D01*
X-97839Y-198525D01*
X-97805Y-198415D01*
X-97805Y-198389D01*
X-97798Y-198364D01*
X-97803Y-198249D01*
X-97801Y-198133D01*
X-97808Y-198108D01*
X-97809Y-198082D01*
X-97846Y-197972D01*
X-97846Y-197971D01*
X-97752Y-190227D01*
X-92330Y-184936D01*
X-84755Y-185029D01*
X-79464Y-190450D01*
X-79556Y-198026D01*
X-84978Y-203317D01*
X-92553Y-203224D01*
X-92651Y-203124D01*
X-92707Y-203081D01*
X-92756Y-203031D01*
X-92818Y-202996D01*
X-92874Y-202952D01*
X-92940Y-202926D01*
X-93001Y-202892D01*
X-93070Y-202875D01*
X-93137Y-202849D01*
X-93207Y-202843D01*
X-93275Y-202827D01*
X-93347Y-202830D01*
X-93418Y-202824D01*
X-93487Y-202838D01*
X-93557Y-202841D01*
X-93625Y-202865D01*
X-93695Y-202878D01*
X-93757Y-202911D01*
X-93824Y-202934D01*
X-93876Y-202972D01*
X-93945Y-203008D01*
X-94012Y-203071D01*
X-94073Y-203115D01*
X-95267Y-204310D01*
X-109223Y-204310D01*
X-109292Y-204320D01*
X-109362Y-204320D01*
X-109431Y-204340D01*
X-109503Y-204350D01*
X-109566Y-204378D01*
X-109633Y-204398D01*
X-109694Y-204436D01*
X-109760Y-204466D01*
X-109812Y-204511D01*
X-109871Y-204548D01*
X-109919Y-204602D01*
X-109974Y-204649D01*
X-110012Y-204708D01*
X-110058Y-204760D01*
X-110089Y-204825D01*
X-110128Y-204885D01*
X-110149Y-204952D01*
X-110178Y-205015D01*
X-110188Y-205080D01*
X-110211Y-205155D01*
X-110212Y-205246D01*
X-110223Y-205320D01*
X-110173Y-210102D01*
X-111056Y-211004D01*
X-136238Y-211268D01*
X-137141Y-210384D01*
X-137287Y-196356D01*
X-137292Y-196330D01*
X-137289Y-196303D01*
X-137313Y-196191D01*
X-137330Y-196077D01*
X-137342Y-196053D01*
X-137347Y-196027D01*
X-137401Y-195926D01*
X-137449Y-195822D01*
X-137467Y-195801D01*
X-137479Y-195778D01*
X-137559Y-195696D01*
X-137635Y-195609D01*
X-137657Y-195595D01*
X-137676Y-195576D01*
X-137776Y-195519D01*
X-137872Y-195457D01*
X-137898Y-195450D01*
X-137922Y-195436D01*
X-138033Y-195410D01*
X-138143Y-195378D01*
X-138170Y-195378D01*
X-138196Y-195372D01*
X-138311Y-195377D01*
X-138425Y-195377D01*
X-138451Y-195385D01*
X-138478Y-195386D01*
X-138586Y-195423D01*
X-138696Y-195455D01*
X-138719Y-195470D01*
X-138744Y-195478D01*
X-138818Y-195532D01*
X-138934Y-195606D01*
X-138963Y-195638D01*
X-138993Y-195660D01*
X-142704Y-199371D01*
X-142761Y-199447D01*
X-142826Y-199519D01*
X-142846Y-199560D01*
X-142873Y-199596D01*
X-142907Y-199686D01*
X-142949Y-199773D01*
X-142955Y-199815D01*
X-142972Y-199860D01*
X-142982Y-199988D01*
X-142996Y-200077D01*
X-142996Y-233815D01*
X-142983Y-233910D01*
X-142978Y-234006D01*
X-142963Y-234049D01*
X-142956Y-234094D01*
X-142917Y-234182D01*
X-142885Y-234272D01*
X-142860Y-234307D01*
X-142840Y-234351D01*
X-142757Y-234448D01*
X-142704Y-234521D01*
X-136358Y-240867D01*
X-136282Y-240924D01*
X-136210Y-240989D01*
X-136169Y-241009D01*
X-136133Y-241036D01*
X-136043Y-241070D01*
X-135956Y-241112D01*
X-135914Y-241118D01*
X-135869Y-241135D01*
X-135741Y-241145D01*
X-135652Y-241159D01*
X-106172Y-241159D01*
X-106109Y-241150D01*
X-106045Y-241151D01*
X-105970Y-241130D01*
X-105893Y-241119D01*
X-105835Y-241093D01*
X-105773Y-241076D01*
X-105707Y-241035D01*
X-105636Y-241003D01*
X-105588Y-240961D01*
X-105533Y-240928D01*
X-105481Y-240870D01*
X-105422Y-240820D01*
X-105387Y-240766D01*
X-105344Y-240718D01*
X-105310Y-240649D01*
X-105268Y-240584D01*
X-105249Y-240522D01*
X-105221Y-240465D01*
X-105210Y-240395D01*
X-105185Y-240314D01*
X-105184Y-240229D01*
X-105173Y-240160D01*
X-105173Y-237685D01*
X-104280Y-236792D01*
X-95030Y-236792D01*
X-94137Y-237685D01*
X-94137Y-248687D01*
X-95030Y-249580D01*
X-104280Y-249580D01*
G37*
%LPD*%
G36*
X57777Y-201152D02*
X57777Y-201152D01*
X57831Y-201154D01*
X57916Y-201132D01*
X58004Y-201119D01*
X58052Y-201097D01*
X58104Y-201084D01*
X58180Y-201039D01*
X58261Y-201003D01*
X58301Y-200968D01*
X58348Y-200941D01*
X58408Y-200877D01*
X58475Y-200820D01*
X58504Y-200775D01*
X58541Y-200736D01*
X58581Y-200658D01*
X58629Y-200584D01*
X58645Y-200533D01*
X58669Y-200485D01*
X58686Y-200398D01*
X58712Y-200314D01*
X58712Y-200261D01*
X58722Y-200208D01*
X58714Y-200130D01*
X58715Y-200032D01*
X58696Y-199962D01*
X58690Y-199901D01*
X58596Y-199551D01*
X58596Y-196365D01*
X64741Y-196365D01*
X64805Y-196356D01*
X64869Y-196357D01*
X64943Y-196336D01*
X65020Y-196325D01*
X65079Y-196299D01*
X65141Y-196282D01*
X65207Y-196241D01*
X65277Y-196209D01*
X65326Y-196167D01*
X65381Y-196134D01*
X65432Y-196076D01*
X65491Y-196026D01*
X65527Y-195972D01*
X65570Y-195924D01*
X65603Y-195855D01*
X65646Y-195790D01*
X65665Y-195728D01*
X65693Y-195671D01*
X65703Y-195601D01*
X65728Y-195520D01*
X65729Y-195435D01*
X65740Y-195366D01*
X65740Y-194365D01*
X65742Y-194365D01*
X65742Y-195366D01*
X65751Y-195430D01*
X65750Y-195494D01*
X65771Y-195569D01*
X65782Y-195645D01*
X65808Y-195704D01*
X65825Y-195766D01*
X65866Y-195832D01*
X65898Y-195902D01*
X65940Y-195951D01*
X65973Y-196006D01*
X66031Y-196058D01*
X66081Y-196116D01*
X66135Y-196152D01*
X66183Y-196195D01*
X66252Y-196228D01*
X66317Y-196271D01*
X66379Y-196290D01*
X66437Y-196318D01*
X66506Y-196328D01*
X66587Y-196353D01*
X66672Y-196354D01*
X66741Y-196365D01*
X72886Y-196365D01*
X72886Y-199552D01*
X72792Y-199901D01*
X72786Y-199955D01*
X72770Y-200006D01*
X72769Y-200094D01*
X72759Y-200181D01*
X72767Y-200234D01*
X72767Y-200288D01*
X72790Y-200373D01*
X72804Y-200460D01*
X72828Y-200508D01*
X72842Y-200560D01*
X72888Y-200635D01*
X72926Y-200714D01*
X72962Y-200754D01*
X72990Y-200800D01*
X73055Y-200859D01*
X73114Y-200924D01*
X73159Y-200953D01*
X73199Y-200989D01*
X73279Y-201027D01*
X73353Y-201074D01*
X73405Y-201088D01*
X73453Y-201112D01*
X73531Y-201124D01*
X73625Y-201150D01*
X73697Y-201150D01*
X73758Y-201159D01*
X74105Y-201159D01*
X74168Y-201150D01*
X74232Y-201151D01*
X74307Y-201130D01*
X74384Y-201119D01*
X74442Y-201093D01*
X74504Y-201076D01*
X74570Y-201035D01*
X74641Y-201003D01*
X74689Y-200961D01*
X74744Y-200928D01*
X74796Y-200870D01*
X74855Y-200820D01*
X74890Y-200766D01*
X74933Y-200718D01*
X74967Y-200649D01*
X75009Y-200584D01*
X75028Y-200522D01*
X75056Y-200465D01*
X75067Y-200395D01*
X75092Y-200314D01*
X75093Y-200229D01*
X75104Y-200160D01*
X75104Y-188883D01*
X75997Y-187990D01*
X77947Y-187990D01*
X78011Y-187981D01*
X78075Y-187982D01*
X78150Y-187961D01*
X78226Y-187950D01*
X78285Y-187924D01*
X78347Y-187907D01*
X78413Y-187866D01*
X78483Y-187834D01*
X78532Y-187792D01*
X78587Y-187759D01*
X78639Y-187701D01*
X78697Y-187651D01*
X78733Y-187597D01*
X78776Y-187549D01*
X78809Y-187480D01*
X78852Y-187415D01*
X78871Y-187353D01*
X78899Y-187296D01*
X78910Y-187226D01*
X78934Y-187145D01*
X78935Y-187060D01*
X78946Y-186991D01*
X78946Y-167216D01*
X78938Y-167161D01*
X78940Y-167105D01*
X78919Y-167022D01*
X78906Y-166937D01*
X78884Y-166886D01*
X78870Y-166832D01*
X78826Y-166758D01*
X78790Y-166680D01*
X78754Y-166637D01*
X78726Y-166590D01*
X78663Y-166531D01*
X78607Y-166465D01*
X78560Y-166435D01*
X78520Y-166397D01*
X78443Y-166358D01*
X78371Y-166311D01*
X78318Y-166295D01*
X78268Y-166270D01*
X78192Y-166256D01*
X78163Y-166247D01*
X76827Y-164864D01*
X77145Y-146623D01*
X77136Y-146551D01*
X77137Y-146478D01*
X77119Y-146412D01*
X77110Y-146344D01*
X77082Y-146277D01*
X77062Y-146206D01*
X77026Y-146148D01*
X76999Y-146085D01*
X76952Y-146028D01*
X76914Y-145966D01*
X76863Y-145920D01*
X76819Y-145867D01*
X76759Y-145826D01*
X76705Y-145777D01*
X76643Y-145747D01*
X76586Y-145709D01*
X76516Y-145686D01*
X76451Y-145654D01*
X76388Y-145645D01*
X76318Y-145622D01*
X76222Y-145619D01*
X76146Y-145607D01*
X75510Y-145607D01*
X75455Y-145615D01*
X75399Y-145613D01*
X75316Y-145634D01*
X75231Y-145647D01*
X75180Y-145669D01*
X75126Y-145683D01*
X75052Y-145727D01*
X74974Y-145763D01*
X74932Y-145799D01*
X74884Y-145827D01*
X74825Y-145890D01*
X74760Y-145946D01*
X74729Y-145993D01*
X74691Y-146033D01*
X74652Y-146110D01*
X74605Y-146182D01*
X74589Y-146235D01*
X74564Y-146285D01*
X74551Y-146361D01*
X74523Y-146452D01*
X74522Y-146526D01*
X74511Y-146589D01*
X74394Y-153278D01*
X69354Y-153190D01*
X69291Y-153198D01*
X69226Y-153196D01*
X69151Y-153216D01*
X69075Y-153225D01*
X69015Y-153251D01*
X68953Y-153267D01*
X68887Y-153306D01*
X68816Y-153337D01*
X68766Y-153378D01*
X68711Y-153411D01*
X68658Y-153467D01*
X68598Y-153517D01*
X68562Y-153570D01*
X68518Y-153617D01*
X68483Y-153686D01*
X68440Y-153750D01*
X68420Y-153811D01*
X68391Y-153868D01*
X68379Y-153938D01*
X68353Y-154018D01*
X68350Y-154103D01*
X68338Y-154172D01*
X68338Y-154173D01*
X68337Y-154173D01*
X68273Y-154181D01*
X68209Y-154179D01*
X68134Y-154198D01*
X68057Y-154208D01*
X67998Y-154233D01*
X67936Y-154249D01*
X67869Y-154289D01*
X67798Y-154320D01*
X67748Y-154361D01*
X67693Y-154393D01*
X67640Y-154450D01*
X67581Y-154499D01*
X67544Y-154553D01*
X67501Y-154599D01*
X67466Y-154669D01*
X67422Y-154733D01*
X67402Y-154794D01*
X67373Y-154851D01*
X67361Y-154920D01*
X67335Y-155001D01*
X67332Y-155085D01*
X67320Y-155155D01*
X67113Y-167043D01*
X65929Y-167023D01*
X65096Y-166784D01*
X64353Y-166338D01*
X63752Y-165714D01*
X63331Y-164957D01*
X63122Y-164116D01*
X63260Y-156215D01*
X63255Y-156174D01*
X63258Y-156134D01*
X63237Y-156035D01*
X63225Y-155935D01*
X63209Y-155897D01*
X63200Y-155857D01*
X63153Y-155769D01*
X63113Y-155676D01*
X63087Y-155645D01*
X63068Y-155608D01*
X62997Y-155536D01*
X62933Y-155459D01*
X62900Y-155436D01*
X62871Y-155406D01*
X62783Y-155357D01*
X62700Y-155300D01*
X62661Y-155288D01*
X62626Y-155267D01*
X62528Y-155244D01*
X62432Y-155213D01*
X62391Y-155212D01*
X62351Y-155202D01*
X62251Y-155208D01*
X62150Y-155204D01*
X62110Y-155215D01*
X62070Y-155217D01*
X61974Y-155250D01*
X61877Y-155275D01*
X61842Y-155296D01*
X61803Y-155309D01*
X61733Y-155360D01*
X61635Y-155419D01*
X61595Y-155461D01*
X61554Y-155491D01*
X48302Y-168744D01*
X48301Y-168744D01*
X47411Y-169634D01*
X47391Y-169660D01*
X47367Y-169681D01*
X47307Y-169773D01*
X47241Y-169860D01*
X47230Y-169890D01*
X47212Y-169917D01*
X47180Y-170022D01*
X47142Y-170124D01*
X47139Y-170156D01*
X47130Y-170187D01*
X47128Y-170296D01*
X47120Y-170405D01*
X47127Y-170437D01*
X47126Y-170469D01*
X47155Y-170574D01*
X47178Y-170681D01*
X47193Y-170710D01*
X47201Y-170741D01*
X47259Y-170834D01*
X47310Y-170930D01*
X47333Y-170953D01*
X47350Y-170981D01*
X47430Y-171054D01*
X47507Y-171132D01*
X47535Y-171148D01*
X47559Y-171170D01*
X47657Y-171217D01*
X47752Y-171271D01*
X47784Y-171279D01*
X47813Y-171293D01*
X47902Y-171307D01*
X48027Y-171336D01*
X48075Y-171334D01*
X48117Y-171340D01*
X54418Y-171340D01*
X55311Y-172233D01*
X55311Y-184769D01*
X54418Y-185662D01*
X53153Y-185662D01*
X53089Y-185671D01*
X53025Y-185670D01*
X52950Y-185691D01*
X52874Y-185702D01*
X52815Y-185728D01*
X52753Y-185745D01*
X52687Y-185786D01*
X52617Y-185818D01*
X52568Y-185860D01*
X52513Y-185893D01*
X52461Y-185951D01*
X52403Y-186001D01*
X52367Y-186055D01*
X52324Y-186103D01*
X52291Y-186172D01*
X52248Y-186237D01*
X52229Y-186299D01*
X52201Y-186356D01*
X52190Y-186426D01*
X52166Y-186507D01*
X52165Y-186592D01*
X52154Y-186661D01*
X52154Y-198965D01*
X52167Y-199060D01*
X52172Y-199156D01*
X52187Y-199199D01*
X52194Y-199244D01*
X52233Y-199332D01*
X52265Y-199423D01*
X52290Y-199457D01*
X52310Y-199501D01*
X52393Y-199598D01*
X52446Y-199671D01*
X53642Y-200867D01*
X53718Y-200924D01*
X53790Y-200989D01*
X53831Y-201009D01*
X53867Y-201036D01*
X53957Y-201070D01*
X54043Y-201112D01*
X54086Y-201118D01*
X54131Y-201135D01*
X54259Y-201145D01*
X54348Y-201159D01*
X57724Y-201159D01*
X57777Y-201152D01*
G37*
%LPC*%
G36*
X-142428Y102649D02*
X-142428Y102649D01*
X-145760Y104029D01*
X-148310Y106579D01*
X-149690Y109911D01*
X-149690Y113517D01*
X-148766Y115748D01*
X-148763Y115758D01*
X-148759Y115766D01*
X-148728Y115895D01*
X-148696Y116022D01*
X-148696Y116031D01*
X-148694Y116040D01*
X-148701Y116173D01*
X-148705Y116303D01*
X-148708Y116312D01*
X-148708Y116322D01*
X-148751Y116447D01*
X-148792Y116572D01*
X-148798Y116579D01*
X-148801Y116588D01*
X-148846Y116651D01*
X-148951Y116805D01*
X-148970Y116820D01*
X-148982Y116837D01*
X-162964Y130819D01*
X-162964Y141710D01*
X-162973Y141773D01*
X-162972Y141837D01*
X-162993Y141912D01*
X-163004Y141989D01*
X-163030Y142047D01*
X-163048Y142109D01*
X-163088Y142175D01*
X-163120Y142246D01*
X-163162Y142294D01*
X-163196Y142349D01*
X-163253Y142401D01*
X-163304Y142460D01*
X-163357Y142495D01*
X-163405Y142538D01*
X-163475Y142572D01*
X-163540Y142614D01*
X-163601Y142633D01*
X-163659Y142661D01*
X-163728Y142672D01*
X-163809Y142697D01*
X-163894Y142698D01*
X-163963Y142709D01*
X-166160Y142709D01*
X-167053Y143602D01*
X-167053Y154074D01*
X-166160Y154967D01*
X-155195Y154967D01*
X-154302Y154074D01*
X-154302Y143602D01*
X-155195Y142709D01*
X-157392Y142709D01*
X-157455Y142700D01*
X-157519Y142701D01*
X-157594Y142680D01*
X-157671Y142669D01*
X-157729Y142643D01*
X-157791Y142625D01*
X-157857Y142585D01*
X-157928Y142553D01*
X-157976Y142511D01*
X-158031Y142477D01*
X-158083Y142420D01*
X-158142Y142369D01*
X-158177Y142316D01*
X-158220Y142268D01*
X-158254Y142198D01*
X-158296Y142133D01*
X-158315Y142072D01*
X-158343Y142014D01*
X-158354Y141945D01*
X-158379Y141864D01*
X-158380Y141779D01*
X-158391Y141710D01*
X-158391Y133127D01*
X-158377Y133032D01*
X-158372Y132936D01*
X-158357Y132893D01*
X-158351Y132848D01*
X-158311Y132761D01*
X-158280Y132670D01*
X-158255Y132635D01*
X-158235Y132591D01*
X-158151Y132494D01*
X-158098Y132421D01*
X-145748Y120071D01*
X-145741Y120066D01*
X-145735Y120058D01*
X-145628Y119981D01*
X-145523Y119902D01*
X-145514Y119899D01*
X-145506Y119893D01*
X-145383Y119849D01*
X-145259Y119802D01*
X-145250Y119802D01*
X-145241Y119799D01*
X-145109Y119791D01*
X-144978Y119781D01*
X-144969Y119783D01*
X-144959Y119782D01*
X-144884Y119800D01*
X-144702Y119838D01*
X-144681Y119850D01*
X-144660Y119855D01*
X-142428Y120779D01*
X-138822Y120779D01*
X-135490Y119399D01*
X-132941Y116849D01*
X-131561Y113517D01*
X-131561Y109911D01*
X-132941Y106579D01*
X-135490Y104029D01*
X-138822Y102649D01*
X-142428Y102649D01*
G37*
%LPD*%
%LPC*%
G36*
X-178805Y-162158D02*
X-178805Y-162158D01*
X-178993Y-148661D01*
X-178113Y-147755D01*
X-177523Y-147747D01*
X-177466Y-147738D01*
X-177409Y-147739D01*
X-177327Y-147717D01*
X-177244Y-147703D01*
X-177192Y-147679D01*
X-177137Y-147664D01*
X-177065Y-147619D01*
X-176989Y-147584D01*
X-176946Y-147546D01*
X-176897Y-147516D01*
X-176840Y-147453D01*
X-176777Y-147397D01*
X-176746Y-147349D01*
X-176708Y-147306D01*
X-176671Y-147230D01*
X-176626Y-147159D01*
X-176610Y-147104D01*
X-176585Y-147053D01*
X-176573Y-146978D01*
X-176547Y-146888D01*
X-176547Y-146812D01*
X-176537Y-146748D01*
X-176537Y-138903D01*
X-176539Y-138893D01*
X-176538Y-138884D01*
X-176559Y-138754D01*
X-176577Y-138623D01*
X-176581Y-138615D01*
X-176583Y-138605D01*
X-176639Y-138486D01*
X-176693Y-138366D01*
X-176700Y-138359D01*
X-176704Y-138351D01*
X-176791Y-138252D01*
X-176877Y-138152D01*
X-176885Y-138147D01*
X-176891Y-138140D01*
X-176957Y-138100D01*
X-177113Y-137998D01*
X-177136Y-137991D01*
X-177154Y-137979D01*
X-179010Y-137211D01*
X-181560Y-134661D01*
X-182940Y-131329D01*
X-182940Y-127723D01*
X-181560Y-124391D01*
X-179010Y-121841D01*
X-175678Y-120461D01*
X-172072Y-120461D01*
X-168740Y-121841D01*
X-166190Y-124391D01*
X-164810Y-127723D01*
X-164810Y-131329D01*
X-166190Y-134661D01*
X-168740Y-137211D01*
X-171347Y-138291D01*
X-171355Y-138295D01*
X-171364Y-138298D01*
X-171477Y-138367D01*
X-171590Y-138434D01*
X-171596Y-138441D01*
X-171604Y-138446D01*
X-171693Y-138545D01*
X-171783Y-138640D01*
X-171787Y-138648D01*
X-171793Y-138655D01*
X-171851Y-138774D01*
X-171910Y-138891D01*
X-171912Y-138901D01*
X-171916Y-138909D01*
X-171928Y-138985D01*
X-171963Y-139169D01*
X-171961Y-139192D01*
X-171964Y-139214D01*
X-171964Y-146656D01*
X-171954Y-146727D01*
X-171954Y-146798D01*
X-171934Y-146866D01*
X-171924Y-146935D01*
X-171895Y-147000D01*
X-171875Y-147069D01*
X-171837Y-147128D01*
X-171808Y-147192D01*
X-171762Y-147246D01*
X-171723Y-147307D01*
X-171670Y-147353D01*
X-171624Y-147407D01*
X-171565Y-147446D01*
X-171511Y-147493D01*
X-171448Y-147522D01*
X-171389Y-147561D01*
X-171320Y-147582D01*
X-171256Y-147612D01*
X-171192Y-147621D01*
X-171119Y-147644D01*
X-171026Y-147645D01*
X-170951Y-147655D01*
X-170602Y-147651D01*
X-169697Y-148531D01*
X-169508Y-162028D01*
X-170389Y-162933D01*
X-177899Y-163038D01*
X-178805Y-162158D01*
G37*
%LPD*%
%LPC*%
G36*
X-226766Y81759D02*
X-226766Y81759D01*
X-226839Y92231D01*
X-226463Y92612D01*
X-226420Y92671D01*
X-226369Y92723D01*
X-226336Y92784D01*
X-226295Y92839D01*
X-226270Y92908D01*
X-226236Y92972D01*
X-226222Y93039D01*
X-226198Y93104D01*
X-226193Y93177D01*
X-226178Y93248D01*
X-226183Y93317D01*
X-226178Y93385D01*
X-226193Y93456D01*
X-226199Y93529D01*
X-226223Y93594D01*
X-226237Y93661D01*
X-226272Y93725D01*
X-226298Y93793D01*
X-226336Y93843D01*
X-226372Y93909D01*
X-226439Y93977D01*
X-226486Y94038D01*
X-226713Y94255D01*
X-226939Y103502D01*
X-226068Y104417D01*
X-215069Y104685D01*
X-214154Y103814D01*
X-213929Y94567D01*
X-214432Y94038D01*
X-214464Y93993D01*
X-214504Y93954D01*
X-214546Y93879D01*
X-214596Y93809D01*
X-214614Y93756D01*
X-214641Y93708D01*
X-214660Y93624D01*
X-214689Y93542D01*
X-214692Y93487D01*
X-214704Y93433D01*
X-214699Y93347D01*
X-214704Y93261D01*
X-214691Y93207D01*
X-214688Y93151D01*
X-214659Y93070D01*
X-214639Y92986D01*
X-214612Y92938D01*
X-214593Y92885D01*
X-214548Y92824D01*
X-214501Y92740D01*
X-214448Y92688D01*
X-214410Y92638D01*
X-214088Y92320D01*
X-214015Y81848D01*
X-214902Y80949D01*
X-225867Y80872D01*
X-226766Y81759D01*
G37*
%LPD*%
%LPC*%
G36*
X8729Y-229863D02*
X8729Y-229863D01*
X3438Y-224442D01*
X3530Y-216866D01*
X8952Y-211575D01*
X16527Y-211668D01*
X21818Y-217090D01*
X21726Y-224665D01*
X16304Y-229956D01*
X8729Y-229863D01*
G37*
%LPD*%
%LPC*%
G36*
X-16359Y-204155D02*
X-16359Y-204155D01*
X-21650Y-198733D01*
X-21557Y-191158D01*
X-16136Y-185867D01*
X-8560Y-185959D01*
X-3269Y-191381D01*
X-3362Y-198957D01*
X-8784Y-204248D01*
X-16359Y-204155D01*
G37*
%LPD*%
%LPC*%
G36*
X-205518Y81989D02*
X-205518Y81989D01*
X-208298Y83141D01*
X-210426Y85269D01*
X-211578Y88049D01*
X-211578Y91059D01*
X-210426Y93839D01*
X-208298Y95967D01*
X-205518Y97119D01*
X-202508Y97119D01*
X-199728Y95967D01*
X-197600Y93839D01*
X-196448Y91059D01*
X-196448Y88049D01*
X-197600Y85269D01*
X-199728Y83141D01*
X-202508Y81989D01*
X-205518Y81989D01*
G37*
%LPD*%
%LPC*%
G36*
X-224576Y-21555D02*
X-224576Y-21555D01*
X-226228Y-21018D01*
X-227777Y-20229D01*
X-229183Y-19207D01*
X-230412Y-17978D01*
X-231433Y-16572D01*
X-232222Y-15024D01*
X-232759Y-13371D01*
X-232858Y-12747D01*
X-223996Y-12778D01*
X-224027Y-21641D01*
X-224576Y-21555D01*
G37*
%LPD*%
%LPC*%
G36*
X-219998Y-12792D02*
X-219998Y-12792D01*
X-211135Y-12823D01*
X-211221Y-13371D01*
X-211758Y-15024D01*
X-212547Y-16572D01*
X-213569Y-17978D01*
X-214798Y-19207D01*
X-216204Y-20229D01*
X-217752Y-21018D01*
X-219405Y-21555D01*
X-220029Y-21653D01*
X-219998Y-12792D01*
G37*
%LPD*%
%LPC*%
G36*
X-232846Y-8749D02*
X-232846Y-8749D01*
X-232759Y-8200D01*
X-232222Y-6548D01*
X-231433Y-4999D01*
X-230412Y-3593D01*
X-229183Y-2364D01*
X-227777Y-1343D01*
X-226228Y-554D01*
X-224576Y-17D01*
X-223952Y82D01*
X-223982Y-8779D01*
X-232846Y-8749D01*
G37*
%LPD*%
%LPC*%
G36*
X-219984Y-8793D02*
X-219984Y-8793D01*
X-219953Y70D01*
X-219405Y-17D01*
X-217752Y-554D01*
X-216204Y-1343D01*
X-214798Y-2364D01*
X-213569Y-3593D01*
X-212547Y-4999D01*
X-211758Y-6548D01*
X-211221Y-8200D01*
X-211123Y-8824D01*
X-219984Y-8793D01*
G37*
%LPD*%
%LPC*%
G36*
X14813Y-205552D02*
X14813Y-205552D01*
X14913Y-197391D01*
X23074Y-197491D01*
X23047Y-199700D01*
X17023Y-205579D01*
X14813Y-205552D01*
G37*
%LPD*%
%LPC*%
G36*
X-93297Y-229633D02*
X-93297Y-229633D01*
X-99176Y-223609D01*
X-99149Y-221399D01*
X-90988Y-221499D01*
X-91088Y-229660D01*
X-93297Y-229633D01*
G37*
%LPD*%
%LPC*%
G36*
X14962Y-193393D02*
X14962Y-193393D01*
X15062Y-185232D01*
X17271Y-185259D01*
X23150Y-191283D01*
X23123Y-193493D01*
X14962Y-193393D01*
G37*
%LPD*%
%LPC*%
G36*
X-99100Y-217401D02*
X-99100Y-217401D01*
X-99073Y-215192D01*
X-93049Y-209313D01*
X-90839Y-209340D01*
X-90939Y-217501D01*
X-99100Y-217401D01*
G37*
%LPD*%
%LPC*%
G36*
X8606Y-205476D02*
X8606Y-205476D01*
X2727Y-199452D01*
X2754Y-197242D01*
X10915Y-197342D01*
X10815Y-205503D01*
X8606Y-205476D01*
G37*
%LPD*%
%LPC*%
G36*
X-87089Y-229709D02*
X-87089Y-229709D01*
X-86990Y-221548D01*
X-78829Y-221648D01*
X-78856Y-223857D01*
X-84880Y-229736D01*
X-87089Y-229709D01*
G37*
%LPD*%
%LPC*%
G36*
X2803Y-193244D02*
X2803Y-193244D01*
X2830Y-191035D01*
X8854Y-185156D01*
X11063Y-185183D01*
X10964Y-193344D01*
X2803Y-193244D01*
G37*
%LPD*%
%LPC*%
G36*
X-86941Y-217550D02*
X-86941Y-217550D01*
X-86841Y-209389D01*
X-84632Y-209416D01*
X-78753Y-215440D01*
X-78780Y-217649D01*
X-86941Y-217550D01*
G37*
%LPD*%
%LPC*%
G36*
X-150836Y-139492D02*
X-150836Y-139492D01*
X-152345Y-139001D01*
X-153759Y-138281D01*
X-155042Y-137348D01*
X-156164Y-136226D01*
X-157097Y-134943D01*
X-157817Y-133529D01*
X-158308Y-132020D01*
X-158373Y-131607D01*
X-150485Y-131648D01*
X-150526Y-139541D01*
X-150836Y-139492D01*
G37*
%LPD*%
%LPC*%
G36*
X-146486Y-131669D02*
X-146486Y-131669D01*
X-138594Y-131710D01*
X-138643Y-132020D01*
X-139133Y-133529D01*
X-139853Y-134943D01*
X-140786Y-136226D01*
X-141908Y-137348D01*
X-143192Y-138281D01*
X-144606Y-139001D01*
X-146115Y-139492D01*
X-146528Y-139557D01*
X-146486Y-131669D01*
G37*
%LPD*%
%LPC*%
G36*
X-158357Y-127608D02*
X-158357Y-127608D01*
X-158308Y-127299D01*
X-157817Y-125790D01*
X-157097Y-124376D01*
X-156164Y-123092D01*
X-155042Y-121970D01*
X-153759Y-121037D01*
X-152345Y-120317D01*
X-150836Y-119827D01*
X-150423Y-119761D01*
X-150464Y-127649D01*
X-158357Y-127608D01*
G37*
%LPD*%
%LPC*%
G36*
X-146466Y-127670D02*
X-146466Y-127670D01*
X-146424Y-119778D01*
X-146115Y-119827D01*
X-144606Y-120317D01*
X-143192Y-121037D01*
X-141908Y-121970D01*
X-140786Y-123092D01*
X-139853Y-124376D01*
X-139133Y-125790D01*
X-138643Y-127299D01*
X-138577Y-127712D01*
X-146466Y-127670D01*
G37*
%LPD*%
%LPC*%
G36*
X70111Y-167096D02*
X70111Y-167096D01*
X70301Y-156206D01*
X74342Y-156276D01*
X74202Y-164309D01*
X73963Y-165142D01*
X73517Y-165885D01*
X72893Y-166487D01*
X72135Y-166907D01*
X71295Y-167116D01*
X70111Y-167096D01*
G37*
%LPD*%
%LPC*%
G36*
X-25412Y196553D02*
X-25412Y196553D01*
X-25412Y199740D01*
X-25239Y200386D01*
X-24905Y200965D01*
X-24432Y201438D01*
X-23852Y201773D01*
X-23206Y201946D01*
X-20266Y201946D01*
X-20266Y196553D01*
X-25412Y196553D01*
G37*
%LPD*%
%LPC*%
G36*
X67740Y-192367D02*
X67740Y-192367D01*
X67740Y-186974D01*
X70680Y-186974D01*
X71326Y-187147D01*
X71906Y-187482D01*
X72379Y-187955D01*
X72713Y-188534D01*
X72886Y-189180D01*
X72886Y-192367D01*
X67740Y-192367D01*
G37*
%LPD*%
%LPC*%
G36*
X76564Y-219928D02*
X76564Y-219928D01*
X75918Y-219755D01*
X75338Y-219420D01*
X74865Y-218947D01*
X74531Y-218368D01*
X74358Y-217722D01*
X74358Y-214535D01*
X79504Y-214535D01*
X79504Y-219928D01*
X76564Y-219928D01*
G37*
%LPD*%
%LPC*%
G36*
X58596Y-192367D02*
X58596Y-192367D01*
X58596Y-189180D01*
X58769Y-188534D01*
X59103Y-187955D01*
X59576Y-187482D01*
X60156Y-187147D01*
X60802Y-186974D01*
X63742Y-186974D01*
X63742Y-192367D01*
X58596Y-192367D01*
G37*
%LPD*%
%LPC*%
G36*
X-158838Y198392D02*
X-158838Y198392D01*
X-158838Y202930D01*
X-155630Y202930D01*
X-154984Y202757D01*
X-154404Y202423D01*
X-153931Y201950D01*
X-153597Y201370D01*
X-153424Y200724D01*
X-153424Y198392D01*
X-158838Y198392D01*
G37*
%LPD*%
%LPC*%
G36*
X17613Y194112D02*
X17613Y194112D01*
X17613Y198650D01*
X23027Y198650D01*
X23027Y196318D01*
X22854Y195672D01*
X22520Y195092D01*
X22047Y194619D01*
X21467Y194285D01*
X20821Y194112D01*
X17613Y194112D01*
G37*
%LPD*%
%LPC*%
G36*
X103285Y-220113D02*
X103285Y-220113D01*
X102705Y-219779D01*
X102232Y-219306D01*
X101898Y-218726D01*
X101725Y-218080D01*
X101725Y-214872D01*
X106263Y-214872D01*
X106263Y-220286D01*
X103931Y-220286D01*
X103285Y-220113D01*
G37*
%LPD*%
%LPC*%
G36*
X101725Y-210880D02*
X101725Y-210880D01*
X101725Y-207672D01*
X101898Y-207026D01*
X102232Y-206446D01*
X102705Y-205973D01*
X103285Y-205639D01*
X103931Y-205466D01*
X106263Y-205466D01*
X106263Y-210880D01*
X101725Y-210880D01*
G37*
%LPD*%
%LPC*%
G36*
X10413Y194112D02*
X10413Y194112D01*
X9767Y194285D01*
X9187Y194619D01*
X8714Y195092D01*
X8380Y195672D01*
X8207Y196318D01*
X8207Y198650D01*
X13621Y198650D01*
X13621Y194112D01*
X10413Y194112D01*
G37*
%LPD*%
%LPC*%
G36*
X-158838Y189862D02*
X-158838Y189862D01*
X-158838Y194400D01*
X-153424Y194400D01*
X-153424Y192068D01*
X-153597Y191422D01*
X-153931Y190842D01*
X-154404Y190369D01*
X-154984Y190035D01*
X-155630Y189862D01*
X-158838Y189862D01*
G37*
%LPD*%
%LPC*%
G36*
X-221991Y-10787D02*
X-221991Y-10787D01*
X-221991Y-10785D01*
X-221989Y-10785D01*
X-221989Y-10787D01*
X-221991Y-10787D01*
G37*
%LPD*%
%LPC*%
G36*
X-148476Y-129660D02*
X-148476Y-129660D01*
X-148476Y-129658D01*
X-148474Y-129658D01*
X-148474Y-129660D01*
X-148476Y-129660D01*
G37*
%LPD*%
%LPC*%
G36*
X12937Y-195368D02*
X12937Y-195368D01*
X12937Y-195367D01*
X12939Y-195367D01*
X12939Y-195368D01*
X12937Y-195368D01*
G37*
%LPD*%
%LPC*%
G36*
X-88965Y-219525D02*
X-88965Y-219525D01*
X-88965Y-219524D01*
X-88963Y-219524D01*
X-88964Y-219525D01*
X-88965Y-219525D01*
G37*
%LPD*%
D10*
X-277163Y-9261D02*
X-272956Y387238D01*
X327344Y380868D02*
X323137Y-15631D01*
X326487Y361376D02*
X-272513Y367732D01*
X-247130Y370655D01*
X-247198Y364271D01*
X-272513Y367732D01*
X-247150Y368763D01*
X-247178Y366163D02*
X-272513Y367732D01*
X-247137Y370063D01*
X-247192Y364863D02*
X-272513Y367732D01*
X301172Y364837D02*
X326487Y361376D01*
X301172Y364837D02*
X301104Y358453D01*
X326487Y361376D01*
X301152Y362945D01*
X301124Y360345D02*
X326487Y361376D01*
X301166Y364245D01*
X301111Y359045D02*
X326487Y361376D01*
X22987Y-9254D02*
X22987Y-15638D01*
X19795Y-12446D02*
X26179Y-12446D01*
D11*
X1423Y380365D02*
X-3996Y380422D01*
X1423Y380365D02*
X1541Y380362D01*
X1659Y380355D01*
X1777Y380344D01*
X1894Y380329D01*
X2011Y380310D01*
X2127Y380288D01*
X2242Y380262D01*
X2356Y380232D01*
X2470Y380198D01*
X2582Y380161D01*
X2693Y380120D01*
X2802Y380075D01*
X2910Y380027D01*
X3016Y379976D01*
X3121Y379920D01*
X3224Y379862D01*
X3324Y379800D01*
X3423Y379735D01*
X3520Y379667D01*
X3614Y379595D01*
X3706Y379521D01*
X3795Y379444D01*
X3882Y379363D01*
X3966Y379280D01*
X4047Y379194D01*
X4125Y379106D01*
X4201Y379015D01*
X4273Y378922D01*
X4343Y378826D01*
X4409Y378728D01*
X4472Y378628D01*
X4532Y378526D01*
X4588Y378422D01*
X4641Y378317D01*
X4690Y378209D01*
X4736Y378100D01*
X4779Y377990D01*
X4817Y377878D01*
X4852Y377765D01*
X4884Y377651D01*
X4911Y377536D01*
X4935Y377421D01*
X4955Y377304D01*
X4971Y377187D01*
X4983Y377069D01*
X4992Y376951D01*
X4996Y376833D01*
X4997Y376715D01*
X4988Y375812D01*
X4984Y375679D01*
X4977Y375547D01*
X4966Y375415D01*
X4951Y375283D01*
X4932Y375152D01*
X4910Y375021D01*
X4883Y374891D01*
X4853Y374762D01*
X4819Y374634D01*
X4781Y374507D01*
X4739Y374381D01*
X4694Y374256D01*
X4645Y374133D01*
X4593Y374011D01*
X4537Y373891D01*
X4477Y373773D01*
X4414Y373656D01*
X4348Y373541D01*
X4278Y373428D01*
X4205Y373318D01*
X4129Y373209D01*
X4050Y373103D01*
X3967Y372999D01*
X3882Y372898D01*
X3793Y372799D01*
X3702Y372703D01*
X3608Y372609D01*
X3511Y372519D01*
X3412Y372431D01*
X3310Y372346D01*
X3206Y372264D01*
X3099Y372186D01*
X2990Y372110D01*
X2879Y372038D01*
X2766Y371969D01*
X2650Y371903D01*
X2533Y371841D01*
X2414Y371782D01*
X2294Y371727D01*
X2172Y371675D01*
X2048Y371627D01*
X1923Y371583D01*
X1797Y371542D01*
X1670Y371505D01*
X1541Y371471D01*
X1412Y371442D01*
X1282Y371416D01*
X1151Y371394D01*
X1020Y371376D01*
X888Y371362D01*
X756Y371352D01*
X624Y371346D01*
X491Y371343D01*
X358Y371344D01*
X226Y371350D01*
X94Y371359D01*
X-38Y371372D01*
X-170Y371389D01*
X-301Y371410D01*
X-431Y371434D01*
X-561Y371463D01*
X-689Y371495D01*
X-817Y371531D01*
X-943Y371571D01*
X-1069Y371614D01*
X-1193Y371661D01*
X-1315Y371712D01*
X-1436Y371766D01*
X-1555Y371824D01*
X-1673Y371885D01*
X-1789Y371950D01*
X-1903Y372018D01*
X-2014Y372089D01*
X-2124Y372164D01*
X-2231Y372241D01*
X-2336Y372322D01*
X-2439Y372406D01*
X-2539Y372493D01*
X-2636Y372583D01*
X-2731Y372676D01*
X-2823Y372771D01*
X-2913Y372869D01*
X-2999Y372970D01*
X-3082Y373073D01*
X-3163Y373179D01*
X-3240Y373286D01*
X-3314Y373397D01*
X-3384Y373509D01*
X-3452Y373623D01*
X-3516Y373739D01*
X-3576Y373857D01*
X-3633Y373977D01*
X-3687Y374098D01*
X-3736Y374221D01*
X-3783Y374345D01*
X-3825Y374471D01*
X-3864Y374597D01*
X-3899Y374725D01*
X-3931Y374854D01*
X-3958Y374984D01*
X-3982Y375114D01*
X-4002Y375245D01*
X-4018Y375377D01*
X-4030Y375509D01*
X-4039Y375641D01*
X-4043Y375774D01*
X-4044Y375906D01*
X-4043Y375906D02*
X-3996Y380422D01*
X-3992Y380599D01*
X-3983Y380776D01*
X-3970Y380953D01*
X-3953Y381129D01*
X-3932Y381305D01*
X-3906Y381481D01*
X-3876Y381656D01*
X-3842Y381830D01*
X-3803Y382003D01*
X-3761Y382175D01*
X-3714Y382346D01*
X-3663Y382516D01*
X-3607Y382684D01*
X-3548Y382851D01*
X-3484Y383017D01*
X-3417Y383181D01*
X-3345Y383343D01*
X-3270Y383503D01*
X-3190Y383662D01*
X-3107Y383818D01*
X-3020Y383973D01*
X-2929Y384125D01*
X-2834Y384275D01*
X-2736Y384423D01*
X-2634Y384568D01*
X-2529Y384710D01*
X-2420Y384850D01*
X-2308Y384988D01*
X-2192Y385122D01*
X-2073Y385254D01*
X-1951Y385382D01*
X-1826Y385508D01*
X-1698Y385631D01*
X-1567Y385750D01*
X-1433Y385866D01*
X-1296Y385979D01*
X-1156Y386088D01*
X-1014Y386194D01*
X-869Y386296D01*
X-722Y386395D01*
X-572Y386490D01*
X-420Y386582D01*
X-266Y386669D01*
X-110Y386753D01*
X48Y386833D01*
X208Y386909D01*
X370Y386981D01*
X534Y387050D01*
X699Y387114D01*
X866Y387174D01*
X1035Y387230D01*
X1204Y387281D01*
X1375Y387329D01*
X1547Y387372D01*
X1720Y387412D01*
X1894Y387447D01*
X2068Y387477D01*
X2244Y387504D01*
X2420Y387526D01*
X2596Y387543D01*
X2773Y387557D01*
X2950Y387566D01*
X3127Y387570D01*
X3305Y387571D01*
X13041Y385211D02*
X12901Y384923D01*
X12768Y384632D01*
X12642Y384338D01*
X12524Y384041D01*
X12412Y383742D01*
X12308Y383439D01*
X12210Y383135D01*
X12120Y382828D01*
X12038Y382519D01*
X11963Y382208D01*
X11895Y381895D01*
X11835Y381581D01*
X11782Y381266D01*
X11737Y380949D01*
X11699Y380632D01*
X11669Y380313D01*
X11647Y379994D01*
X11632Y379675D01*
X11625Y379355D01*
X13042Y385211D02*
X13082Y385318D01*
X13126Y385425D01*
X13174Y385530D01*
X13225Y385633D01*
X13280Y385734D01*
X13338Y385833D01*
X13400Y385930D01*
X13465Y386026D01*
X13533Y386118D01*
X13604Y386209D01*
X13679Y386297D01*
X13756Y386382D01*
X13836Y386464D01*
X13919Y386544D01*
X14005Y386621D01*
X14094Y386695D01*
X14184Y386765D01*
X14278Y386833D01*
X14373Y386897D01*
X14471Y386958D01*
X14570Y387016D01*
X14672Y387070D01*
X14776Y387120D01*
X14881Y387167D01*
X14987Y387211D01*
X15095Y387250D01*
X15205Y387286D01*
X15315Y387318D01*
X15427Y387346D01*
X15539Y387371D01*
X15653Y387391D01*
X15767Y387408D01*
X15881Y387421D01*
X15996Y387429D01*
X16111Y387434D01*
X16226Y387435D01*
X16341Y387432D01*
X16456Y387424D01*
X16570Y387413D01*
X16685Y387398D01*
X16798Y387379D01*
X16911Y387356D01*
X17023Y387330D01*
X17134Y387299D01*
X17244Y387265D01*
X17352Y387227D01*
X17460Y387185D01*
X17565Y387139D01*
X17669Y387090D01*
X17772Y387037D01*
X17872Y386981D01*
X17971Y386921D01*
X18067Y386858D01*
X18161Y386792D01*
X18253Y386723D01*
X18342Y386650D01*
X18429Y386574D01*
X18513Y386496D01*
X18595Y386414D01*
X18673Y386330D01*
X18749Y386243D01*
X18821Y386154D01*
X18891Y386062D01*
X18957Y385968D01*
X19020Y385872D01*
X19079Y385773D01*
X19136Y385673D01*
X19188Y385570D01*
X19237Y385466D01*
X19283Y385360D01*
X19325Y385253D01*
X19363Y385144D01*
X19497Y384854D01*
X19623Y384560D01*
X19743Y384263D01*
X19856Y383964D01*
X19961Y383662D01*
X20059Y383358D01*
X20150Y383051D01*
X20233Y382742D01*
X20309Y382432D01*
X20378Y382119D01*
X20439Y381805D01*
X20493Y381490D01*
X20539Y381174D01*
X20578Y380856D01*
X20609Y380538D01*
X20632Y380219D01*
X20648Y379900D01*
X20656Y379580D01*
X20656Y379260D01*
X11626Y379355D02*
X11626Y379036D01*
X11634Y378716D01*
X11650Y378397D01*
X11673Y378078D01*
X11704Y377759D01*
X11743Y377442D01*
X11789Y377125D01*
X11843Y376810D01*
X11904Y376496D01*
X11972Y376184D01*
X12049Y375873D01*
X12132Y375565D01*
X12223Y375258D01*
X12321Y374954D01*
X12426Y374652D01*
X12539Y374352D01*
X12658Y374056D01*
X12785Y373762D01*
X12919Y373472D01*
X12918Y373471D02*
X12956Y373362D01*
X12998Y373255D01*
X13044Y373149D01*
X13093Y373045D01*
X13145Y372942D01*
X13202Y372842D01*
X13261Y372743D01*
X13324Y372647D01*
X13390Y372553D01*
X13460Y372461D01*
X13532Y372372D01*
X13608Y372285D01*
X13686Y372201D01*
X13768Y372119D01*
X13852Y372041D01*
X13939Y371965D01*
X14028Y371892D01*
X14120Y371823D01*
X14214Y371757D01*
X14310Y371694D01*
X14409Y371634D01*
X14509Y371578D01*
X14611Y371525D01*
X14716Y371476D01*
X14821Y371430D01*
X14929Y371388D01*
X15037Y371350D01*
X15147Y371316D01*
X15258Y371285D01*
X15370Y371259D01*
X15483Y371236D01*
X15596Y371217D01*
X15711Y371202D01*
X15825Y371191D01*
X15940Y371183D01*
X16055Y371180D01*
X19239Y373405D02*
X19379Y373693D01*
X19512Y373984D01*
X19638Y374278D01*
X19756Y374574D01*
X19868Y374874D01*
X19972Y375176D01*
X20070Y375481D01*
X20160Y375788D01*
X20242Y376097D01*
X20317Y376408D01*
X20385Y376720D01*
X20445Y377034D01*
X20498Y377350D01*
X20543Y377666D01*
X20581Y377984D01*
X20611Y378302D01*
X20633Y378621D01*
X20648Y378941D01*
X20655Y379261D01*
X19239Y373404D02*
X19199Y373297D01*
X19155Y373190D01*
X19107Y373085D01*
X19056Y372982D01*
X19001Y372881D01*
X18943Y372782D01*
X18881Y372685D01*
X18816Y372589D01*
X18748Y372497D01*
X18677Y372406D01*
X18602Y372318D01*
X18525Y372233D01*
X18445Y372151D01*
X18362Y372071D01*
X18276Y371994D01*
X18187Y371920D01*
X18097Y371850D01*
X18003Y371782D01*
X17908Y371718D01*
X17810Y371657D01*
X17710Y371599D01*
X17609Y371545D01*
X17505Y371495D01*
X17400Y371448D01*
X17294Y371404D01*
X17186Y371365D01*
X17076Y371329D01*
X16966Y371297D01*
X16854Y371269D01*
X16742Y371244D01*
X16628Y371224D01*
X16514Y371207D01*
X16400Y371194D01*
X16285Y371186D01*
X16170Y371181D01*
X16055Y371180D01*
X12481Y374830D02*
X19800Y383785D01*
X26555Y371973D02*
X26545Y371070D01*
X26555Y371973D02*
X27458Y371964D01*
X27448Y371061D01*
X26545Y371070D01*
X33508Y379126D02*
X33515Y379446D01*
X33530Y379765D01*
X33552Y380084D01*
X33582Y380403D01*
X33620Y380720D01*
X33665Y381037D01*
X33718Y381352D01*
X33778Y381666D01*
X33846Y381979D01*
X33921Y382290D01*
X34003Y382599D01*
X34093Y382906D01*
X34191Y383210D01*
X34295Y383513D01*
X34407Y383812D01*
X34525Y384109D01*
X34651Y384403D01*
X34784Y384694D01*
X34924Y384982D01*
X34964Y385089D01*
X35008Y385196D01*
X35056Y385301D01*
X35107Y385404D01*
X35162Y385505D01*
X35220Y385604D01*
X35282Y385701D01*
X35347Y385797D01*
X35415Y385889D01*
X35486Y385980D01*
X35561Y386068D01*
X35638Y386153D01*
X35718Y386235D01*
X35801Y386315D01*
X35887Y386392D01*
X35976Y386466D01*
X36066Y386536D01*
X36160Y386604D01*
X36255Y386668D01*
X36353Y386729D01*
X36452Y386787D01*
X36554Y386841D01*
X36658Y386891D01*
X36763Y386938D01*
X36869Y386982D01*
X36977Y387021D01*
X37087Y387057D01*
X37197Y387089D01*
X37309Y387117D01*
X37421Y387142D01*
X37535Y387162D01*
X37649Y387179D01*
X37763Y387192D01*
X37878Y387200D01*
X37993Y387205D01*
X38108Y387206D01*
X38223Y387203D01*
X38338Y387195D01*
X38452Y387184D01*
X38567Y387169D01*
X38680Y387150D01*
X38793Y387127D01*
X38905Y387101D01*
X39016Y387070D01*
X39126Y387036D01*
X39234Y386998D01*
X39342Y386956D01*
X39447Y386910D01*
X39551Y386861D01*
X39654Y386808D01*
X39754Y386752D01*
X39853Y386692D01*
X39949Y386629D01*
X40043Y386563D01*
X40135Y386494D01*
X40224Y386421D01*
X40311Y386345D01*
X40395Y386267D01*
X40477Y386185D01*
X40555Y386101D01*
X40631Y386014D01*
X40703Y385925D01*
X40773Y385833D01*
X40839Y385739D01*
X40902Y385643D01*
X40961Y385544D01*
X41018Y385444D01*
X41070Y385341D01*
X41119Y385237D01*
X41165Y385131D01*
X41207Y385024D01*
X41245Y384915D01*
X41379Y384625D01*
X41505Y384331D01*
X41625Y384034D01*
X41738Y383735D01*
X41843Y383433D01*
X41941Y383129D01*
X42032Y382822D01*
X42115Y382513D01*
X42191Y382203D01*
X42260Y381890D01*
X42321Y381576D01*
X42375Y381261D01*
X42421Y380945D01*
X42460Y380627D01*
X42491Y380309D01*
X42514Y379990D01*
X42530Y379671D01*
X42538Y379351D01*
X42538Y379031D01*
X33508Y379125D02*
X33508Y378806D01*
X33516Y378486D01*
X33532Y378167D01*
X33555Y377848D01*
X33586Y377529D01*
X33625Y377212D01*
X33671Y376895D01*
X33725Y376580D01*
X33786Y376266D01*
X33854Y375954D01*
X33931Y375643D01*
X34014Y375335D01*
X34105Y375028D01*
X34203Y374724D01*
X34308Y374422D01*
X34421Y374122D01*
X34540Y373826D01*
X34667Y373532D01*
X34801Y373242D01*
X34839Y373133D01*
X34881Y373026D01*
X34927Y372920D01*
X34976Y372816D01*
X35028Y372713D01*
X35085Y372613D01*
X35144Y372514D01*
X35207Y372418D01*
X35273Y372324D01*
X35343Y372232D01*
X35415Y372143D01*
X35491Y372056D01*
X35569Y371972D01*
X35651Y371890D01*
X35735Y371812D01*
X35822Y371736D01*
X35911Y371663D01*
X36003Y371594D01*
X36097Y371528D01*
X36193Y371465D01*
X36292Y371405D01*
X36392Y371349D01*
X36494Y371296D01*
X36599Y371247D01*
X36704Y371201D01*
X36812Y371159D01*
X36920Y371121D01*
X37030Y371087D01*
X37141Y371056D01*
X37253Y371030D01*
X37366Y371007D01*
X37479Y370988D01*
X37594Y370973D01*
X37708Y370962D01*
X37823Y370954D01*
X37938Y370951D01*
X41122Y373176D02*
X41262Y373464D01*
X41395Y373755D01*
X41521Y374049D01*
X41639Y374345D01*
X41751Y374645D01*
X41855Y374947D01*
X41953Y375252D01*
X42043Y375559D01*
X42125Y375868D01*
X42200Y376179D01*
X42268Y376491D01*
X42328Y376805D01*
X42381Y377121D01*
X42426Y377437D01*
X42464Y377755D01*
X42494Y378073D01*
X42516Y378392D01*
X42531Y378712D01*
X42538Y379032D01*
X41122Y373175D02*
X41082Y373068D01*
X41038Y372961D01*
X40990Y372856D01*
X40939Y372753D01*
X40884Y372652D01*
X40826Y372553D01*
X40764Y372456D01*
X40699Y372360D01*
X40631Y372268D01*
X40560Y372177D01*
X40485Y372089D01*
X40408Y372004D01*
X40328Y371922D01*
X40245Y371842D01*
X40159Y371765D01*
X40070Y371691D01*
X39980Y371621D01*
X39886Y371553D01*
X39791Y371489D01*
X39693Y371428D01*
X39593Y371370D01*
X39492Y371316D01*
X39388Y371266D01*
X39283Y371219D01*
X39177Y371175D01*
X39069Y371136D01*
X38959Y371100D01*
X38849Y371068D01*
X38737Y371040D01*
X38625Y371015D01*
X38511Y370995D01*
X38397Y370978D01*
X38283Y370965D01*
X38168Y370957D01*
X38053Y370952D01*
X37938Y370951D01*
X34363Y374601D02*
X41682Y383556D01*
X49053Y370835D02*
X53568Y370787D01*
X53700Y370788D01*
X53833Y370792D01*
X53965Y370801D01*
X54097Y370813D01*
X54229Y370829D01*
X54360Y370849D01*
X54490Y370873D01*
X54620Y370900D01*
X54749Y370932D01*
X54877Y370967D01*
X55003Y371006D01*
X55129Y371048D01*
X55253Y371095D01*
X55376Y371144D01*
X55497Y371198D01*
X55617Y371255D01*
X55735Y371316D01*
X55851Y371379D01*
X55965Y371447D01*
X56078Y371517D01*
X56188Y371591D01*
X56295Y371669D01*
X56401Y371749D01*
X56504Y371832D01*
X56605Y371918D01*
X56703Y372008D01*
X56798Y372100D01*
X56891Y372195D01*
X56981Y372292D01*
X57068Y372392D01*
X57152Y372495D01*
X57233Y372600D01*
X57310Y372707D01*
X57385Y372817D01*
X57456Y372929D01*
X57524Y373042D01*
X57589Y373158D01*
X57650Y373276D01*
X57708Y373395D01*
X57762Y373516D01*
X57813Y373638D01*
X57860Y373762D01*
X57904Y373888D01*
X57943Y374014D01*
X57979Y374142D01*
X58011Y374270D01*
X58040Y374400D01*
X58064Y374530D01*
X58085Y374661D01*
X58102Y374793D01*
X58115Y374925D01*
X58124Y375057D01*
X58130Y375189D01*
X58131Y375322D01*
X58128Y375455D01*
X58122Y375587D01*
X58112Y375719D01*
X58098Y375851D01*
X58080Y375982D01*
X58058Y376113D01*
X58032Y376243D01*
X58003Y376372D01*
X57969Y376501D01*
X57932Y376628D01*
X57891Y376754D01*
X57847Y376879D01*
X57799Y377003D01*
X57747Y377125D01*
X57692Y377245D01*
X57633Y377364D01*
X57571Y377481D01*
X57505Y377597D01*
X57436Y377710D01*
X57364Y377821D01*
X57288Y377930D01*
X57210Y378037D01*
X57128Y378141D01*
X57043Y378243D01*
X56955Y378342D01*
X56865Y378439D01*
X56771Y378533D01*
X56675Y378624D01*
X56576Y378713D01*
X56475Y378798D01*
X56371Y378881D01*
X56265Y378960D01*
X56156Y379036D01*
X56046Y379109D01*
X55933Y379179D01*
X55818Y379245D01*
X55701Y379308D01*
X55583Y379368D01*
X55463Y379424D01*
X55341Y379476D01*
X55218Y379525D01*
X55093Y379570D01*
X54967Y379612D01*
X54840Y379650D01*
X54712Y379684D01*
X54583Y379714D01*
X54453Y379741D01*
X54322Y379763D01*
X54191Y379782D01*
X54059Y379797D01*
X53927Y379808D01*
X53795Y379815D01*
X53662Y379819D01*
X54641Y387033D02*
X49223Y387090D01*
X54642Y387033D02*
X54761Y387030D01*
X54880Y387022D01*
X54999Y387011D01*
X55118Y386996D01*
X55236Y386977D01*
X55353Y386954D01*
X55469Y386928D01*
X55585Y386897D01*
X55699Y386863D01*
X55813Y386825D01*
X55924Y386783D01*
X56035Y386738D01*
X56144Y386688D01*
X56251Y386636D01*
X56356Y386579D01*
X56460Y386520D01*
X56561Y386457D01*
X56661Y386390D01*
X56758Y386321D01*
X56852Y386248D01*
X56945Y386172D01*
X57034Y386093D01*
X57121Y386011D01*
X57205Y385927D01*
X57287Y385839D01*
X57365Y385749D01*
X57441Y385657D01*
X57513Y385562D01*
X57582Y385464D01*
X57648Y385365D01*
X57711Y385263D01*
X57770Y385159D01*
X57826Y385054D01*
X57878Y384946D01*
X57927Y384837D01*
X57972Y384727D01*
X58013Y384615D01*
X58051Y384501D01*
X58085Y384387D01*
X58115Y384271D01*
X58141Y384154D01*
X58163Y384037D01*
X58181Y383919D01*
X58196Y383801D01*
X58207Y383682D01*
X58213Y383562D01*
X58216Y383443D01*
X58215Y383323D01*
X58209Y383204D01*
X58200Y383085D01*
X58187Y382966D01*
X58170Y382848D01*
X58149Y382730D01*
X58125Y382614D01*
X58096Y382498D01*
X58064Y382383D01*
X58027Y382269D01*
X57987Y382156D01*
X57944Y382045D01*
X57896Y381936D01*
X57845Y381827D01*
X57791Y381721D01*
X57733Y381617D01*
X57672Y381514D01*
X57607Y381414D01*
X57539Y381316D01*
X57468Y381220D01*
X57393Y381126D01*
X57316Y381035D01*
X57236Y380947D01*
X57152Y380861D01*
X57066Y380778D01*
X56978Y380698D01*
X56886Y380621D01*
X56793Y380548D01*
X56696Y380477D01*
X56598Y380409D01*
X56497Y380345D01*
X56394Y380284D01*
X56290Y380227D01*
X56183Y380173D01*
X56075Y380122D01*
X55965Y380075D01*
X55854Y380032D01*
X55741Y379993D01*
X55627Y379957D01*
X55512Y379925D01*
X55396Y379897D01*
X55279Y379873D01*
X55161Y379852D01*
X55043Y379836D01*
X54924Y379823D01*
X54805Y379815D01*
X54686Y379810D01*
X54566Y379809D01*
X54566Y379808D02*
X50954Y379846D01*
D12*
X105696Y-96716D02*
X105378Y-114912D01*
X105696Y-96716D02*
X110194Y-96794D01*
X109876Y-114990D01*
X105378Y-114912D01*
X105402Y-113565D02*
X109901Y-113565D01*
X109926Y-112140D02*
X105426Y-112140D01*
X105451Y-110715D02*
X109951Y-110715D01*
X109976Y-109290D02*
X105476Y-109290D01*
X105501Y-107865D02*
X110001Y-107865D01*
X110025Y-106440D02*
X105526Y-106440D01*
X105551Y-105015D02*
X110050Y-105015D01*
X110075Y-103590D02*
X105576Y-103590D01*
X105601Y-102165D02*
X110100Y-102165D01*
X110125Y-100740D02*
X105626Y-100740D01*
X105651Y-99315D02*
X110150Y-99315D01*
X110175Y-97890D02*
X105675Y-97890D01*
X92998Y-96495D02*
X92680Y-114691D01*
X92998Y-96495D02*
X97496Y-96573D01*
X97178Y-114769D01*
X92680Y-114691D01*
X92704Y-113344D02*
X97203Y-113344D01*
X97228Y-111919D02*
X92728Y-111919D01*
X92753Y-110494D02*
X97253Y-110494D01*
X97278Y-109069D02*
X92778Y-109069D01*
X92803Y-107644D02*
X97303Y-107644D01*
X97327Y-106219D02*
X92828Y-106219D01*
X92853Y-104794D02*
X97352Y-104794D01*
X97377Y-103369D02*
X92878Y-103369D01*
X92903Y-101944D02*
X97402Y-101944D01*
X97427Y-100519D02*
X92928Y-100519D01*
X92953Y-99094D02*
X97452Y-99094D01*
X97477Y-97669D02*
X92977Y-97669D01*
X80300Y-96273D02*
X79982Y-114469D01*
X80300Y-96273D02*
X84798Y-96351D01*
X84480Y-114547D01*
X79982Y-114469D01*
X80006Y-113122D02*
X84505Y-113122D01*
X84530Y-111697D02*
X80030Y-111697D01*
X80055Y-110272D02*
X84555Y-110272D01*
X84580Y-108847D02*
X80080Y-108847D01*
X80105Y-107422D02*
X84605Y-107422D01*
X84629Y-105997D02*
X80130Y-105997D01*
X80155Y-104572D02*
X84654Y-104572D01*
X84679Y-103147D02*
X80180Y-103147D01*
X80205Y-101722D02*
X84704Y-101722D01*
X84729Y-100297D02*
X80230Y-100297D01*
X80255Y-98872D02*
X84754Y-98872D01*
X84779Y-97447D02*
X80279Y-97447D01*
X67602Y-96051D02*
X67284Y-114247D01*
X67602Y-96051D02*
X72100Y-96129D01*
X71782Y-114325D01*
X67284Y-114247D01*
X67308Y-112900D02*
X71807Y-112900D01*
X71832Y-111475D02*
X67332Y-111475D01*
X67357Y-110050D02*
X71857Y-110050D01*
X71882Y-108625D02*
X67382Y-108625D01*
X67407Y-107200D02*
X71907Y-107200D01*
X71931Y-105775D02*
X67432Y-105775D01*
X67457Y-104350D02*
X71956Y-104350D01*
X71981Y-102925D02*
X67482Y-102925D01*
X67507Y-101500D02*
X72006Y-101500D01*
X72031Y-100075D02*
X67532Y-100075D01*
X67557Y-98650D02*
X72056Y-98650D01*
X72081Y-97225D02*
X67581Y-97225D01*
X66738Y-145544D02*
X66420Y-163740D01*
X66738Y-145544D02*
X71236Y-145622D01*
X70918Y-163818D01*
X66420Y-163740D01*
X66444Y-162393D02*
X70943Y-162393D01*
X70968Y-160968D02*
X66468Y-160968D01*
X66493Y-159543D02*
X70993Y-159543D01*
X71018Y-158118D02*
X66518Y-158118D01*
X66543Y-156693D02*
X71043Y-156693D01*
X71067Y-155268D02*
X66568Y-155268D01*
X66593Y-153843D02*
X71092Y-153843D01*
X71117Y-152418D02*
X66618Y-152418D01*
X66643Y-150993D02*
X71142Y-150993D01*
X71167Y-149568D02*
X66668Y-149568D01*
X66693Y-148143D02*
X71192Y-148143D01*
X71217Y-146718D02*
X66717Y-146718D01*
X79436Y-145765D02*
X79118Y-163961D01*
X79436Y-145765D02*
X83934Y-145843D01*
X83616Y-164039D01*
X79118Y-163961D01*
X79142Y-162614D02*
X83641Y-162614D01*
X83666Y-161189D02*
X79166Y-161189D01*
X79191Y-159764D02*
X83691Y-159764D01*
X83716Y-158339D02*
X79216Y-158339D01*
X79241Y-156914D02*
X83741Y-156914D01*
X83765Y-155489D02*
X79266Y-155489D01*
X79291Y-154064D02*
X83790Y-154064D01*
X83815Y-152639D02*
X79316Y-152639D01*
X79341Y-151214D02*
X83840Y-151214D01*
X83865Y-149789D02*
X79366Y-149789D01*
X79391Y-148364D02*
X83890Y-148364D01*
X83915Y-146939D02*
X79415Y-146939D01*
X92134Y-145987D02*
X91816Y-164183D01*
X92134Y-145987D02*
X96632Y-146065D01*
X96314Y-164261D01*
X91816Y-164183D01*
X91840Y-162836D02*
X96339Y-162836D01*
X96364Y-161411D02*
X91864Y-161411D01*
X91889Y-159986D02*
X96389Y-159986D01*
X96414Y-158561D02*
X91914Y-158561D01*
X91939Y-157136D02*
X96439Y-157136D01*
X96463Y-155711D02*
X91964Y-155711D01*
X91989Y-154286D02*
X96488Y-154286D01*
X96513Y-152861D02*
X92014Y-152861D01*
X92039Y-151436D02*
X96538Y-151436D01*
X96563Y-150011D02*
X92064Y-150011D01*
X92089Y-148586D02*
X96588Y-148586D01*
X96613Y-147161D02*
X92113Y-147161D01*
X104832Y-146209D02*
X104514Y-164405D01*
X104832Y-146209D02*
X109330Y-146287D01*
X109012Y-164483D01*
X104514Y-164405D01*
X104538Y-163058D02*
X109037Y-163058D01*
X109062Y-161633D02*
X104562Y-161633D01*
X104587Y-160208D02*
X109087Y-160208D01*
X109112Y-158783D02*
X104612Y-158783D01*
X104637Y-157358D02*
X109137Y-157358D01*
X109161Y-155933D02*
X104662Y-155933D01*
X104687Y-154508D02*
X109186Y-154508D01*
X109211Y-153083D02*
X104712Y-153083D01*
X104737Y-151658D02*
X109236Y-151658D01*
X109261Y-150233D02*
X104762Y-150233D01*
X104787Y-148808D02*
X109286Y-148808D01*
X109311Y-147383D02*
X104811Y-147383D01*
D13*
X107929Y-194991D03*
X91625Y-194991D03*
X108259Y-212876D03*
X91955Y-212876D03*
D14*
X49867Y-212931D03*
X49867Y-178501D03*
D15*
X81233Y-194366D03*
X65741Y-194366D03*
D16*
X122997Y-191846D03*
X122997Y-207338D03*
D15*
X66011Y-212536D03*
X81503Y-212536D03*
D17*
G36*
X-49421Y-8708D02*
X-34343Y-8866D01*
X-34501Y-23944D01*
X-49579Y-23786D01*
X-49421Y-8708D01*
G37*
D18*
X-141955Y-15279D03*
X-40631Y110667D03*
X-140625Y111714D03*
D19*
X20897Y-15976D03*
X39897Y-15976D03*
D16*
X-160678Y148838D03*
X-160678Y164330D03*
D13*
X-108805Y215499D03*
X-92501Y215499D03*
D20*
X-3853Y183602D03*
X-3853Y199906D03*
X15617Y200646D03*
X15617Y184342D03*
D13*
X-58035Y214924D03*
X-41731Y214924D03*
D16*
X-128538Y147538D03*
X-128538Y163030D03*
D20*
X-129083Y180232D03*
X-129083Y196536D03*
X-160834Y196396D03*
X-160834Y180092D03*
D16*
X5857Y163580D03*
X5857Y148088D03*
D15*
G36*
X-215501Y76185D02*
X-215436Y66978D01*
X-225137Y66911D01*
X-225202Y76118D01*
X-215501Y76185D01*
G37*
G36*
X-215609Y91677D02*
X-215544Y82470D01*
X-225245Y82403D01*
X-225310Y91610D01*
X-215609Y91677D01*
G37*
D21*
X-221990Y-10786D03*
X-221902Y14614D03*
X-221813Y40014D03*
D13*
G36*
X-215665Y103144D02*
X-215469Y95162D01*
X-225203Y94924D01*
X-225399Y102906D01*
X-215665Y103144D01*
G37*
G36*
X-216063Y119444D02*
X-215867Y111462D01*
X-225601Y111224D01*
X-225797Y119206D01*
X-216063Y119444D01*
G37*
D20*
X-16413Y163706D03*
X-16413Y147402D03*
D18*
X-173875Y-129526D03*
X-148475Y-129659D03*
X-46877Y-130191D03*
D17*
G36*
X36822Y-138169D02*
X21743Y-138090D01*
X21822Y-123011D01*
X36901Y-123090D01*
X36822Y-138169D01*
G37*
D13*
X-99655Y-243186D03*
X-83351Y-243186D03*
D20*
X-131893Y-155944D03*
X-131893Y-172248D03*
D22*
G36*
X-158290Y-161239D02*
X-158461Y-149007D01*
X-152214Y-148919D01*
X-152043Y-161151D01*
X-158290Y-161239D01*
G37*
G36*
X-177289Y-161504D02*
X-177460Y-149272D01*
X-171213Y-149184D01*
X-171042Y-161416D01*
X-177289Y-161504D01*
G37*
G36*
X-167492Y-182650D02*
X-167663Y-170418D01*
X-161416Y-170330D01*
X-161245Y-182562D01*
X-167492Y-182650D01*
G37*
D23*
G36*
X-153860Y-209927D02*
X-177778Y-210177D01*
X-177942Y-194527D01*
X-154024Y-194277D01*
X-153860Y-209927D01*
G37*
G36*
X-111704Y-209485D02*
X-135622Y-209735D01*
X-135786Y-194085D01*
X-111868Y-193835D01*
X-111704Y-209485D01*
G37*
D24*
X107987Y-35446D03*
X15987Y74554D03*
X-47013Y-63446D03*
D25*
X-204013Y89554D03*
X-173013Y10554D03*
X219987Y-37446D03*
X249987Y-114446D03*
D26*
X122687Y8418D02*
X122687Y23658D01*
X46487Y66838D02*
X46487Y82078D01*
D27*
X186787Y-214682D03*
X183347Y4290D03*
D28*
X-99749Y192604D03*
X-99749Y179904D03*
X-99749Y167204D03*
X-99749Y154504D03*
X-50277Y154504D03*
X-50277Y167204D03*
X-50277Y179904D03*
X-50277Y192604D03*
D29*
G36*
X268241Y118450D02*
X292510Y93231D01*
X256483Y58562D01*
X232214Y83781D01*
X268241Y118450D01*
G37*
G36*
X233571Y154478D02*
X257840Y129259D01*
X221813Y94590D01*
X197544Y119809D01*
X233571Y154478D01*
G37*
D30*
G36*
X134414Y257517D02*
X147589Y243826D01*
X111562Y209157D01*
X98387Y222848D01*
X134414Y257517D01*
G37*
G36*
X152026Y239215D02*
X165201Y225524D01*
X129174Y190855D01*
X115999Y204546D01*
X152026Y239215D01*
G37*
D31*
X-88964Y-219524D03*
X-88654Y-194126D03*
X-63566Y-219835D03*
X-63256Y-194437D03*
X-38168Y-220145D03*
X-37858Y-194747D03*
X-12770Y-220455D03*
X-12460Y-195057D03*
X12628Y-220766D03*
X12938Y-195368D03*
D15*
X-18267Y194554D03*
X-33759Y194554D03*
D32*
X107987Y-35446D02*
X186787Y-114246D01*
X186787Y-158446D01*
X186787Y-214682D01*
D33*
X185987Y-157446D03*
D34*
X186787Y-158246D01*
X186787Y-158446D01*
D11*
X94224Y-155124D02*
X94224Y-175683D01*
X107929Y-189388D01*
X107929Y-194991D01*
X66011Y-212536D02*
X50262Y-212536D01*
X49867Y-212931D01*
X20352Y-242446D01*
X-6013Y-242446D01*
X-12770Y-235689D01*
X-12770Y-220455D01*
X91955Y-212876D02*
X91955Y-205446D01*
X91955Y-203446D02*
X91955Y-201446D01*
X91955Y-195321D01*
X91625Y-194991D01*
X52987Y-203446D02*
X49867Y-200326D01*
X52987Y-203446D02*
X89987Y-203446D01*
X91955Y-201446D01*
X89987Y-203446D02*
X90479Y-203946D01*
X91955Y-205446D01*
X91955Y-203446D01*
X89987Y-203446D01*
X49867Y-200326D02*
X49867Y-178501D01*
X81233Y-155196D02*
X81526Y-154902D01*
X81233Y-155196D02*
X81233Y-194366D01*
X-160678Y131766D02*
X-160678Y148838D01*
X-160678Y131766D02*
X-140625Y111714D01*
X-113805Y210499D02*
X-108805Y215499D01*
X-113805Y210499D02*
X-159069Y210499D01*
X-172013Y197554D01*
X-172013Y172554D01*
X-163789Y164330D01*
X-160678Y164330D01*
X-92501Y215499D02*
X-91927Y214924D01*
X-78613Y214924D01*
X-76073Y214924D01*
X-73703Y214924D01*
X-58035Y214924D01*
X-79298Y179904D02*
X-99749Y179904D01*
X-76073Y212344D02*
X-76073Y212554D01*
X-76073Y214924D01*
X-76073Y212554D02*
X-73703Y214924D01*
X-76073Y212344D02*
X-76648Y212919D01*
X-78613Y214884D01*
X-78613Y214924D01*
X-128522Y147554D02*
X-128538Y147538D01*
X-128522Y147554D02*
X-82013Y147554D01*
X-76648Y182554D02*
X-76648Y212919D01*
X-76648Y182554D02*
X-76648Y179324D01*
X-76648Y177554D01*
X-76648Y152919D01*
X-82013Y147554D01*
X-79298Y179904D02*
X-78998Y179904D01*
X-76648Y177554D01*
X-79298Y179904D02*
X-76648Y182554D01*
X-77228Y179904D02*
X-78998Y179904D01*
X-77228Y179904D02*
X-76648Y179324D01*
X-50277Y167204D02*
X-36663Y167204D01*
X-34163Y167204D01*
X-31623Y167204D01*
X-32623Y166204D02*
X-18911Y166204D01*
X-16413Y163706D01*
X-14261Y161554D01*
X-11013Y161554D01*
X2453Y148088D01*
X5857Y148088D01*
X-189793Y115334D02*
X-220832Y115334D01*
X-189793Y115334D02*
X-157983Y83524D01*
X-80993Y83524D01*
X-75993Y88524D01*
X-75993Y137456D01*
X-77061Y138524D01*
D33*
X-77061Y138524D03*
X-64925Y138524D03*
D11*
X-41043Y138524D01*
X-34163Y145404D02*
X-34163Y164664D01*
X-34163Y167204D01*
X-34163Y145404D02*
X-41043Y138524D01*
X-34163Y164664D02*
X-34143Y164684D01*
X-32623Y166204D01*
X-31623Y167204D01*
X-34143Y164684D02*
X-36663Y167204D01*
D33*
X-189793Y115334D03*
D11*
X-220434Y99034D02*
X-220434Y87047D01*
X-220427Y87040D01*
D33*
X-220434Y87047D03*
D11*
X-220319Y71548D02*
X-220319Y59248D01*
X-237013Y42554D02*
X-237013Y22554D01*
X-229073Y14614D01*
X-221902Y14614D01*
X-237013Y42554D02*
X-220319Y59248D01*
X-65120Y182657D02*
X-62103Y185674D01*
X-65120Y158211D02*
X-60833Y153924D01*
X-50857Y153924D01*
X-50277Y154504D01*
X-65120Y158211D02*
X-65120Y182657D01*
X-5925Y185674D02*
X-3853Y183602D01*
X-5925Y185674D02*
X-62103Y185674D01*
X-3853Y183602D02*
X14877Y183602D01*
X15617Y184342D01*
X-158303Y78524D02*
X-196813Y40014D01*
X-221813Y40014D01*
X-70993Y88524D02*
X-70993Y193574D01*
X-62013Y202554D01*
X-47013Y202554D01*
X-41731Y207836D01*
X-41731Y214924D01*
X-80993Y78524D02*
X-158303Y78524D01*
X-80993Y78524D02*
X-70993Y88524D01*
X-147191Y180352D02*
X-160574Y180352D01*
X-160834Y180092D01*
X-147191Y180352D02*
X-144653Y180352D01*
X-142293Y180352D01*
X-129203Y180352D02*
X-129083Y180232D01*
X-129203Y180352D02*
X-142293Y180352D01*
X-129083Y180232D02*
X-116055Y167204D01*
X-99749Y167204D01*
D33*
X-144653Y144084D03*
D11*
X-144653Y177814D01*
X-144653Y180352D01*
X-144653Y177814D02*
X-147191Y180352D01*
X-144653Y177814D02*
X-142293Y180174D01*
X-142293Y180352D01*
D35*
X-41611Y-15976D02*
X20897Y-15976D01*
X-41611Y-15976D02*
X-41961Y-16326D01*
D32*
X52466Y-107446D02*
X29322Y-130590D01*
X52466Y-107446D02*
X72987Y-107446D01*
D36*
X69692Y-105188D02*
X82168Y-105188D01*
X82390Y-105410D01*
D37*
X70729Y-105188D02*
X69692Y-105188D01*
X70729Y-105188D02*
X72987Y-107446D01*
X79911Y-107446D01*
X82168Y-105188D01*
D33*
X50987Y-110446D03*
D34*
X53987Y-107446D01*
X72987Y-107446D01*
D11*
X-131893Y-172248D02*
X-136135Y-176490D01*
X-164454Y-176490D01*
X-165901Y-177936D01*
X-165901Y-202227D01*
X-154388Y-155944D02*
X-155252Y-155079D01*
X-154388Y-155944D02*
X-131893Y-155944D01*
X-122893Y-155944D02*
X-120013Y-158824D01*
X-122893Y-155944D02*
X-131893Y-155944D01*
X-120013Y-158824D02*
X-120013Y-173446D01*
X-145283Y-198716D01*
X-145283Y-235176D02*
X-137013Y-243446D01*
X-99915Y-243446D01*
X-99655Y-243186D01*
X-145283Y-235176D02*
X-145283Y-198716D01*
X-174251Y-155344D02*
X-174251Y-129902D01*
X-173875Y-129526D01*
X-33261Y130554D02*
X-16413Y147402D01*
X-33261Y130554D02*
X-60013Y130554D01*
X-66013Y124554D01*
X-79013Y73554D02*
X-157013Y73554D01*
X-66013Y86554D02*
X-66013Y124554D01*
X-66013Y86554D02*
X-79013Y73554D01*
X-164013Y-79600D02*
X-53652Y-189961D01*
X-53652Y-190094D01*
X-51301Y-192446D01*
X-51301Y-217158D01*
X-48314Y-220145D02*
X-38168Y-220145D01*
X-164013Y66554D02*
X-157013Y73554D01*
X-164013Y66554D02*
X-164013Y-79600D01*
X-51301Y-217158D02*
X-48314Y-220145D01*
X-70753Y-243186D02*
X-83351Y-243186D01*
X-63566Y-235999D02*
X-63566Y-219835D01*
X-63566Y-235999D02*
X-70753Y-243186D01*
D38*
X106922Y-170346D02*
X122997Y-186420D01*
X106922Y-170346D02*
X106922Y-155346D01*
X122997Y-186420D02*
X122997Y-191846D01*
X125387Y-191846D01*
D36*
X-49757Y192084D02*
X-50277Y192604D01*
D33*
X-23013Y212554D03*
X-118013Y196554D03*
D36*
X-129065Y196554D02*
X-129083Y196536D01*
X-129065Y196554D02*
X-118013Y196554D01*
D38*
X-123745Y-201785D02*
X-96313Y-201785D01*
X-88654Y-194126D01*
D11*
X140600Y215035D02*
X147120Y221554D01*
X147987Y221554D01*
X147987Y219554D01*
X149987Y219554D01*
D33*
X126987Y201554D03*
X152987Y228554D03*
D11*
X140053Y214488D02*
X138553Y212988D01*
D36*
X126987Y201421D02*
X117650Y192084D01*
X126987Y201421D02*
X126987Y201554D01*
X140600Y216167D02*
X152987Y228554D01*
X140600Y216167D02*
X140600Y215035D01*
X140053Y214488D01*
X140600Y215035D02*
X126987Y201421D01*
D39*
X122997Y-191846D02*
X131987Y-200836D01*
X131987Y-219446D01*
X108987Y-242446D01*
X37987Y-242446D01*
D33*
X37987Y-242446D03*
D36*
X-35709Y192604D02*
X-50277Y192604D01*
X-35709Y192604D02*
X-33759Y194554D01*
X-33013Y195300D01*
X-33013Y202554D01*
X-23013Y212554D01*
X-10013Y212554D01*
X-3853Y206394D02*
X-3853Y199906D01*
X-3853Y206394D02*
X-10013Y212554D01*
D40*
X117650Y192084D03*
D33*
X66802Y-176403D03*
D32*
X46487Y74458D02*
X96562Y124534D01*
D35*
X-4248Y74554D02*
X-40361Y110667D01*
X-40631Y110667D01*
X-4248Y74554D02*
X15987Y74554D01*
D32*
X96562Y124534D02*
X227692Y124534D01*
D33*
X96987Y123554D03*
D32*
X47891Y74458D01*
X46487Y74458D01*
D11*
X-173013Y10554D02*
X-173013Y-84680D01*
X-63256Y-194437D01*
D33*
X-152013Y9554D03*
D11*
X-155013Y6554D01*
X-155013Y-77592D01*
X-37858Y-194747D01*
D32*
X-46877Y-130191D02*
X-46957Y-113446D01*
X-47196Y-63629D01*
X-47013Y-63446D01*
D33*
X-47013Y-102446D03*
D37*
X-46957Y-102502D01*
X-46957Y-113446D01*
D32*
X134435Y4290D02*
X183347Y4290D01*
X134435Y4290D02*
X122687Y16038D01*
X102987Y-92446D02*
X102987Y-107446D01*
D34*
X106193Y-107446D01*
X107786Y-105853D01*
D37*
X107565Y-105632D02*
X95088Y-105632D01*
X107565Y-105632D02*
X107786Y-105853D01*
D32*
X122687Y16038D02*
X65471Y16038D01*
X41621Y-31080D02*
X66987Y-56446D01*
X102987Y-92446D01*
X231198Y57343D02*
X262362Y88506D01*
X231198Y57343D02*
X183347Y9491D01*
X183347Y4290D01*
D33*
X66987Y-56446D03*
X64987Y14554D03*
X150987Y3554D03*
X219987Y46554D03*
D34*
X150987Y3554D02*
X135171Y3554D01*
X134435Y4290D01*
X219987Y46554D02*
X230776Y57343D01*
X231198Y57343D01*
X64987Y15554D02*
X64987Y14554D01*
X64987Y15554D02*
X65471Y16038D01*
D32*
X64987Y14554D02*
X41621Y-8812D01*
X41621Y-31080D01*
D11*
X-115489Y163030D02*
X-128538Y163030D01*
X-115489Y163030D02*
X-113013Y160554D01*
X-86013Y160554D01*
X-84013Y162554D01*
X-84013Y170554D01*
X-87013Y173554D01*
X-112013Y173554D02*
X-114013Y175554D01*
X-110963Y192604D02*
X-99749Y192604D01*
X-112013Y173554D02*
X-87013Y173554D01*
X-114013Y175554D02*
X-114013Y189554D01*
X-110963Y192604D01*
X-50277Y179904D02*
X-34743Y179904D01*
X5857Y168514D02*
X5857Y163580D01*
X-27393Y172554D02*
X-34743Y179904D01*
X-27393Y172554D02*
X1817Y172554D01*
X5857Y168514D01*
D33*
X153987Y-82446D03*
M02*
