G04 EAGLE Gerber RS-274X export*
G75*
%MOMM*%
%FSLAX34Y34*%
%LPD*%
%INSilkscreen Bottom*%
%IPPOS*%
%AMOC8*
5,1,8,0,0,1.08239X$1,22.5*%
G01*
%ADD10C,0.076200*%


D10*
X-130333Y38512D02*
X-125095Y38512D01*
X-125095Y39967D01*
X-125097Y40043D01*
X-125103Y40119D01*
X-125113Y40195D01*
X-125127Y40270D01*
X-125145Y40344D01*
X-125166Y40417D01*
X-125192Y40488D01*
X-125221Y40559D01*
X-125254Y40628D01*
X-125290Y40695D01*
X-125330Y40759D01*
X-125373Y40822D01*
X-125419Y40883D01*
X-125469Y40941D01*
X-125521Y40996D01*
X-125576Y41048D01*
X-125634Y41098D01*
X-125695Y41144D01*
X-125758Y41187D01*
X-125823Y41227D01*
X-125889Y41263D01*
X-125958Y41296D01*
X-126029Y41325D01*
X-126100Y41351D01*
X-126173Y41372D01*
X-126247Y41390D01*
X-126322Y41404D01*
X-126398Y41414D01*
X-126474Y41420D01*
X-126550Y41422D01*
X-126626Y41420D01*
X-126702Y41414D01*
X-126778Y41404D01*
X-126853Y41390D01*
X-126927Y41372D01*
X-127000Y41351D01*
X-127071Y41325D01*
X-127142Y41296D01*
X-127211Y41263D01*
X-127278Y41227D01*
X-127342Y41187D01*
X-127405Y41144D01*
X-127466Y41098D01*
X-127524Y41048D01*
X-127579Y40996D01*
X-127631Y40941D01*
X-127681Y40883D01*
X-127727Y40822D01*
X-127770Y40759D01*
X-127810Y40695D01*
X-127846Y40628D01*
X-127879Y40559D01*
X-127908Y40488D01*
X-127934Y40417D01*
X-127955Y40344D01*
X-127973Y40270D01*
X-127987Y40195D01*
X-127997Y40119D01*
X-128003Y40043D01*
X-128005Y39967D01*
X-128005Y38512D01*
X-128005Y40258D02*
X-130333Y41422D01*
X-125095Y45467D02*
X-125097Y45538D01*
X-125103Y45609D01*
X-125112Y45679D01*
X-125126Y45749D01*
X-125143Y45817D01*
X-125164Y45885D01*
X-125188Y45952D01*
X-125216Y46017D01*
X-125248Y46081D01*
X-125283Y46142D01*
X-125321Y46202D01*
X-125362Y46260D01*
X-125407Y46315D01*
X-125454Y46368D01*
X-125504Y46418D01*
X-125557Y46465D01*
X-125612Y46510D01*
X-125670Y46551D01*
X-125730Y46589D01*
X-125791Y46624D01*
X-125855Y46656D01*
X-125920Y46684D01*
X-125987Y46708D01*
X-126055Y46729D01*
X-126123Y46746D01*
X-126193Y46760D01*
X-126263Y46769D01*
X-126334Y46775D01*
X-126405Y46777D01*
X-125095Y45467D02*
X-125097Y45386D01*
X-125103Y45305D01*
X-125113Y45224D01*
X-125126Y45144D01*
X-125144Y45064D01*
X-125165Y44986D01*
X-125190Y44908D01*
X-125219Y44832D01*
X-125252Y44758D01*
X-125288Y44685D01*
X-125328Y44614D01*
X-125370Y44545D01*
X-125417Y44478D01*
X-125466Y44413D01*
X-125519Y44351D01*
X-125574Y44291D01*
X-125632Y44235D01*
X-125693Y44181D01*
X-125757Y44130D01*
X-125823Y44082D01*
X-125891Y44038D01*
X-125961Y43996D01*
X-126033Y43959D01*
X-126107Y43924D01*
X-126182Y43894D01*
X-126259Y43867D01*
X-127424Y46340D02*
X-127373Y46391D01*
X-127321Y46438D01*
X-127265Y46483D01*
X-127208Y46525D01*
X-127148Y46565D01*
X-127087Y46601D01*
X-127024Y46634D01*
X-126959Y46663D01*
X-126893Y46690D01*
X-126826Y46713D01*
X-126757Y46732D01*
X-126688Y46748D01*
X-126618Y46761D01*
X-126547Y46770D01*
X-126476Y46775D01*
X-126405Y46777D01*
X-127423Y46340D02*
X-130333Y43867D01*
X-130333Y46777D01*
X-125095Y50867D02*
X-125097Y50938D01*
X-125103Y51009D01*
X-125112Y51079D01*
X-125126Y51149D01*
X-125143Y51217D01*
X-125164Y51285D01*
X-125188Y51352D01*
X-125216Y51417D01*
X-125248Y51481D01*
X-125283Y51542D01*
X-125321Y51602D01*
X-125362Y51660D01*
X-125407Y51715D01*
X-125454Y51768D01*
X-125504Y51818D01*
X-125557Y51865D01*
X-125612Y51910D01*
X-125670Y51951D01*
X-125730Y51989D01*
X-125791Y52024D01*
X-125855Y52056D01*
X-125920Y52084D01*
X-125987Y52108D01*
X-126055Y52129D01*
X-126123Y52146D01*
X-126193Y52160D01*
X-126263Y52169D01*
X-126334Y52175D01*
X-126405Y52177D01*
X-125095Y50867D02*
X-125097Y50786D01*
X-125103Y50705D01*
X-125113Y50624D01*
X-125126Y50544D01*
X-125144Y50464D01*
X-125165Y50386D01*
X-125190Y50308D01*
X-125219Y50232D01*
X-125252Y50158D01*
X-125288Y50085D01*
X-125328Y50014D01*
X-125370Y49945D01*
X-125417Y49878D01*
X-125466Y49813D01*
X-125519Y49751D01*
X-125574Y49691D01*
X-125632Y49635D01*
X-125693Y49581D01*
X-125757Y49530D01*
X-125823Y49482D01*
X-125891Y49438D01*
X-125961Y49396D01*
X-126033Y49359D01*
X-126107Y49324D01*
X-126182Y49294D01*
X-126259Y49267D01*
X-127424Y51740D02*
X-127373Y51791D01*
X-127321Y51838D01*
X-127265Y51883D01*
X-127208Y51925D01*
X-127148Y51965D01*
X-127087Y52001D01*
X-127024Y52034D01*
X-126959Y52063D01*
X-126893Y52090D01*
X-126826Y52113D01*
X-126757Y52132D01*
X-126688Y52148D01*
X-126618Y52161D01*
X-126547Y52170D01*
X-126476Y52175D01*
X-126405Y52177D01*
X-127423Y51740D02*
X-130333Y49267D01*
X-130333Y52177D01*
M02*
