G04 EAGLE Gerber RS-274X export*
G75*
%MOMM*%
%FSLAX34Y34*%
%LPD*%
%INSoldermask Top*%
%IPPOS*%
%AMOC8*
5,1,8,0,0,1.08239X$1,22.5*%
G01*
%ADD10C,0.803200*%
%ADD11C,0.703200*%
%ADD12C,0.353406*%
%ADD13R,1.001900X1.177100*%
%ADD14R,0.987100X1.330400*%
%ADD15R,1.124100X1.173400*%
%ADD16R,1.173400X1.124100*%
%ADD17R,1.711200X1.711200*%
%ADD18C,1.711200*%
%ADD19R,1.503200X1.703200*%
%ADD20R,1.177100X1.001900*%
%ADD21C,1.903200*%
%ADD22R,1.426700X0.828000*%
%ADD23R,2.595200X1.768500*%
%ADD24C,4.013200*%
%ADD25C,1.411200*%
%ADD26C,1.727200*%
%ADD27C,2.803200*%
%ADD28R,2.172600X0.795400*%
%ADD29R,3.703200X5.203200*%
%ADD30R,2.103200X5.203200*%
%ADD31P,1.869504X8X381.800000*%
%ADD32C,3.203200*%
%ADD33C,0.959600*%
%ADD34C,1.259600*%


D10*
X-82013Y-130446D03*
X-80013Y-132446D03*
X-78013Y-134446D03*
X-76013Y-136446D03*
X-74013Y-138446D03*
X-72013Y-140446D03*
X-70013Y-142446D03*
X-68013Y-144446D03*
X-66013Y-146446D03*
X-64013Y-148446D03*
X-62013Y-150446D03*
X-60013Y-152446D03*
X-58733Y-153476D03*
X-57013Y-155446D03*
X-55013Y-157446D03*
X-53013Y-159446D03*
X-51013Y-161446D03*
X-48013Y-163446D03*
X-46013Y-165446D03*
X-44013Y-167446D03*
X-41013Y-169446D03*
X-38013Y-169446D03*
X-35013Y-169446D03*
X-32013Y-169446D03*
X-29013Y-169446D03*
X-26013Y-169446D03*
X-23013Y-169446D03*
X-20013Y-169446D03*
X3987Y-169446D03*
X6987Y-169446D03*
X9987Y-169446D03*
X12987Y-169446D03*
X15987Y-169446D03*
X18987Y-169446D03*
X21987Y-169446D03*
X24987Y-169446D03*
X27987Y-169446D03*
X31987Y-166446D03*
X33987Y-164446D03*
X35987Y-162446D03*
X38987Y-159446D03*
X40987Y-157446D03*
X43987Y-154446D03*
X46987Y-151446D03*
X48987Y-149446D03*
X50987Y-147446D03*
X-101013Y-111446D03*
X-99013Y-113446D03*
X-96013Y-116446D03*
X-94013Y-118446D03*
X-92013Y-120446D03*
X-90013Y-122446D03*
X-88013Y-124446D03*
X-86013Y-126446D03*
X-84013Y-128446D03*
D11*
X247527Y98364D03*
X249527Y96364D03*
X251527Y94364D03*
X253527Y92364D03*
X255527Y90364D03*
X257527Y88364D03*
X259527Y86364D03*
X249527Y100364D03*
X251527Y102364D03*
X253527Y104364D03*
X255527Y106364D03*
X257527Y104364D03*
X259527Y102364D03*
X261527Y100364D03*
X263527Y98364D03*
X265527Y96364D03*
X267527Y94364D03*
X269527Y92364D03*
X271527Y90364D03*
X273527Y88364D03*
X275527Y86364D03*
X277527Y84364D03*
X279527Y82364D03*
X261527Y84364D03*
X263527Y82364D03*
X265527Y80364D03*
X267527Y78364D03*
X269527Y76364D03*
X271527Y74364D03*
X273527Y76364D03*
X275527Y78364D03*
X277527Y80364D03*
X212527Y133364D03*
X214527Y131364D03*
X216527Y129364D03*
X218527Y127364D03*
X220527Y125364D03*
X222527Y123364D03*
X224527Y121364D03*
X214527Y135364D03*
X216527Y137364D03*
X218527Y139364D03*
X220527Y141364D03*
X222527Y139364D03*
X224527Y137364D03*
X226527Y135364D03*
X228527Y133364D03*
X230527Y131364D03*
X232527Y129364D03*
X234527Y127364D03*
X236527Y125364D03*
X238527Y123364D03*
X240527Y121364D03*
X242527Y119364D03*
X244527Y117364D03*
X226527Y119364D03*
X228527Y117364D03*
X230527Y115364D03*
X232527Y113364D03*
X234527Y111364D03*
X236527Y109364D03*
X238527Y111364D03*
X240527Y113364D03*
X242527Y115364D03*
X111527Y234364D03*
X113527Y232364D03*
X115527Y230364D03*
X117527Y228364D03*
X119527Y226364D03*
X121527Y224364D03*
X129527Y216364D03*
X113527Y236364D03*
X115527Y238364D03*
X117527Y240364D03*
X119527Y242364D03*
X121527Y240364D03*
X123527Y238364D03*
X125527Y236364D03*
X133527Y228364D03*
X135527Y226364D03*
X137527Y224364D03*
X139527Y222364D03*
X141527Y220364D03*
X143527Y218364D03*
X145527Y216364D03*
X147527Y214364D03*
X149527Y212364D03*
X131527Y214364D03*
X133527Y212364D03*
X135527Y210364D03*
X137527Y208364D03*
X139527Y206364D03*
X141527Y204364D03*
X143527Y206364D03*
X145527Y208364D03*
X147527Y210364D03*
X123317Y222504D03*
X125857Y219964D03*
X128397Y217424D03*
X126987Y234554D03*
X128987Y232554D03*
X130987Y230554D03*
D10*
X65987Y-132446D03*
X68987Y-132446D03*
X71987Y-132446D03*
X74987Y-132446D03*
X77987Y-132446D03*
X80987Y-132446D03*
X83987Y-132446D03*
X86987Y-132446D03*
X89987Y-132446D03*
X92987Y-132446D03*
X95987Y-132446D03*
X98987Y-132446D03*
X101987Y-132446D03*
X104987Y-132446D03*
X107987Y-132446D03*
X110987Y-132446D03*
D11*
X-59013Y112824D03*
X-59013Y114824D03*
X-59013Y116824D03*
X-59013Y118824D03*
X-59013Y120824D03*
X-58013Y121824D03*
X-57013Y122824D03*
X-56013Y123824D03*
X-54013Y123824D03*
X-52013Y123824D03*
X-50013Y123824D03*
X-48013Y123824D03*
X-46013Y123824D03*
X-44013Y123824D03*
X-42013Y123824D03*
X-40013Y123824D03*
D12*
X105697Y-96717D02*
X105379Y-114911D01*
X105697Y-96717D02*
X110193Y-96795D01*
X109875Y-114989D01*
X105379Y-114911D01*
X105436Y-111632D02*
X109934Y-111632D01*
X109992Y-108275D02*
X105495Y-108275D01*
X105554Y-104918D02*
X110051Y-104918D01*
X110110Y-101561D02*
X105612Y-101561D01*
X105671Y-98204D02*
X110168Y-98204D01*
X92999Y-96496D02*
X92681Y-114690D01*
X92999Y-96496D02*
X97495Y-96574D01*
X97177Y-114768D01*
X92681Y-114690D01*
X92738Y-111411D02*
X97236Y-111411D01*
X97294Y-108054D02*
X92797Y-108054D01*
X92856Y-104697D02*
X97353Y-104697D01*
X97412Y-101340D02*
X92914Y-101340D01*
X92973Y-97983D02*
X97470Y-97983D01*
X80301Y-96274D02*
X79983Y-114468D01*
X80301Y-96274D02*
X84797Y-96352D01*
X84479Y-114546D01*
X79983Y-114468D01*
X80040Y-111189D02*
X84538Y-111189D01*
X84596Y-107832D02*
X80099Y-107832D01*
X80158Y-104475D02*
X84655Y-104475D01*
X84714Y-101118D02*
X80216Y-101118D01*
X80275Y-97761D02*
X84772Y-97761D01*
X67603Y-96052D02*
X67285Y-114246D01*
X67603Y-96052D02*
X72099Y-96130D01*
X71781Y-114324D01*
X67285Y-114246D01*
X67342Y-110967D02*
X71840Y-110967D01*
X71898Y-107610D02*
X67401Y-107610D01*
X67460Y-104253D02*
X71957Y-104253D01*
X72016Y-100896D02*
X67518Y-100896D01*
X67577Y-97539D02*
X72074Y-97539D01*
X66739Y-145545D02*
X66421Y-163739D01*
X66739Y-145545D02*
X71235Y-145623D01*
X70917Y-163817D01*
X66421Y-163739D01*
X66478Y-160460D02*
X70976Y-160460D01*
X71034Y-157103D02*
X66537Y-157103D01*
X66596Y-153746D02*
X71093Y-153746D01*
X71152Y-150389D02*
X66654Y-150389D01*
X66713Y-147032D02*
X71210Y-147032D01*
X79437Y-145766D02*
X79119Y-163960D01*
X79437Y-145766D02*
X83933Y-145844D01*
X83615Y-164038D01*
X79119Y-163960D01*
X79176Y-160681D02*
X83674Y-160681D01*
X83732Y-157324D02*
X79235Y-157324D01*
X79294Y-153967D02*
X83791Y-153967D01*
X83850Y-150610D02*
X79352Y-150610D01*
X79411Y-147253D02*
X83908Y-147253D01*
X92135Y-145988D02*
X91817Y-164182D01*
X92135Y-145988D02*
X96631Y-146066D01*
X96313Y-164260D01*
X91817Y-164182D01*
X91874Y-160903D02*
X96372Y-160903D01*
X96430Y-157546D02*
X91933Y-157546D01*
X91992Y-154189D02*
X96489Y-154189D01*
X96548Y-150832D02*
X92050Y-150832D01*
X92109Y-147475D02*
X96606Y-147475D01*
X104833Y-146210D02*
X104515Y-164404D01*
X104833Y-146210D02*
X109329Y-146288D01*
X109011Y-164482D01*
X104515Y-164404D01*
X104572Y-161125D02*
X109070Y-161125D01*
X109128Y-157768D02*
X104631Y-157768D01*
X104690Y-154411D02*
X109187Y-154411D01*
X109246Y-151054D02*
X104748Y-151054D01*
X104807Y-147697D02*
X109304Y-147697D01*
D13*
X107929Y-194991D03*
X91625Y-194991D03*
X108259Y-212876D03*
X91955Y-212876D03*
D14*
X49867Y-212931D03*
X49867Y-178501D03*
D15*
X81233Y-194366D03*
X65741Y-194366D03*
D16*
X122997Y-191846D03*
X122997Y-207338D03*
D15*
X66011Y-212536D03*
X81503Y-212536D03*
D17*
G36*
X-50426Y-7681D02*
X-33316Y-7861D01*
X-33496Y-24971D01*
X-50606Y-24791D01*
X-50426Y-7681D01*
G37*
D18*
X-141955Y-15279D03*
X-40631Y110667D03*
X-140625Y111714D03*
D19*
X20897Y-15976D03*
X39897Y-15976D03*
D16*
X-160678Y148838D03*
X-160678Y164330D03*
D13*
X-108805Y215499D03*
X-92501Y215499D03*
D20*
X-3853Y183602D03*
X-3853Y199906D03*
X15617Y200646D03*
X15617Y184342D03*
D13*
X-58035Y214924D03*
X-41731Y214924D03*
D16*
X-128538Y147538D03*
X-128538Y163030D03*
D20*
X-129083Y180232D03*
X-129083Y196536D03*
X-160834Y196396D03*
X-160834Y180092D03*
D16*
X5857Y163580D03*
X5857Y148088D03*
D15*
G36*
X-214492Y77208D02*
X-214413Y65970D01*
X-226146Y65888D01*
X-226225Y77126D01*
X-214492Y77208D01*
G37*
G36*
X-214600Y92700D02*
X-214521Y81462D01*
X-226254Y81380D01*
X-226333Y92618D01*
X-214600Y92700D01*
G37*
D21*
X-221990Y-10786D03*
X-221902Y14614D03*
X-221813Y40014D03*
D13*
G36*
X-214674Y104185D02*
X-214429Y94171D01*
X-226194Y93883D01*
X-226439Y103897D01*
X-214674Y104185D01*
G37*
G36*
X-215072Y120485D02*
X-214827Y110471D01*
X-226592Y110183D01*
X-226837Y120197D01*
X-215072Y120485D01*
G37*
D20*
X-16413Y163706D03*
X-16413Y147402D03*
D18*
X-173875Y-129526D03*
X-148475Y-129659D03*
X-46877Y-130191D03*
D17*
G36*
X37833Y-139190D02*
X20722Y-139101D01*
X20811Y-121990D01*
X37922Y-122079D01*
X37833Y-139190D01*
G37*
D13*
X-99655Y-243186D03*
X-83351Y-243186D03*
D20*
X-131893Y-155944D03*
X-131893Y-172248D03*
D22*
G36*
X-159292Y-162269D02*
X-159491Y-148005D01*
X-151212Y-147889D01*
X-151013Y-162153D01*
X-159292Y-162269D01*
G37*
G36*
X-178291Y-162534D02*
X-178490Y-148270D01*
X-170211Y-148154D01*
X-170012Y-162418D01*
X-178291Y-162534D01*
G37*
G36*
X-168494Y-183680D02*
X-168693Y-169416D01*
X-160414Y-169300D01*
X-160215Y-183564D01*
X-168494Y-183680D01*
G37*
D23*
G36*
X-152834Y-210932D02*
X-178783Y-211204D01*
X-178968Y-193522D01*
X-153019Y-193250D01*
X-152834Y-210932D01*
G37*
G36*
X-110678Y-210490D02*
X-136627Y-210762D01*
X-136812Y-193080D01*
X-110863Y-192808D01*
X-110678Y-210490D01*
G37*
D24*
X107987Y-35446D03*
X15987Y74554D03*
X-47013Y-63446D03*
D25*
X-204013Y89554D03*
X-173013Y10554D03*
X219987Y-37446D03*
X249987Y-114446D03*
D26*
X122687Y8418D02*
X122687Y23658D01*
X46487Y66838D02*
X46487Y82078D01*
D27*
X186787Y-214682D03*
X183347Y4290D03*
D28*
X-99749Y192604D03*
X-99749Y179904D03*
X-99749Y167204D03*
X-99749Y154504D03*
X-50277Y154504D03*
X-50277Y167204D03*
X-50277Y179904D03*
X-50277Y192604D03*
D29*
G36*
X268268Y119887D02*
X293946Y93203D01*
X256456Y57125D01*
X230778Y83809D01*
X268268Y119887D01*
G37*
G36*
X233598Y155915D02*
X259276Y129231D01*
X221786Y93153D01*
X196108Y119837D01*
X233598Y155915D01*
G37*
D30*
G36*
X134442Y258953D02*
X149025Y243799D01*
X111534Y207721D01*
X96951Y222875D01*
X134442Y258953D01*
G37*
G36*
X152054Y240651D02*
X166637Y225497D01*
X129146Y189419D01*
X114563Y204573D01*
X152054Y240651D01*
G37*
D31*
X-88964Y-219524D03*
X-88654Y-194126D03*
X-63566Y-219835D03*
X-63256Y-194437D03*
X-38168Y-220145D03*
X-37858Y-194747D03*
X-12770Y-220455D03*
X-12460Y-195057D03*
X12628Y-220766D03*
X12938Y-195368D03*
D32*
X-230013Y-70446D03*
X38987Y240554D03*
X272987Y-79446D03*
D15*
X-18267Y194554D03*
X-33759Y194554D03*
D33*
X185987Y-157446D03*
X-77061Y138524D03*
X-64925Y138524D03*
X-189793Y115334D03*
X-220434Y87047D03*
X-144653Y144084D03*
X50987Y-110446D03*
X-23013Y212554D03*
X-118013Y196554D03*
X126987Y201554D03*
X152987Y228554D03*
X37987Y-242446D03*
D34*
X117650Y192084D03*
D33*
X66802Y-176403D03*
X96987Y123554D03*
X-152013Y9554D03*
X-47013Y-102446D03*
X66987Y-56446D03*
X64987Y14554D03*
X150987Y3554D03*
X219987Y46554D03*
X153987Y-82446D03*
M02*
