G04 EAGLE Gerber RS-274X export*
G75*
%MOMM*%
%FSLAX34Y34*%
%LPD*%
%INSolderpaste Top*%
%IPPOS*%
%AMOC8*
5,1,8,0,0,1.08239X$1,22.5*%
G01*
%ADD10C,0.150000*%
%ADD11R,0.798700X0.973900*%
%ADD12R,0.783900X1.127200*%
%ADD13R,0.920900X0.970200*%
%ADD14R,0.970200X0.920900*%
%ADD15R,1.300000X1.500000*%
%ADD16R,0.973900X0.798700*%
%ADD17R,1.223500X0.624800*%
%ADD18R,2.392000X1.565300*%
%ADD19R,1.969400X0.592200*%
%ADD20R,3.500000X5.000000*%
%ADD21R,1.900000X5.000000*%


D10*
X105378Y-114912D02*
X105696Y-96716D01*
X110194Y-96794D01*
X109876Y-114990D01*
X105378Y-114912D01*
X105402Y-113565D02*
X109901Y-113565D01*
X109926Y-112140D02*
X105426Y-112140D01*
X105451Y-110715D02*
X109951Y-110715D01*
X109976Y-109290D02*
X105476Y-109290D01*
X105501Y-107865D02*
X110001Y-107865D01*
X110025Y-106440D02*
X105526Y-106440D01*
X105551Y-105015D02*
X110050Y-105015D01*
X110075Y-103590D02*
X105576Y-103590D01*
X105601Y-102165D02*
X110100Y-102165D01*
X110125Y-100740D02*
X105626Y-100740D01*
X105651Y-99315D02*
X110150Y-99315D01*
X110175Y-97890D02*
X105675Y-97890D01*
X92998Y-96495D02*
X92680Y-114691D01*
X92998Y-96495D02*
X97496Y-96573D01*
X97178Y-114769D01*
X92680Y-114691D01*
X92704Y-113344D02*
X97203Y-113344D01*
X97228Y-111919D02*
X92728Y-111919D01*
X92753Y-110494D02*
X97253Y-110494D01*
X97278Y-109069D02*
X92778Y-109069D01*
X92803Y-107644D02*
X97303Y-107644D01*
X97327Y-106219D02*
X92828Y-106219D01*
X92853Y-104794D02*
X97352Y-104794D01*
X97377Y-103369D02*
X92878Y-103369D01*
X92903Y-101944D02*
X97402Y-101944D01*
X97427Y-100519D02*
X92928Y-100519D01*
X92953Y-99094D02*
X97452Y-99094D01*
X97477Y-97669D02*
X92977Y-97669D01*
X80300Y-96273D02*
X79982Y-114469D01*
X80300Y-96273D02*
X84798Y-96351D01*
X84480Y-114547D01*
X79982Y-114469D01*
X80006Y-113122D02*
X84505Y-113122D01*
X84530Y-111697D02*
X80030Y-111697D01*
X80055Y-110272D02*
X84555Y-110272D01*
X84580Y-108847D02*
X80080Y-108847D01*
X80105Y-107422D02*
X84605Y-107422D01*
X84629Y-105997D02*
X80130Y-105997D01*
X80155Y-104572D02*
X84654Y-104572D01*
X84679Y-103147D02*
X80180Y-103147D01*
X80205Y-101722D02*
X84704Y-101722D01*
X84729Y-100297D02*
X80230Y-100297D01*
X80255Y-98872D02*
X84754Y-98872D01*
X84779Y-97447D02*
X80279Y-97447D01*
X67602Y-96051D02*
X67284Y-114247D01*
X67602Y-96051D02*
X72100Y-96129D01*
X71782Y-114325D01*
X67284Y-114247D01*
X67308Y-112900D02*
X71807Y-112900D01*
X71832Y-111475D02*
X67332Y-111475D01*
X67357Y-110050D02*
X71857Y-110050D01*
X71882Y-108625D02*
X67382Y-108625D01*
X67407Y-107200D02*
X71907Y-107200D01*
X71931Y-105775D02*
X67432Y-105775D01*
X67457Y-104350D02*
X71956Y-104350D01*
X71981Y-102925D02*
X67482Y-102925D01*
X67507Y-101500D02*
X72006Y-101500D01*
X72031Y-100075D02*
X67532Y-100075D01*
X67557Y-98650D02*
X72056Y-98650D01*
X72081Y-97225D02*
X67581Y-97225D01*
X66738Y-145544D02*
X66420Y-163740D01*
X66738Y-145544D02*
X71236Y-145622D01*
X70918Y-163818D01*
X66420Y-163740D01*
X66444Y-162393D02*
X70943Y-162393D01*
X70968Y-160968D02*
X66468Y-160968D01*
X66493Y-159543D02*
X70993Y-159543D01*
X71018Y-158118D02*
X66518Y-158118D01*
X66543Y-156693D02*
X71043Y-156693D01*
X71067Y-155268D02*
X66568Y-155268D01*
X66593Y-153843D02*
X71092Y-153843D01*
X71117Y-152418D02*
X66618Y-152418D01*
X66643Y-150993D02*
X71142Y-150993D01*
X71167Y-149568D02*
X66668Y-149568D01*
X66693Y-148143D02*
X71192Y-148143D01*
X71217Y-146718D02*
X66717Y-146718D01*
X79436Y-145765D02*
X79118Y-163961D01*
X79436Y-145765D02*
X83934Y-145843D01*
X83616Y-164039D01*
X79118Y-163961D01*
X79142Y-162614D02*
X83641Y-162614D01*
X83666Y-161189D02*
X79166Y-161189D01*
X79191Y-159764D02*
X83691Y-159764D01*
X83716Y-158339D02*
X79216Y-158339D01*
X79241Y-156914D02*
X83741Y-156914D01*
X83765Y-155489D02*
X79266Y-155489D01*
X79291Y-154064D02*
X83790Y-154064D01*
X83815Y-152639D02*
X79316Y-152639D01*
X79341Y-151214D02*
X83840Y-151214D01*
X83865Y-149789D02*
X79366Y-149789D01*
X79391Y-148364D02*
X83890Y-148364D01*
X83915Y-146939D02*
X79415Y-146939D01*
X92134Y-145987D02*
X91816Y-164183D01*
X92134Y-145987D02*
X96632Y-146065D01*
X96314Y-164261D01*
X91816Y-164183D01*
X91840Y-162836D02*
X96339Y-162836D01*
X96364Y-161411D02*
X91864Y-161411D01*
X91889Y-159986D02*
X96389Y-159986D01*
X96414Y-158561D02*
X91914Y-158561D01*
X91939Y-157136D02*
X96439Y-157136D01*
X96463Y-155711D02*
X91964Y-155711D01*
X91989Y-154286D02*
X96488Y-154286D01*
X96513Y-152861D02*
X92014Y-152861D01*
X92039Y-151436D02*
X96538Y-151436D01*
X96563Y-150011D02*
X92064Y-150011D01*
X92089Y-148586D02*
X96588Y-148586D01*
X96613Y-147161D02*
X92113Y-147161D01*
X104832Y-146209D02*
X104514Y-164405D01*
X104832Y-146209D02*
X109330Y-146287D01*
X109012Y-164483D01*
X104514Y-164405D01*
X104538Y-163058D02*
X109037Y-163058D01*
X109062Y-161633D02*
X104562Y-161633D01*
X104587Y-160208D02*
X109087Y-160208D01*
X109112Y-158783D02*
X104612Y-158783D01*
X104637Y-157358D02*
X109137Y-157358D01*
X109161Y-155933D02*
X104662Y-155933D01*
X104687Y-154508D02*
X109186Y-154508D01*
X109211Y-153083D02*
X104712Y-153083D01*
X104737Y-151658D02*
X109236Y-151658D01*
X109261Y-150233D02*
X104762Y-150233D01*
X104787Y-148808D02*
X109286Y-148808D01*
X109311Y-147383D02*
X104811Y-147383D01*
D11*
X107929Y-194991D03*
X91625Y-194991D03*
X108259Y-212876D03*
X91955Y-212876D03*
D12*
X49867Y-212931D03*
X49867Y-178501D03*
D13*
X81233Y-194366D03*
X65741Y-194366D03*
D14*
X122997Y-191846D03*
X122997Y-207338D03*
D13*
X66011Y-212536D03*
X81503Y-212536D03*
D15*
X20897Y-15976D03*
X39897Y-15976D03*
D14*
X-160678Y148838D03*
X-160678Y164330D03*
D11*
X-108805Y215499D03*
X-92501Y215499D03*
D16*
X-3853Y183602D03*
X-3853Y199906D03*
X15617Y200646D03*
X15617Y184342D03*
D11*
X-58035Y214924D03*
X-41731Y214924D03*
D14*
X-128538Y147538D03*
X-128538Y163030D03*
D16*
X-129083Y180232D03*
X-129083Y196536D03*
X-160834Y196396D03*
X-160834Y180092D03*
D14*
X5857Y163580D03*
X5857Y148088D03*
D13*
G36*
X-215501Y76185D02*
X-215436Y66978D01*
X-225137Y66911D01*
X-225202Y76118D01*
X-215501Y76185D01*
G37*
G36*
X-215609Y91677D02*
X-215544Y82470D01*
X-225245Y82403D01*
X-225310Y91610D01*
X-215609Y91677D01*
G37*
D11*
G36*
X-215665Y103144D02*
X-215469Y95162D01*
X-225203Y94924D01*
X-225399Y102906D01*
X-215665Y103144D01*
G37*
G36*
X-216063Y119444D02*
X-215867Y111462D01*
X-225601Y111224D01*
X-225797Y119206D01*
X-216063Y119444D01*
G37*
D16*
X-16413Y163706D03*
X-16413Y147402D03*
D11*
X-99655Y-243186D03*
X-83351Y-243186D03*
D16*
X-131893Y-155944D03*
X-131893Y-172248D03*
D17*
G36*
X-158290Y-161239D02*
X-158461Y-149007D01*
X-152214Y-148919D01*
X-152043Y-161151D01*
X-158290Y-161239D01*
G37*
G36*
X-177289Y-161504D02*
X-177460Y-149272D01*
X-171213Y-149184D01*
X-171042Y-161416D01*
X-177289Y-161504D01*
G37*
G36*
X-167492Y-182650D02*
X-167663Y-170418D01*
X-161416Y-170330D01*
X-161245Y-182562D01*
X-167492Y-182650D01*
G37*
D18*
G36*
X-153860Y-209927D02*
X-177778Y-210177D01*
X-177942Y-194527D01*
X-154024Y-194277D01*
X-153860Y-209927D01*
G37*
G36*
X-111704Y-209485D02*
X-135622Y-209735D01*
X-135786Y-194085D01*
X-111868Y-193835D01*
X-111704Y-209485D01*
G37*
D19*
X-99749Y192604D03*
X-99749Y179904D03*
X-99749Y167204D03*
X-99749Y154504D03*
X-50277Y154504D03*
X-50277Y167204D03*
X-50277Y179904D03*
X-50277Y192604D03*
D20*
G36*
X268241Y118450D02*
X292510Y93231D01*
X256483Y58562D01*
X232214Y83781D01*
X268241Y118450D01*
G37*
G36*
X233571Y154478D02*
X257840Y129259D01*
X221813Y94590D01*
X197544Y119809D01*
X233571Y154478D01*
G37*
D21*
G36*
X134414Y257517D02*
X147589Y243826D01*
X111562Y209157D01*
X98387Y222848D01*
X134414Y257517D01*
G37*
G36*
X152026Y239215D02*
X165201Y225524D01*
X129174Y190855D01*
X115999Y204546D01*
X152026Y239215D01*
G37*
D13*
X-18267Y194554D03*
X-33759Y194554D03*
M02*
