M48
;GenerationSoftware,Autodesk,EAGLE,9.6.2*%
;CreationDate,2023-04-15T07:37:35Z*%
FMAT,2
ICI,OFF
METRIC,TZ,000.000
T10C0.350
T9C0.500
T8C0.600
T7C0.650
T6C0.700
T5C1.000
T4C1.016
T3C1.300
T2C1.600
T1C3.000
%
G90
M71
T1
X27299Y-7945
X3899Y24055
X-23001Y-7045
T2
X10799Y-3545
X-4701Y-6345
X1599Y7455
T3
X18335Y429
X18679Y-21468
T4
X-6357Y-21983
X-8865Y-19413
X-8896Y-21952
X4649Y7446
X12269Y1604
X1263Y-22077
X-1246Y-19506
X-1277Y-22046
X-3786Y-19475
X-3817Y-22015
X-6326Y-19444
X1294Y-19537
T5
X-14063Y11171
X-4063Y11067
X-4196Y-1633
X-22181Y4001
X-22190Y1461
X-14196Y-1528
X-22199Y-1079
X-14848Y-12966
X-4688Y-13019
X2932Y-13059
X-17387Y-12953
T6
X24999Y-11445
X21999Y-3745
X-17301Y1055
X-20401Y8955
T7
X11765Y19208
T8
X-7201Y-14045
X-9001Y-12245
X-8801Y-12445
X-8601Y-12645
X-8401Y-12845
X8099Y-13245
X8399Y-13245
X8699Y-13245
X8999Y-13245
X9299Y-13245
X9599Y-13245
X9899Y-13245
X10199Y-13245
X10499Y-13245
X10799Y-13245
X11099Y-13245
X7499Y-13245
X2499Y-16945
X6599Y-13245
X6899Y-13245
X7199Y-13245
X-8201Y-13045
X-8001Y-13245
X-7801Y-13445
X-7601Y-13645
X-7401Y-13845
X-7001Y-14245
X-6801Y-14445
X-6601Y-14645
X-6401Y-14845
X-6201Y-15045
X-6001Y-15245
X-5873Y-15348
X-5701Y-15545
X-5501Y-15745
X-5301Y-15945
X-5101Y-16145
X-4801Y-16345
X-4601Y-16545
X-4401Y-16745
X-4101Y-16945
X-3801Y-16945
X-3501Y-16945
X-3201Y-16945
X-2901Y-16945
X-2601Y-16945
X-2301Y-16945
X-2001Y-16945
X399Y-16945
X699Y-16945
X999Y-16945
X1299Y-16945
X1599Y-16945
X1899Y-16945
X2199Y-16945
X7799Y-13245
X2799Y-16945
X3199Y-16645
X3399Y-16445
X3599Y-16245
X3899Y-15945
X4099Y-15745
X4399Y-15445
X4699Y-15145
X4899Y-14945
X5099Y-14745
X-10101Y-11145
X-9901Y-11345
X-9601Y-11645
X-9401Y-11845
X-9201Y-12045
T9
X23853Y11136
X27753Y8036
X27553Y7836
X27353Y7636
X26953Y7636
X26753Y7836
X26553Y8036
X26353Y8236
X26153Y8436
X27953Y8236
X27753Y8436
X27553Y8636
X27353Y8836
X27153Y9036
X26953Y9236
X26753Y9436
X26553Y9636
X12332Y22250
X26353Y9836
X26153Y10036
X25953Y10236
X24753Y9836
X24953Y9636
X25153Y9436
X25353Y9236
X25553Y9036
X25753Y8836
X25953Y8636
X24953Y10036
X25153Y10236
X25353Y10436
X25553Y10636
X25753Y10436
X23653Y10936
X23453Y11136
X24053Y11336
X24253Y11536
X11153Y23436
X11353Y23236
X11553Y23036
X11753Y22836
X11953Y22636
X12153Y22436
X12953Y21636
X11353Y23636
X11553Y23836
X11753Y24036
X11953Y24236
X12153Y24036
X12353Y23836
X12553Y23636
X13353Y22836
X13553Y22636
X13753Y22436
X13953Y22236
X14153Y22036
X14353Y21836
X14553Y21636
X14753Y21436
X14953Y21236
X13153Y21436
X13353Y21236
X13553Y21036
X13753Y20836
X13953Y20636
X14153Y20436
X14353Y20636
X14553Y20836
X14753Y21036
X27153Y7436
X12586Y21996
X12840Y21742
X12699Y23455
X12899Y23255
X13099Y23055
X22453Y13736
X22653Y13536
X22853Y13336
X22053Y14136
X23053Y13136
X23253Y12936
X23453Y12736
X23653Y12536
X23853Y12336
X24053Y12136
X24253Y11936
X24453Y11736
X22653Y11936
X22853Y11736
X23053Y11536
X23253Y11336
X-5901Y11282
X-5901Y11482
X-5901Y11682
X-5901Y11882
X-5901Y12082
X-5801Y12182
X-5701Y12282
X-5601Y12382
X-5401Y12382
X-5201Y12382
X-5001Y12382
X-4801Y12382
X-4601Y12382
X-4401Y12382
X-4201Y12382
X-4001Y12382
X21853Y13936
X22253Y13936
X21653Y13736
X21453Y13536
X22453Y12136
X22253Y12336
X22053Y12536
X21853Y12736
X21653Y12936
X21453Y13136
X21253Y13336
T10
X-6492Y13852
X-18979Y11533
X-22043Y8705
X-14465Y14408
X5099Y-11045
X-2301Y21255
X-11801Y19655
X12699Y20155
X15299Y22855
X3799Y-24245
X6680Y-17640
X9699Y12355
X-15201Y955
X-4701Y-10245
X6699Y-5645
X6499Y1455
X21999Y4655
X15399Y-8245
X18599Y-15745
X15099Y355
X-7706Y13852
M30